<svg width="532" height="283" viewBox="0 0 532 283" fill="none" xmlns="http://www.w3.org/2000/svg">
<path d="M440.685 271.882C437.996 277.723 439.933 259.904 415.045 251.34C390.158 242.775 371.856 234.865 372.463 217.132C373.071 199.398 394.278 201.185 417.446 216.026C441.526 231.45 443.374 266.04 440.685 271.882Z" fill="#55A370"/>
<path d="M443.587 187.787C440.802 191.927 433.39 178.802 413.179 167.488C392.967 156.173 379.345 153.447 381.406 137.364C383.011 124.849 405.696 122.19 423.9 138.167C442.821 154.772 446.373 183.646 443.587 187.787Z" fill="#55A370"/>
<path d="M446.07 156.242C447.934 159.012 454.166 149.331 469.869 140.219C485.573 131.107 495.898 128.426 495.206 117.182C494.668 108.433 477.854 107.814 463.404 120.107C448.386 132.884 444.207 153.472 446.07 156.242Z" fill="#55A370"/>
<path d="M444.718 273.318C448.253 278.916 457.418 262.582 482.655 249.701C507.891 236.819 524.95 234.476 522.204 213.493C520.068 197.167 491.59 191.759 468.917 210.845C445.352 230.681 441.184 267.72 444.718 273.318Z" fill="#55A370"/>
<path d="M448.406 282.59C448.406 282.59 448.945 232.024 448.211 175.43C447.696 135.677 440.958 86.0852 440.958 86.0852L436.048 85.4171C436.048 85.4171 442.056 138.146 442.394 175.43C442.732 212.714 440.93 282.59 440.93 282.59L448.406 282.59Z" fill="#55A370"/>
<path d="M443.663 282.59C443.663 282.59 443.837 185.619 443.874 177.956C443.911 170.293 436.947 87.9584 436.947 87.9584L434.144 87.0006C434.144 87.0006 440.252 138.488 440.253 176.384C440.254 214.279 438.587 282.59 438.587 282.59L443.663 282.59Z" fill="#2D6A6E"/>
<path d="M428.285 154.011C434.598 160.6 440.421 174.764 440.742 178.5C441.062 182.235 435.158 166.351 425.633 158.661C416.109 150.972 409.632 149.018 407.361 146.136C405.09 143.255 421.971 147.422 428.285 154.011Z" fill="#2D6A6E"/>
<path d="M423.523 235.69C431.343 242.427 439.789 257.112 440.705 261.017C441.621 264.922 432.825 248.437 421.371 240.631C409.916 232.826 402.628 230.948 399.737 227.99C396.846 225.031 415.703 228.953 423.523 235.69Z" fill="#2D6A6E"/>
<path d="M459.68 132.732C454.727 137.64 449.877 148.161 449.507 150.931C449.137 153.701 454.108 141.905 461.502 136.169C468.896 130.432 473.809 128.959 475.609 126.815C477.408 124.67 464.634 127.824 459.68 132.732Z" fill="#2D6A6E"/>
<path d="M469.601 232.627C460.325 240.23 449.649 256.269 448.286 260.452C446.923 264.635 458.147 246.672 471.551 237.714C484.955 228.757 493.21 226.321 496.681 223.016C500.152 219.71 478.877 225.024 469.601 232.627Z" fill="#2D6A6E"/>
<path d="M370.96 30.4236C366.669 37.0212 374.151 47.6644 377.369 52.0628C380.587 56.4612 412.767 69.6563 431.002 67.4571C449.237 65.2579 484.662 35.9218 484.662 35.9218C484.662 35.9218 488.953 24.9259 486.807 16.1291C484.662 7.33236 476.081 9.53155 473.936 9.53155C471.79 9.53155 470.718 1.83439 463.209 1.83439C455.7 1.83439 456.773 7.33216 453.555 7.33236C450.337 7.33257 443.901 -1.46459 436.393 0.734853C428.884 2.93429 432.102 10.6311 428.884 10.6311C425.666 10.6311 424.593 1.83445 416.012 1.83439C407.431 1.83433 405.285 9.53155 400.995 10.6311C396.704 11.7307 394.559 7.33236 387.05 10.6311C379.542 13.9299 383.832 20.5273 380.614 23.8261C377.396 27.1249 375.25 23.8261 370.96 30.4236Z" fill="#FFB84E"/>
<path d="M401.681 23.045C400.488 24.3024 414.276 38.6172 415.423 39.9166C416.09 40.6725 413.083 39.8747 410.766 38.5542C408.449 37.2338 405.474 34.6227 404.984 34.614C403.814 34.593 410.151 39.1381 413.059 41.1531C413.302 41.3214 409.356 40.2755 404.916 38.4493C401.048 36.8583 396.714 34.4656 395.624 34.446C393.284 34.404 403.722 39.7067 407.21 41.0482C409.411 41.8946 413.892 42.8643 416.524 43.773C416.768 43.8571 413.51 44.3742 409.504 43.647C405.163 42.8591 400.042 40.822 400.19 40.9222C400.477 41.1168 403.654 43.5421 409.481 44.9255C415.308 46.3089 422.134 46.1825 422.134 46.1825C422.134 46.1825 439.075 46.0004 442.562 47.3418C444.765 48.1892 449.964 38.6612 456.51 32.9806C460.326 29.6693 462.985 26.1914 462.498 25.4149C462.012 24.6383 460.671 27.6842 457.726 30.4447C455.251 32.7652 452.342 34.1847 451.808 34.1751C451.25 34.1651 452.788 32.4854 454.216 30.3817C455.784 28.0729 457.26 25.3209 456.648 25.3099C456.182 25.3016 454.302 28.9785 451.853 31.6182C448.151 35.6096 443.526 39.142 443.526 39.142C443.526 39.142 446.578 34.8962 449.536 30.2978C452.262 26.0611 453.768 21.4217 453.207 21.4116C452.652 21.4017 451.081 26.3929 448.366 30.2768C445.358 34.581 442.379 37.8426 442.379 37.8426C442.379 37.8426 447.219 28.9773 446.049 28.9564C445.543 28.9473 446.049 28.9564 443.641 32.7497C441.232 36.5431 440.062 36.5222 440.062 36.5222C440.062 36.5222 442.366 33.0273 443.709 28.9144C445.172 24.4349 445.662 19.3308 445.04 19.9863C444.486 20.57 443.982 23.9266 442.562 27.6149C440.923 31.8726 438.349 36.4914 437.722 36.4801C437.154 36.4699 438.961 32.6658 439.052 27.552C439.144 22.4382 439.247 18.6035 438.043 18.5819C436.886 18.5611 438.254 22.9593 437.882 27.531C437.502 32.2091 435.407 35.7918 434.212 36.4171C432.905 37.1011 433.27 31.2737 433.225 26.1686C433.189 22.0446 432.716 18.4864 432.193 18.477C431.023 18.456 433.088 33.8393 430.748 33.7973C429.518 33.7752 428.545 26.0846 428.545 26.0846C428.545 26.0846 427.513 18.393 426.343 18.372C425.173 18.351 428.43 32.4769 427.261 32.4559C426.091 32.4349 421.64 19.5665 420.47 19.5455C419.3 19.5245 424.943 31.1354 423.774 31.1145C422.604 31.0935 417.25 19.964 415.767 20.74C414.284 21.5159 426.022 36.2701 424.829 37.5277C423.636 38.7852 413.358 24.5333 412.188 24.5123C411.018 24.4913 419.071 32.3089 417.878 33.5664C416.685 34.8239 407.531 23.1499 405.191 23.1079C402.851 23.066 421.273 40.0216 421.273 40.0216C421.273 40.0216 414.182 36.8656 409.711 32.141C405.579 27.7752 402.254 22.4411 401.681 23.045Z" fill="white"/>
<path d="M439.099 83.5254C408.8 88.3384 379.477 64.0059 376.231 53.4173C372.985 42.8287 377.524 38.2831 381.747 39.2457C385.971 40.2083 390.299 44.0587 392.463 44.0587C394.627 44.0587 397.874 40.2083 404.366 40.2083C410.859 40.2083 410.964 45.0213 414.21 44.0587C417.457 43.0961 415.292 38.2832 419.621 37.3205C423.949 36.3579 428.807 45.0214 430.971 44.0587C433.135 43.0961 429.368 33.0741 434.779 32.1115C440.189 31.1489 444.224 40.2083 447.471 39.2457C450.717 38.2831 449.92 27.6945 454.248 26.7319C458.576 25.7693 461.823 28.6571 465.069 28.6571C468.315 28.6571 469.398 21.9188 474.808 20.9562C480.219 19.9936 487.793 20.9563 486.711 35.3954C485.629 49.8344 469.398 78.7124 439.099 83.5254Z" fill="#FFB84E"/>
<path d="M420.373 78.121C423.583 81.0481 430.693 83.4361 432.601 83.4536C434.509 83.471 427.53 79.7692 422.83 76.6058C418.131 73.4425 416.168 70.2881 414.751 69.2549C413.333 68.2218 417.163 75.1939 420.373 78.121Z" fill="white"/>
<path d="M426.502 75.1998C428.389 79.1149 434.086 83.9875 435.847 84.7167C437.607 85.446 432.517 79.4036 429.339 74.7127C426.161 70.0219 425.513 66.3621 424.584 64.874C423.655 63.386 424.615 71.2846 426.502 75.1998Z" fill="white"/>
<path d="M434.009 74.4741C434.152 78.8052 436.55 85.4122 437.511 86.7308C438.472 88.0494 436.808 80.574 436.029 75.0515C435.25 69.529 435.858 65.8859 435.663 64.1628C435.469 62.4398 433.867 70.1429 434.009 74.4741Z" fill="white"/>
<path d="M450.221 73.3091C447.513 76.7085 440.877 80.1964 438.999 80.5172C437.12 80.838 443.423 76.0745 447.562 72.2051C451.701 68.3357 453.144 64.9105 454.38 63.6655C455.616 62.4205 452.929 69.9098 450.221 73.3091Z" fill="white"/>
<path d="M434.392 79.5334C432.524 80.4913 428.786 77.6175 427.851 80.4913C426.917 83.3651 428.786 86.2389 430.655 87.1969C432.524 88.1548 433.458 87.3923 435.327 88.1548C437.196 88.9172 438.444 89.4914 440.685 88.9172C442.926 88.3431 443.737 84.3231 446.54 83.3651C449.344 82.4072 449.344 78.5755 447.475 77.6176C445.606 76.6596 443.737 78.5755 441.868 78.5755C439.999 78.5754 439.065 75.7017 437.196 76.6596C435.327 77.6175 436.261 78.5755 434.392 79.5334Z" fill="#2D6A6E"/>
<path d="M376.231 53.6877C372.985 43.0116 377.524 38.4285 381.747 39.399C385.971 40.3696 390.299 44.2518 392.463 44.2518C394.627 44.2518 397.874 40.3696 404.366 40.3696C410.859 40.3696 410.964 45.2224 414.21 44.2518C417.457 43.2812 415.292 38.4285 419.621 37.4579C423.949 36.4874 427.538 45.2224 429.702 44.2518C431.866 43.2812 429.368 34.4561 434.779 33.4856C440.189 32.515 444.224 41.3402 447.471 40.3696C450.717 39.3991 449.92 27.7524 454.248 26.7818C458.576 25.8113 461.823 28.723 465.069 28.7229C468.315 28.7229 469.398 21.929 474.808 20.9584C480.219 19.9879 487.793 20.9586 486.711 35.5169" stroke="white" stroke-width="1.8" stroke-linecap="round"/>
<path d="M261.719 266.873C259.316 273.209 260.46 254.16 235.512 246.149C210.563 238.139 192.147 230.532 191.982 211.633C191.818 192.733 212.838 193.695 236.359 208.461C260.805 223.808 264.123 260.537 261.719 266.873Z" fill="#55A370"/>
<path d="M243.208 229.118C251.221 235.941 260.197 251.194 261.27 255.309C262.343 259.424 252.944 242.271 241.296 234.472C229.647 226.673 222.368 224.999 219.385 221.978C216.403 218.957 235.194 222.295 243.208 229.118Z" fill="#2D6A6E"/>
<path d="M268.508 282.586C268.508 282.586 269.029 248.084 268.32 209.469C267.821 182.344 261.304 148.507 261.304 148.507L256.555 148.051C256.555 148.051 262.366 184.029 262.693 209.469C263.02 234.908 261.277 282.586 261.277 282.586H268.508Z" fill="#55A370"/>
<path d="M263.921 282.586C263.921 282.586 264.089 216.421 264.125 211.192C264.16 205.964 257.708 147 257.708 147H255.711C255.711 147 260.621 184.263 260.622 210.12C260.623 235.976 259.01 282.586 259.01 282.586H263.921Z" fill="#2D6A6E"/>
<path d="M264.949 267.717C266.903 274.757 277.215 256.783 300.15 244.982C323.085 233.181 337.506 232.677 338.816 207.673C339.835 188.217 317.344 178.113 295.461 197.538C272.718 217.728 262.995 260.677 264.949 267.717Z" fill="#55A370"/>
<path d="M292.32 223.21C283.402 230.916 271.899 248.345 270.068 253.078C268.237 257.811 280.517 238.194 293.058 229.441C305.6 220.688 312.8 218.917 316.215 215.492C319.63 212.067 301.238 215.503 292.32 223.21Z" fill="#2D6A6E"/>
<path d="M263.78 182.863C266.198 185.44 271.138 174.353 286.125 162.311C301.112 150.269 311.516 145.795 308.921 134.212C306.902 125.199 289.132 127.301 275.991 142.447C262.333 158.189 261.362 180.287 263.78 182.863Z" fill="#55A370"/>
<path d="M274.176 156.187C269.786 162.101 266.438 173.836 266.509 176.778C266.581 179.72 269.844 166.638 276.661 159.464C283.477 152.291 288.395 149.956 289.93 147.431C291.464 144.907 278.565 150.273 274.176 156.187Z" fill="#2D6A6E"/>
<path d="M268.082 135.932C266.845 141.652 262.049 145.307 257.37 144.097C252.691 142.887 249.901 137.27 251.138 131.55C252.375 125.831 257.172 122.175 261.851 123.385C266.53 124.596 269.32 130.213 268.082 135.932Z" fill="#FFB84E"/>
<path d="M257.37 141.458C256.408 142.046 254.419 138.033 253.811 140.012C253.203 141.991 255.002 146.19 255.863 146.951C256.725 147.712 257.221 147.218 258.093 147.841C258.964 148.464 259.543 148.926 260.667 148.626C261.791 148.326 261.634 146.571 263.053 146.026C264.472 145.482 264.667 141.887 263.805 141.127C262.944 140.366 262.269 141.185 261.357 141.099C260.445 141.012 259.802 138.958 258.803 138.954C257.803 138.95 258.333 140.871 257.37 141.458Z" fill="#2D6A6E"/>
<path d="M263.672 202.159C263.951 207.418 252.796 194.704 235.07 187.351C217.343 179.997 206.026 179.665 205.614 164.149C205.294 152.075 223.211 145.836 239.923 157.919C257.292 170.477 263.393 196.899 263.672 202.159Z" fill="#55A370"/>
<path d="M243.002 173.719C248.959 178.416 255.984 189.281 256.931 192.267C257.877 195.253 250.466 183.007 241.905 177.74C233.345 172.473 228.144 171.537 225.904 169.434C223.665 167.332 237.045 169.023 243.002 173.719Z" fill="#2D6A6E"/>
<path d="M90.3485 258.682C89.1345 260.557 87.1964 259.682 84.0319 257.248C83.9669 257.198 83.9014 257.148 83.8354 257.096C78.5273 252.973 69.8482 244.667 55.5369 237.541C32.3793 226.01 16.7259 223.912 19.2454 205.13C21.2058 190.515 47.3377 185.674 68.1434 202.759C89.7672 220.516 93.5919 253.671 90.3485 258.682Z" fill="#55A370"/>
<path d="M84.2371 258.548C86.5748 263.507 94.7167 254.794 112.654 246.337C130.591 237.88 147.447 239.047 143.817 223.375C140.792 210.317 121.428 202.515 104.247 213.699C87.7004 224.47 82.6304 249.532 83.8354 257.096C83.9959 257.22 84.0115 257.598 83.9959 257.867C84.0657 258.128 84.1463 258.356 84.2371 258.548Z" fill="#55A370"/>
<path d="M84.2425 253.625H90.9779L93.3354 282.588H82.5586L83.9959 257.867L84.0319 257.248L84.2425 253.625Z" fill="#55A370"/>
<path d="M77.324 228.912C83.0044 235.118 88.2436 248.459 88.5319 251.977C88.5669 252.404 88.5112 253.471 88.284 252.612C88.0569 251.753 82.4685 239.656 74.9387 233.292C66.369 226.049 60.5422 224.209 58.499 221.495C56.4558 218.781 71.6437 222.706 77.324 228.912Z" fill="#2D6A6E"/>
<path d="M97.9608 235.367C93.3526 239.88 88.8019 249.856 88.44 252.543C88.0781 255.23 92.7532 243.985 99.6205 238.802C106.488 233.62 111.03 232.491 112.707 230.498C114.384 228.505 102.569 230.854 97.9608 235.367Z" fill="#2D6A6E"/>
<path d="M83.9051 256.993L86.2625 258.677L87.6096 282.587H82.558L83.9051 256.993Z" fill="#2D6A6E"/>
</svg>
