<svg width="3294" height="784" viewBox="0 0 3294 784" fill="none" xmlns="http://www.w3.org/2000/svg">
<path d="M250.657 717.669C247.289 722.873 241.912 720.445 233.132 713.692C232.952 713.553 232.771 713.413 232.587 713.271C217.861 701.831 193.782 678.787 154.078 659.017C89.8311 627.027 46.4033 621.207 53.3932 569.099C58.8322 528.553 131.331 515.123 189.053 562.522C249.044 611.784 259.655 703.767 250.657 717.669Z" fill="#55A370"/>
<path d="M233.702 717.3C240.187 731.055 262.776 706.882 312.539 683.421C362.302 659.959 409.068 663.197 398.996 619.718C390.603 583.49 336.882 561.844 289.215 592.873C243.31 622.755 229.245 692.284 232.587 713.271C233.033 713.615 233.076 714.662 233.033 715.409C233.226 716.133 233.45 716.765 233.702 717.3Z" fill="#55A370"/>
<path d="M233.717 703.641H252.403L258.943 783.992H229.045L233.033 715.409L233.132 713.692L233.717 703.641Z" fill="#55A370"/>
<path d="M214.523 635.078C230.282 652.295 244.817 689.307 245.617 699.069C245.714 700.253 245.559 703.213 244.929 700.83C244.299 698.447 228.795 664.885 207.905 647.23C184.13 627.136 167.964 622.03 162.296 614.501C156.627 606.972 198.763 617.86 214.523 635.078Z" fill="#2D6A6E"/>
<path d="M271.776 652.985C258.991 665.506 246.366 693.185 245.362 700.638C244.358 708.091 257.328 676.894 276.381 662.517C295.433 648.14 308.034 645.007 312.686 639.479C317.338 633.95 284.56 640.465 271.776 652.985Z" fill="#2D6A6E"/>
<path d="M232.781 712.983L239.321 717.655L243.058 783.992H229.043L232.781 712.983Z" fill="#2D6A6E"/>
<path d="M726.096 740.394C719.428 757.971 722.601 705.123 653.387 682.899C584.173 660.675 533.08 639.573 532.623 587.139C532.166 534.706 590.482 537.373 655.739 578.34C723.561 620.917 732.764 722.816 726.096 740.394Z" fill="#55A370"/>
<path d="M674.739 635.649C696.971 654.578 721.872 696.895 724.849 708.311C727.825 719.728 701.752 672.14 669.434 650.503C637.117 628.866 616.922 624.221 608.648 615.84C600.373 607.46 652.506 616.721 674.739 635.649Z" fill="#2D6A6E"/>
<path d="M744.931 783.986C744.931 783.986 746.376 688.267 744.408 581.136C743.026 505.883 724.943 412.008 724.943 412.008L711.768 410.743C711.768 410.743 727.89 510.558 728.798 581.136C729.706 651.713 724.87 783.986 724.87 783.986H744.931Z" fill="#55A370"/>
<path d="M732.204 783.986C732.204 783.986 732.67 600.423 732.769 585.917C732.868 571.411 714.968 407.827 714.968 407.827H709.427C709.427 407.827 723.049 511.206 723.052 582.941C723.055 654.677 718.58 783.986 718.58 783.986H732.204Z" fill="#2D6A6E"/>
<path d="M735.058 742.736C740.479 762.268 769.085 712.401 832.715 679.661C896.345 646.92 936.355 645.522 939.988 576.154C942.815 522.177 880.419 494.143 819.708 548.037C756.61 604.05 729.637 723.205 735.058 742.736Z" fill="#55A370"/>
<path d="M810.993 619.257C786.252 640.637 754.339 688.992 749.259 702.122C744.178 715.252 778.247 660.83 813.041 636.546C847.835 612.263 867.811 607.347 877.285 597.846C886.759 588.345 835.734 597.878 810.993 619.257Z" fill="#2D6A6E"/>
<path d="M731.813 507.324C738.52 514.473 752.228 483.714 793.806 450.305C835.383 416.897 864.248 404.483 857.05 372.349C851.448 347.344 802.147 353.174 765.69 395.195C727.8 438.869 725.105 500.175 731.813 507.324Z" fill="#55A370"/>
<path d="M760.654 433.315C748.477 449.722 739.186 482.279 739.385 490.441C739.583 498.603 748.637 462.31 767.548 442.407C786.459 422.504 800.104 416.027 804.361 409.023C808.619 402.02 772.832 416.907 760.654 433.315Z" fill="#2D6A6E"/>
<path d="M743.749 377.121C740.317 392.989 727.011 403.13 714.03 399.773C701.048 396.416 693.308 380.831 696.741 364.963C700.173 349.096 713.479 338.955 726.46 342.312C739.442 345.669 747.182 361.254 743.749 377.121Z" fill="#FFB84E"/>
<path d="M714.031 392.452C711.36 394.082 705.842 382.949 704.155 388.439C702.469 393.929 707.459 405.581 709.849 407.691C712.239 409.801 713.616 408.432 716.034 410.161C718.453 411.89 720.06 413.171 723.177 412.338C726.295 411.505 725.861 406.635 729.797 405.125C733.732 403.615 734.274 393.642 731.884 391.532C729.494 389.422 727.621 391.695 725.091 391.455C722.56 391.214 720.776 385.514 718.004 385.504C715.232 385.494 716.701 390.822 714.031 392.452Z" fill="#2D6A6E"/>
<path d="M731.514 560.855C732.288 575.446 701.34 540.174 652.161 519.773C602.982 499.372 571.585 498.45 570.442 455.403C569.552 421.907 619.262 404.596 665.626 438.119C713.813 472.959 730.74 546.263 731.514 560.855Z" fill="#55A370"/>
<path d="M674.169 481.955C690.695 494.985 710.185 525.127 712.811 533.412C715.436 541.697 694.875 507.721 671.125 493.109C647.375 478.496 632.947 475.9 626.734 470.067C620.521 464.234 657.642 468.925 674.169 481.955Z" fill="#2D6A6E"/>
<path d="M1222.61 754.291C1215.15 770.496 1220.52 721.061 1151.47 697.3C1082.43 673.54 1031.65 651.594 1033.34 602.395C1035.02 553.196 1093.86 558.155 1158.14 599.328C1224.94 642.121 1230.07 738.085 1222.61 754.291Z" fill="#55A370"/>
<path d="M1230.66 520.983C1222.93 532.471 1202.37 496.057 1146.3 464.666C1090.22 433.275 1052.43 425.713 1058.15 381.092C1062.6 346.372 1125.53 338.996 1176.04 383.321C1228.53 429.39 1238.39 509.495 1230.66 520.983Z" fill="#55A370"/>
<path d="M1237.55 433.466C1242.72 441.151 1260.01 414.294 1303.57 389.014C1347.14 363.734 1375.79 356.296 1373.87 325.101C1372.37 300.828 1325.72 299.11 1285.64 333.216C1243.97 368.663 1232.38 425.782 1237.55 433.466Z" fill="#55A370"/>
<path d="M1233.8 758.276C1243.6 773.806 1269.03 728.491 1339.04 692.753C1409.06 657.016 1456.39 650.514 1448.77 592.302C1442.84 547.007 1363.83 532.004 1300.93 584.954C1235.55 639.987 1223.99 742.745 1233.8 758.276Z" fill="#55A370"/>
<path d="M1244.03 783.998C1244.03 783.998 1245.52 643.712 1243.49 486.701C1242.06 376.412 1223.36 238.829 1223.36 238.829L1209.74 236.976C1209.74 236.976 1226.41 383.263 1227.35 486.701C1228.29 590.139 1223.29 783.998 1223.29 783.998L1244.03 783.998Z" fill="#55A370"/>
<path d="M1230.87 783.998C1230.87 783.998 1231.35 514.969 1231.45 493.709C1231.56 472.449 1212.24 244.026 1212.24 244.026L1204.46 241.369C1204.46 241.369 1221.41 384.212 1221.41 489.347C1221.41 594.482 1216.78 783.998 1216.78 783.998L1230.87 783.998Z" fill="#2D6A6E"/>
<path d="M1188.2 427.277C1205.72 445.558 1221.87 484.853 1222.76 495.217C1223.65 505.581 1207.27 461.513 1180.85 440.18C1154.42 418.846 1136.46 413.425 1130.16 405.431C1123.86 397.437 1170.69 408.997 1188.2 427.277Z" fill="#2D6A6E"/>
<path d="M1174.99 653.883C1196.69 672.574 1220.12 713.314 1222.66 724.148C1225.2 734.981 1200.8 689.247 1169.02 667.592C1137.24 645.936 1117.02 640.728 1109 632.519C1100.98 624.31 1153.3 635.193 1174.99 653.883Z" fill="#2D6A6E"/>
<path d="M1275.31 368.243C1261.56 381.86 1248.11 411.048 1247.08 418.733C1246.06 426.418 1259.85 393.692 1280.36 377.778C1300.87 361.863 1314.5 357.776 1319.5 351.826C1324.49 345.877 1289.05 354.626 1275.31 368.243Z" fill="#2D6A6E"/>
<path d="M1302.83 645.384C1277.09 666.478 1247.47 710.977 1243.69 722.581C1239.91 734.185 1271.05 684.35 1308.24 659.498C1345.43 634.647 1368.33 627.891 1377.96 618.72C1387.59 609.549 1328.56 624.291 1302.83 645.384Z" fill="#2D6A6E"/>
<path d="M1029.17 84.4056C1017.26 102.709 1038.02 132.237 1046.95 144.44C1055.88 156.642 1145.15 193.25 1195.74 187.149C1246.33 181.047 1344.61 99.6593 1344.61 99.6593C1344.61 99.6593 1356.52 69.1529 1350.57 44.7478C1344.61 20.3426 1320.81 26.4439 1314.85 26.4439C1308.9 26.4439 1305.93 5.08944 1285.1 5.08944C1264.26 5.08944 1267.24 20.3421 1258.31 20.3426C1249.38 20.3432 1231.53 -4.06302 1210.7 2.03896C1189.87 8.14093 1198.79 29.4946 1189.87 29.4946C1180.94 29.4946 1177.96 5.0896 1154.16 5.08944C1130.35 5.08927 1124.4 26.4439 1112.49 29.4946C1100.59 32.5452 1094.64 20.3426 1073.81 29.4946C1052.97 38.6465 1064.88 56.9498 1055.95 66.1017C1047.02 75.2536 1041.07 66.1017 1029.17 84.4056Z" fill="#FFB84E"/>
<path d="M1114.4 63.9347C1111.09 67.4233 1149.34 107.137 1152.52 110.742C1154.37 112.839 1146.03 110.626 1139.6 106.963C1133.17 103.299 1124.92 96.0553 1123.56 96.0309C1120.32 95.9727 1137.9 108.582 1145.96 114.173C1146.64 114.64 1135.69 111.738 1123.37 106.671C1112.64 102.257 1100.62 95.6193 1097.59 95.5651C1091.1 95.4486 1120.06 110.16 1129.74 113.882C1135.84 116.23 1148.27 118.92 1155.58 121.441C1156.25 121.675 1147.21 123.109 1136.1 121.092C1124.06 118.906 1109.85 113.254 1110.26 113.532C1111.06 114.072 1119.87 120.801 1136.04 124.639C1152.2 128.477 1171.14 128.126 1171.14 128.126C1171.14 128.126 1218.14 127.621 1227.82 131.342C1233.93 133.693 1248.35 107.259 1266.51 91.4995C1277.1 82.3128 1284.47 72.6641 1283.12 70.5097C1281.77 68.3552 1278.05 76.8054 1269.89 84.4641C1263.02 90.9018 1254.95 94.84 1253.46 94.8134C1251.92 94.7857 1256.18 90.1257 1260.15 84.2894C1264.5 77.8838 1268.59 70.249 1266.89 70.2185C1265.6 70.1953 1260.39 80.3964 1253.59 87.7197C1243.32 98.7933 1230.49 108.593 1230.49 108.593C1230.49 108.593 1238.96 96.814 1247.16 84.0564C1254.72 72.3025 1258.9 59.4312 1257.35 59.4033C1255.81 59.3757 1251.45 73.2231 1243.92 83.9982C1235.57 95.9394 1227.31 104.988 1227.31 104.988C1227.31 104.988 1240.74 80.3931 1237.49 80.3349C1236.08 80.3097 1237.49 80.3349 1230.81 90.859C1224.12 101.383 1220.88 101.325 1220.88 101.325C1220.88 101.325 1227.27 91.629 1231 80.2184C1235.06 67.7909 1236.41 53.6303 1234.69 55.449C1233.15 57.0684 1231.76 66.3806 1227.82 76.6134C1223.27 88.4255 1216.13 101.239 1214.39 101.208C1212.81 101.18 1217.82 90.626 1218.08 76.4387C1218.33 62.2513 1218.62 51.6125 1215.28 51.5526C1212.07 51.495 1215.86 63.697 1214.83 76.3804C1213.78 89.359 1207.96 99.2987 1204.65 101.034C1201.02 102.931 1202.04 86.764 1201.91 72.6007C1201.81 61.1593 1200.5 51.2876 1199.05 51.2616C1195.8 51.2034 1201.53 93.8817 1195.04 93.7652C1191.62 93.704 1188.93 72.3677 1188.93 72.3677C1188.93 72.3677 1186.06 51.0285 1182.82 50.9703C1179.57 50.912 1188.61 90.1019 1185.36 90.0437C1182.12 89.9855 1169.77 54.2842 1166.52 54.2259C1163.28 54.1677 1178.93 86.3802 1175.69 86.3222C1172.44 86.2641 1157.59 55.387 1153.48 57.5398C1149.36 59.6926 1181.93 100.626 1178.62 104.115C1175.31 107.603 1146.79 68.0639 1143.55 68.0057C1140.3 67.9474 1162.64 89.6359 1159.33 93.1247C1156.02 96.6135 1130.63 64.2259 1124.14 64.1094C1117.64 63.993 1168.75 111.034 1168.75 111.034C1168.75 111.034 1149.08 102.278 1136.67 89.1702C1125.21 77.0579 1115.99 62.2593 1114.4 63.9347Z" fill="white"/>
<path d="M1218.21 231.728C1134.15 245.081 1052.8 177.574 1043.79 148.198C1034.78 118.822 1047.38 106.211 1059.09 108.881C1070.81 111.552 1082.82 122.234 1088.82 122.234C1094.83 122.234 1103.83 111.552 1121.85 111.552C1139.86 111.552 1140.15 124.905 1149.16 122.234C1158.16 119.564 1152.16 106.211 1164.17 103.54C1176.18 100.87 1189.65 124.905 1195.66 122.234C1201.66 119.564 1191.21 91.7594 1206.22 89.0887C1221.23 86.4181 1232.43 111.552 1241.43 108.881C1250.44 106.211 1248.23 76.8346 1260.24 74.164C1272.24 71.4933 1281.25 79.5051 1290.26 79.5051C1299.26 79.505 1302.27 60.8108 1317.28 58.1402C1332.29 55.4697 1353.3 58.1406 1350.3 98.1992C1347.3 138.258 1302.27 218.375 1218.21 231.728Z" fill="#FFB84E"/>
<path d="M1166.25 216.734C1175.16 224.855 1194.89 231.48 1200.18 231.528C1205.47 231.576 1186.11 221.306 1173.07 212.53C1160.03 203.754 1154.59 195.003 1150.66 192.136C1146.72 189.27 1157.35 208.613 1166.25 216.734Z" fill="white"/>
<path d="M1183.26 208.63C1188.49 219.492 1204.3 233.01 1209.18 235.033C1214.07 237.056 1199.95 220.293 1191.13 207.279C1182.31 194.265 1180.52 184.111 1177.94 179.983C1175.36 175.854 1178.02 197.768 1183.26 208.63Z" fill="white"/>
<path d="M1204.09 206.616C1204.48 218.632 1211.14 236.962 1213.8 240.621C1216.47 244.279 1211.85 223.54 1209.69 208.218C1207.53 192.897 1209.21 182.79 1208.67 178.01C1208.14 173.229 1203.69 194.6 1204.09 206.616Z" fill="white"/>
<path d="M1249.06 203.384C1241.55 212.815 1223.14 222.491 1217.93 223.381C1212.72 224.272 1230.2 211.056 1241.69 200.321C1253.17 189.586 1257.17 180.083 1260.6 176.629C1264.03 173.175 1256.58 193.953 1249.06 203.384Z" fill="white"/>
<path d="M1205.15 220.652C1199.96 223.31 1189.59 215.337 1187 223.31C1184.41 231.282 1189.59 239.255 1194.78 241.913C1199.96 244.571 1202.56 242.455 1207.74 244.57C1212.93 246.686 1216.39 248.279 1222.61 246.686C1228.82 245.093 1231.07 233.94 1238.85 231.282C1246.63 228.625 1246.63 217.994 1241.44 215.337C1236.26 212.679 1231.07 217.994 1225.89 217.994C1220.7 217.994 1218.11 210.021 1212.93 212.679C1207.74 215.337 1210.33 217.994 1205.15 220.652Z" fill="#2D6A6E"/>
<path d="M1043.79 148.948C1034.78 119.329 1047.38 106.614 1059.09 109.307C1070.81 111.999 1082.82 122.77 1088.82 122.77C1094.83 122.77 1103.83 111.999 1121.85 111.999C1139.86 111.999 1140.15 125.463 1149.16 122.77C1158.16 120.077 1152.16 106.614 1164.17 103.922C1176.18 101.229 1186.13 125.463 1192.14 122.77C1198.14 120.077 1191.21 95.5935 1206.22 92.9008C1221.23 90.2081 1232.43 114.692 1241.43 111.999C1250.44 109.307 1248.23 76.9952 1260.24 74.3025C1272.24 71.6098 1281.25 79.6878 1290.26 79.6877C1299.26 79.6876 1302.27 60.839 1317.28 58.1464C1332.29 55.4537 1353.3 58.1467 1350.3 98.5363" stroke="white" stroke-width="5" stroke-linecap="round"/>
<path d="M1751.1 647.3L1738.9 684.5C1738.83 684.7 1738.87 684.9 1739 685.1C1739.13 685.233 1739.3 685.3 1739.5 685.3H1763C1763.2 685.3 1763.33 685.233 1763.4 685.1C1763.53 684.9 1763.6 684.7 1763.6 684.5L1751.4 647.3C1751.4 647.233 1751.37 647.2 1751.3 647.2C1751.17 647.2 1751.1 647.233 1751.1 647.3ZM1725.4 713C1724.4 713 1723.6 712.6 1723 711.8C1722.4 710.933 1722.27 710.033 1722.6 709.1L1745.4 644.2C1745.87 642.933 1746.63 641.933 1747.7 641.2C1748.83 640.4 1750.07 640 1751.4 640C1752.73 640 1753.93 640.4 1755 641.2C1756.13 641.933 1756.93 642.933 1757.4 644.2L1780.1 709C1780.43 710 1780.3 710.933 1779.7 711.8C1779.1 712.6 1778.3 713 1777.3 713C1775.97 713 1774.77 712.633 1773.7 711.9C1772.7 711.1 1772 710.1 1771.6 708.9L1766.3 692.5C1766.1 691.967 1765.7 691.7 1765.1 691.7H1737.4C1736.87 691.7 1736.5 691.967 1736.3 692.5L1730.8 709.1C1730.4 710.3 1729.7 711.267 1728.7 712C1727.77 712.667 1726.67 713 1725.4 713ZM1801.17 711.8C1800.43 712.6 1799.5 713 1798.37 713C1797.23 713 1796.27 712.6 1795.47 711.8C1794.73 711 1794.37 710.067 1794.37 709V642C1794.37 640.933 1794.73 640 1795.47 639.2C1796.27 638.4 1797.23 638 1798.37 638C1799.5 638 1800.43 638.4 1801.17 639.2C1801.97 640 1802.37 640.933 1802.37 642V709C1802.37 710.067 1801.97 711 1801.17 711.8ZM1840.82 665.8C1831.56 665.8 1826.49 671.3 1825.62 682.3C1825.62 682.833 1825.92 683.1 1826.52 683.1H1853.42C1853.96 683.1 1854.22 682.833 1854.22 682.3C1853.82 671.3 1849.36 665.8 1840.82 665.8ZM1842.92 714C1834.72 714 1828.49 711.767 1824.22 707.3C1819.96 702.767 1817.82 696 1817.82 687C1817.82 677.733 1819.86 670.933 1823.92 666.6C1828.06 662.2 1833.69 660 1840.82 660C1853.96 660 1860.92 667.767 1861.72 683.3C1861.79 684.9 1861.22 686.267 1860.02 687.4C1858.89 688.467 1857.52 689 1855.92 689H1826.32C1825.79 689 1825.52 689.3 1825.52 689.9C1826.12 702.1 1832.16 708.2 1843.62 708.2C1847.42 708.2 1851.32 707.5 1855.32 706.1C1856.06 705.833 1856.76 705.933 1857.42 706.4C1858.09 706.8 1858.42 707.4 1858.42 708.2C1858.42 710.467 1857.39 711.867 1855.32 712.4C1851.06 713.467 1846.92 714 1842.92 714ZM1871.53 713C1870.66 713 1869.99 712.6 1869.53 711.8C1869.13 711 1869.19 710.233 1869.73 709.5L1884.63 687.3C1885.03 686.833 1885.03 686.333 1884.63 685.8L1870.23 664.6C1869.69 663.867 1869.63 663.1 1870.03 662.3C1870.49 661.433 1871.19 661 1872.13 661C1875.13 661 1877.36 662.2 1878.83 664.6L1889.53 681.6C1889.53 681.667 1889.56 681.7 1889.63 681.7C1889.76 681.7 1889.83 681.667 1889.83 681.6L1900.63 664.5C1902.09 662.167 1904.23 661 1907.03 661C1907.89 661 1908.53 661.4 1908.93 662.2C1909.39 663 1909.36 663.767 1908.83 664.5L1894.43 685.8C1894.03 686.333 1894.03 686.833 1894.43 687.3L1909.33 709.4C1909.79 710.133 1909.79 710.933 1909.33 711.8C1908.93 712.6 1908.29 713 1907.43 713C1904.43 713 1902.19 711.8 1900.73 709.4L1889.53 691.5H1889.43H1889.23L1877.93 709.5C1876.46 711.833 1874.33 713 1871.53 713ZM1948.67 712.1C1947.6 711.767 1946.74 711.167 1946.07 710.3C1945.4 709.433 1945.07 708.433 1945.07 707.3C1945.07 706.433 1945.44 705.733 1946.17 705.2C1946.9 704.667 1947.7 704.567 1948.57 704.9C1953.17 706.5 1957.9 707.3 1962.77 707.3C1968.04 707.3 1971.9 705.733 1974.37 702.6C1976.84 699.467 1978.07 694.267 1978.07 687V644.2C1978.07 643.067 1978.47 642.1 1979.27 641.3C1980.14 640.433 1981.14 640 1982.27 640C1983.4 640 1984.37 640.433 1985.17 641.3C1986.04 642.1 1986.47 643.067 1986.47 644.2V689C1986.47 697.667 1984.54 704 1980.67 708C1976.8 712 1970.84 714 1962.77 714C1958.04 714 1953.34 713.367 1948.67 712.1ZM2012.3 711.8C2011.57 712.6 2010.63 713 2009.5 713C2008.37 713 2007.4 712.6 2006.6 711.8C2005.87 711 2005.5 710.067 2005.5 709V665C2005.5 663.933 2005.87 663 2006.6 662.2C2007.4 661.4 2008.37 661 2009.5 661C2010.63 661 2011.57 661.4 2012.3 662.2C2013.1 663 2013.5 663.933 2013.5 665V709C2013.5 710.067 2013.1 711 2012.3 711.8ZM2012.3 647.6C2011.57 648.333 2010.63 648.7 2009.5 648.7C2008.37 648.7 2007.4 648.333 2006.6 647.6C2005.87 646.8 2005.5 645.833 2005.5 644.7V642C2005.5 640.933 2005.87 640 2006.6 639.2C2007.4 638.4 2008.37 638 2009.5 638C2010.63 638 2011.57 638.4 2012.3 639.2C2013.1 640 2013.5 640.933 2013.5 642V644.7C2013.5 645.833 2013.1 646.8 2012.3 647.6ZM2057.66 685.5C2051.06 685.5 2046.06 686.567 2042.66 688.7C2039.32 690.833 2037.66 693.833 2037.66 697.7C2037.66 700.7 2038.49 703.133 2040.16 705C2041.89 706.8 2044.16 707.7 2046.96 707.7C2051.76 707.7 2055.72 706.1 2058.86 702.9C2062.06 699.7 2063.66 695.467 2063.66 690.2V686.4C2063.66 685.8 2063.36 685.5 2062.76 685.5H2057.66ZM2045.36 714C2040.82 714 2037.12 712.567 2034.26 709.7C2031.39 706.833 2029.96 703.033 2029.96 698.3C2029.96 692.767 2032.16 688.333 2036.56 685C2040.96 681.667 2047.99 680 2057.66 680H2062.76C2063.36 680 2063.66 679.733 2063.66 679.2V677.3C2063.66 673.233 2062.72 670.4 2060.86 668.8C2058.99 667.133 2055.69 666.3 2050.96 666.3C2046.36 666.3 2041.39 667.167 2036.06 668.9C2035.26 669.167 2034.52 669.067 2033.86 668.6C2033.19 668.133 2032.86 667.467 2032.86 666.6C2032.86 664.267 2033.96 662.767 2036.16 662.1C2041.09 660.7 2046.02 660 2050.96 660C2058.62 660 2063.92 661.4 2066.86 664.2C2069.86 667 2071.36 672.033 2071.36 679.3V709.4C2071.36 710.4 2070.99 711.267 2070.26 712C2069.59 712.667 2068.76 713 2067.76 713C2066.76 713 2065.89 712.667 2065.16 712C2064.42 711.267 2064.06 710.4 2064.06 709.4L2063.96 704.2C2063.96 704.133 2063.92 704.1 2063.86 704.1C2063.72 704.1 2063.66 704.167 2063.66 704.3C2059.72 710.767 2053.62 714 2045.36 714ZM2092.38 711.9C2091.64 712.633 2090.74 713 2089.68 713C2088.61 713 2087.71 712.633 2086.98 711.9C2086.24 711.167 2085.88 710.267 2085.88 709.2V664.6C2085.88 663.6 2086.21 662.767 2086.88 662.1C2087.61 661.367 2088.48 661 2089.48 661C2090.48 661 2091.34 661.367 2092.08 662.1C2092.81 662.767 2093.18 663.6 2093.18 664.6V668.7C2093.18 668.767 2093.21 668.8 2093.28 668.8C2093.34 668.8 2093.41 668.767 2093.48 668.7C2098.28 662.9 2103.98 660 2110.58 660C2116.64 660 2121.04 661.7 2123.78 665.1C2126.51 668.5 2127.88 674.133 2127.88 682V709.2C2127.88 710.267 2127.51 711.167 2126.78 711.9C2126.11 712.633 2125.24 713 2124.18 713C2123.11 713 2122.21 712.633 2121.48 711.9C2120.74 711.167 2120.38 710.267 2120.38 709.2V683C2120.38 676.4 2119.48 671.933 2117.68 669.6C2115.88 667.2 2112.84 666 2108.58 666C2105.11 666 2101.74 667.633 2098.48 670.9C2095.21 674.1 2093.58 677.4 2093.58 680.8V709.2C2093.58 710.267 2093.18 711.167 2092.38 711.9ZM2161.62 666C2151.95 666 2147.12 672.767 2147.12 686.3C2147.12 693.033 2148.38 698.167 2150.92 701.7C2153.52 705.233 2157.08 707 2161.62 707C2165.48 707 2168.85 705.567 2171.72 702.7C2174.65 699.833 2176.12 696.4 2176.12 692.4V680.8C2176.12 676.8 2174.65 673.333 2171.72 670.4C2168.85 667.467 2165.48 666 2161.62 666ZM2159.62 713C2153.55 713 2148.65 710.667 2144.92 706C2141.25 701.267 2139.42 694.7 2139.42 686.3C2139.42 677.433 2141.25 670.833 2144.92 666.5C2148.65 662.167 2153.55 660 2159.62 660C2166.35 660 2171.85 662.767 2176.12 668.3C2176.18 668.367 2176.25 668.4 2176.32 668.4C2176.38 668.4 2176.42 668.367 2176.42 668.3L2176.52 664.6C2176.52 663.6 2176.85 662.767 2177.52 662.1C2178.25 661.367 2179.12 661 2180.12 661C2181.12 661 2181.95 661.367 2182.62 662.1C2183.35 662.767 2183.72 663.6 2183.72 664.6V710C2183.72 719 2181.78 725.567 2177.92 729.7C2174.05 733.9 2167.98 736 2159.72 736C2155.58 736 2151.78 735.567 2148.32 734.7C2146.18 734.167 2145.12 732.767 2145.12 730.5C2145.12 729.7 2145.42 729.033 2146.02 728.5C2146.68 728.033 2147.38 727.933 2148.12 728.2C2151.85 729.4 2155.72 730 2159.72 730C2165.52 730 2169.68 728.467 2172.22 725.4C2174.82 722.333 2176.12 717.3 2176.12 710.3V705.4C2176.12 705.333 2176.08 705.3 2176.02 705.3C2175.95 705.3 2175.88 705.333 2175.82 705.4C2171.75 710.467 2166.35 713 2159.62 713ZM2200.37 724C2199.5 724 2198.77 723.633 2198.17 722.9C2197.63 722.167 2197.5 721.367 2197.77 720.5L2202.57 704.1C2202.97 702.7 2203.77 701.567 2204.97 700.7C2206.23 699.767 2207.6 699.3 2209.07 699.3C2210.27 699.3 2211.2 699.8 2211.87 700.8C2212.53 701.8 2212.63 702.867 2212.17 704L2205.47 720.6C2205.07 721.667 2204.4 722.5 2203.47 723.1C2202.53 723.7 2201.5 724 2200.37 724ZM2253.65 712.1C2252.58 711.767 2251.72 711.167 2251.05 710.3C2250.38 709.433 2250.05 708.433 2250.05 707.3C2250.05 706.433 2250.42 705.733 2251.15 705.2C2251.88 704.667 2252.68 704.567 2253.55 704.9C2258.15 706.5 2262.88 707.3 2267.75 707.3C2273.02 707.3 2276.88 705.733 2279.35 702.6C2281.82 699.467 2283.05 694.267 2283.05 687V644.2C2283.05 643.067 2283.45 642.1 2284.25 641.3C2285.12 640.433 2286.12 640 2287.25 640C2288.38 640 2289.35 640.433 2290.15 641.3C2291.02 642.1 2291.45 643.067 2291.45 644.2V689C2291.45 697.667 2289.52 704 2285.65 708C2281.78 712 2275.82 714 2267.75 714C2263.02 714 2258.32 713.367 2253.65 712.1ZM2322.78 714C2316.98 714 2312.71 712.4 2309.98 709.2C2307.31 706 2305.98 700.7 2305.98 693.3V664.8C2305.98 663.733 2306.31 662.833 2306.98 662.1C2307.71 661.367 2308.61 661 2309.68 661C2310.75 661 2311.65 661.367 2312.38 662.1C2313.11 662.833 2313.48 663.733 2313.48 664.8V692.3C2313.48 698.3 2314.38 702.433 2316.18 704.7C2317.98 706.9 2320.85 708 2324.78 708C2328.38 708 2331.78 706.467 2334.98 703.4C2338.18 700.267 2339.78 696.867 2339.78 693.2V664.8C2339.78 663.733 2340.15 662.833 2340.88 662.1C2341.68 661.367 2342.61 661 2343.68 661C2344.75 661 2345.65 661.367 2346.38 662.1C2347.11 662.833 2347.48 663.733 2347.48 664.8V709.4C2347.48 710.4 2347.11 711.267 2346.38 712C2345.71 712.667 2344.88 713 2343.88 713C2342.88 713 2342.01 712.667 2341.28 712C2340.55 711.267 2340.18 710.4 2340.18 709.4V705.3C2340.18 705.233 2340.15 705.2 2340.08 705.2C2340.01 705.2 2339.95 705.233 2339.88 705.3C2335.28 711.1 2329.58 714 2322.78 714ZM2373.24 711.8C2372.5 712.6 2371.57 713 2370.44 713C2369.3 713 2368.34 712.6 2367.54 711.8C2366.8 711 2366.44 710.067 2366.44 709V642C2366.44 640.933 2366.8 640 2367.54 639.2C2368.34 638.4 2369.3 638 2370.44 638C2371.57 638 2372.5 638.4 2373.24 639.2C2374.04 640 2374.44 640.933 2374.44 642V709C2374.44 710.067 2374.04 711 2373.24 711.8ZM2402.24 711.8C2401.51 712.6 2400.57 713 2399.44 713C2398.31 713 2397.34 712.6 2396.54 711.8C2395.81 711 2395.44 710.067 2395.44 709V665C2395.44 663.933 2395.81 663 2396.54 662.2C2397.34 661.4 2398.31 661 2399.44 661C2400.57 661 2401.51 661.4 2402.24 662.2C2403.04 663 2403.44 663.933 2403.44 665V709C2403.44 710.067 2403.04 711 2402.24 711.8ZM2402.24 647.6C2401.51 648.333 2400.57 648.7 2399.44 648.7C2398.31 648.7 2397.34 648.333 2396.54 647.6C2395.81 646.8 2395.44 645.833 2395.44 644.7V642C2395.44 640.933 2395.81 640 2396.54 639.2C2397.34 638.4 2398.31 638 2399.44 638C2400.57 638 2401.51 638.4 2402.24 639.2C2403.04 640 2403.44 640.933 2403.44 642V644.7C2403.44 645.833 2403.04 646.8 2402.24 647.6ZM2447.6 685.5C2441 685.5 2436 686.567 2432.6 688.7C2429.27 690.833 2427.6 693.833 2427.6 697.7C2427.6 700.7 2428.43 703.133 2430.1 705C2431.83 706.8 2434.1 707.7 2436.9 707.7C2441.7 707.7 2445.67 706.1 2448.8 702.9C2452 699.7 2453.6 695.467 2453.6 690.2V686.4C2453.6 685.8 2453.3 685.5 2452.7 685.5H2447.6ZM2435.3 714C2430.77 714 2427.07 712.567 2424.2 709.7C2421.33 706.833 2419.9 703.033 2419.9 698.3C2419.9 692.767 2422.1 688.333 2426.5 685C2430.9 681.667 2437.93 680 2447.6 680H2452.7C2453.3 680 2453.6 679.733 2453.6 679.2V677.3C2453.6 673.233 2452.67 670.4 2450.8 668.8C2448.93 667.133 2445.63 666.3 2440.9 666.3C2436.3 666.3 2431.33 667.167 2426 668.9C2425.2 669.167 2424.47 669.067 2423.8 668.6C2423.13 668.133 2422.8 667.467 2422.8 666.6C2422.8 664.267 2423.9 662.767 2426.1 662.1C2431.03 660.7 2435.97 660 2440.9 660C2448.57 660 2453.87 661.4 2456.8 664.2C2459.8 667 2461.3 672.033 2461.3 679.3V709.4C2461.3 710.4 2460.93 711.267 2460.2 712C2459.53 712.667 2458.7 713 2457.7 713C2456.7 713 2455.83 712.667 2455.1 712C2454.37 711.267 2454 710.4 2454 709.4L2453.9 704.2C2453.9 704.133 2453.87 704.1 2453.8 704.1C2453.67 704.1 2453.6 704.167 2453.6 704.3C2449.67 710.767 2443.57 714 2435.3 714ZM2482.32 711.9C2481.58 712.633 2480.68 713 2479.62 713C2478.55 713 2477.65 712.633 2476.92 711.9C2476.18 711.167 2475.82 710.267 2475.82 709.2V664.6C2475.82 663.6 2476.15 662.767 2476.82 662.1C2477.55 661.367 2478.42 661 2479.42 661C2480.42 661 2481.28 661.367 2482.02 662.1C2482.75 662.767 2483.12 663.6 2483.12 664.6V668.7C2483.12 668.767 2483.15 668.8 2483.22 668.8C2483.28 668.8 2483.35 668.767 2483.42 668.7C2488.22 662.9 2493.92 660 2500.52 660C2506.58 660 2510.98 661.7 2513.72 665.1C2516.45 668.5 2517.82 674.133 2517.82 682V709.2C2517.82 710.267 2517.45 711.167 2516.72 711.9C2516.05 712.633 2515.18 713 2514.12 713C2513.05 713 2512.15 712.633 2511.42 711.9C2510.68 711.167 2510.32 710.267 2510.32 709.2V683C2510.32 676.4 2509.42 671.933 2507.62 669.6C2505.82 667.2 2502.78 666 2498.52 666C2495.05 666 2491.68 667.633 2488.42 670.9C2485.15 674.1 2483.52 677.4 2483.52 680.8V709.2C2483.52 710.267 2483.12 711.167 2482.32 711.9ZM2566.01 713C2564.48 713 2563.15 712.433 2562.01 711.3C2560.88 710.167 2560.31 708.833 2560.31 707.3V644.2C2560.31 643.067 2560.71 642.1 2561.51 641.3C2562.38 640.433 2563.38 640 2564.51 640C2565.65 640 2566.61 640.433 2567.41 641.3C2568.28 642.1 2568.71 643.067 2568.71 644.2V705.3C2568.71 705.9 2568.98 706.2 2569.51 706.2H2600.61C2601.55 706.2 2602.35 706.533 2603.01 707.2C2603.68 707.867 2604.01 708.667 2604.01 709.6C2604.01 710.533 2603.68 711.333 2603.01 712C2602.35 712.667 2601.55 713 2600.61 713H2566.01ZM2632.84 714C2627.04 714 2622.77 712.4 2620.04 709.2C2617.37 706 2616.04 700.7 2616.04 693.3V664.8C2616.04 663.733 2616.37 662.833 2617.04 662.1C2617.77 661.367 2618.67 661 2619.74 661C2620.81 661 2621.71 661.367 2622.44 662.1C2623.17 662.833 2623.54 663.733 2623.54 664.8V692.3C2623.54 698.3 2624.44 702.433 2626.24 704.7C2628.04 706.9 2630.91 708 2634.84 708C2638.44 708 2641.84 706.467 2645.04 703.4C2648.24 700.267 2649.84 696.867 2649.84 693.2V664.8C2649.84 663.733 2650.21 662.833 2650.94 662.1C2651.74 661.367 2652.67 661 2653.74 661C2654.81 661 2655.71 661.367 2656.44 662.1C2657.17 662.833 2657.54 663.733 2657.54 664.8V709.4C2657.54 710.4 2657.17 711.267 2656.44 712C2655.77 712.667 2654.94 713 2653.94 713C2652.94 713 2652.07 712.667 2651.34 712C2650.61 711.267 2650.24 710.4 2650.24 709.4V705.3C2650.24 705.233 2650.21 705.2 2650.14 705.2C2650.07 705.2 2650.01 705.233 2649.94 705.3C2645.34 711.1 2639.64 714 2632.84 714ZM2674.1 724C2673.23 724 2672.5 723.633 2671.9 722.9C2671.36 722.167 2671.23 721.367 2671.5 720.5L2676.3 704.1C2676.7 702.7 2677.5 701.567 2678.7 700.7C2679.96 699.767 2681.33 699.3 2682.8 699.3C2684 699.3 2684.93 699.8 2685.6 700.8C2686.26 701.8 2686.36 702.867 2685.9 704L2679.2 720.6C2678.8 721.667 2678.13 722.5 2677.2 723.1C2676.26 723.7 2675.23 724 2674.1 724ZM2736.28 647.3V673.9C2736.28 674.5 2736.58 674.8 2737.18 674.8H2744.28C2752.21 674.8 2758.05 673.533 2761.78 671C2765.51 668.4 2767.38 664.567 2767.38 659.5C2767.38 650.167 2760.35 645.5 2746.28 645.5C2743.28 645.5 2740.25 645.767 2737.18 646.3C2736.58 646.433 2736.28 646.767 2736.28 647.3ZM2735.08 711.8C2734.35 712.6 2733.41 713 2732.28 713C2731.15 713 2730.18 712.6 2729.38 711.8C2728.65 711 2728.28 710.067 2728.28 709V646.2C2728.28 644.533 2728.81 643.1 2729.88 641.9C2730.95 640.633 2732.28 639.9 2733.88 639.7C2737.81 639.233 2742.18 639 2746.98 639C2756.31 639 2763.35 640.733 2768.08 644.2C2772.88 647.6 2775.28 652.467 2775.28 658.8C2775.28 663.867 2773.91 668.1 2771.18 671.5C2768.51 674.833 2764.68 677.133 2759.68 678.4C2759.61 678.4 2759.58 678.467 2759.58 678.6C2759.58 678.667 2759.61 678.7 2759.68 678.7C2762.55 680.367 2765.48 684.7 2768.48 691.7L2775.68 709.2C2776.08 710.067 2775.98 710.933 2775.38 711.8C2774.85 712.6 2774.08 713 2773.08 713C2771.81 713 2770.65 712.633 2769.58 711.9C2768.58 711.167 2767.85 710.233 2767.38 709.1L2760.38 691.9C2758.38 687.1 2756.48 684.133 2754.68 683C2752.95 681.8 2749.48 681.2 2744.28 681.2H2737.18C2736.58 681.2 2736.28 681.467 2736.28 682V709C2736.28 710.067 2735.88 711 2735.08 711.8ZM2798.73 711.8C2797.99 712.6 2797.06 713 2795.93 713C2794.79 713 2793.83 712.6 2793.03 711.8C2792.29 711 2791.93 710.067 2791.93 709V665C2791.93 663.933 2792.29 663 2793.03 662.2C2793.83 661.4 2794.79 661 2795.93 661C2797.06 661 2797.99 661.4 2798.73 662.2C2799.53 663 2799.93 663.933 2799.93 665V709C2799.93 710.067 2799.53 711 2798.73 711.8ZM2798.73 647.6C2797.99 648.333 2797.06 648.7 2795.93 648.7C2794.79 648.7 2793.83 648.333 2793.03 647.6C2792.29 646.8 2791.93 645.833 2791.93 644.7V642C2791.93 640.933 2792.29 640 2793.03 639.2C2793.83 638.4 2794.79 638 2795.93 638C2797.06 638 2797.99 638.4 2798.73 639.2C2799.53 640 2799.93 640.933 2799.93 642V644.7C2799.93 645.833 2799.53 646.8 2798.73 647.6ZM2832.98 711.8L2815.48 664.8C2815.15 663.867 2815.25 663 2815.78 662.2C2816.38 661.4 2817.18 661 2818.18 661C2819.38 661 2820.45 661.367 2821.38 662.1C2822.38 662.767 2823.08 663.667 2823.48 664.8L2837.18 703.7C2837.18 703.767 2837.22 703.8 2837.28 703.8C2837.42 703.8 2837.48 703.767 2837.48 703.7L2852.58 664.6C2852.98 663.533 2853.65 662.667 2854.58 662C2855.58 661.333 2856.68 661 2857.88 661C2858.82 661 2859.52 661.4 2859.98 662.2C2860.52 662.933 2860.62 663.733 2860.28 664.6L2832.78 731.4C2832.32 732.467 2831.58 733.333 2830.58 734C2829.65 734.667 2828.58 735 2827.38 735C2826.45 735 2825.75 734.6 2825.28 733.8C2824.82 733.067 2824.75 732.267 2825.08 731.4L2832.98 713.4C2833.18 712.867 2833.18 712.333 2832.98 711.8ZM2894.38 685.5C2887.78 685.5 2882.78 686.567 2879.38 688.7C2876.04 690.833 2874.38 693.833 2874.38 697.7C2874.38 700.7 2875.21 703.133 2876.88 705C2878.61 706.8 2880.88 707.7 2883.68 707.7C2888.48 707.7 2892.44 706.1 2895.58 702.9C2898.78 699.7 2900.38 695.467 2900.38 690.2V686.4C2900.38 685.8 2900.08 685.5 2899.48 685.5H2894.38ZM2882.08 714C2877.54 714 2873.84 712.567 2870.98 709.7C2868.11 706.833 2866.68 703.033 2866.68 698.3C2866.68 692.767 2868.88 688.333 2873.28 685C2877.68 681.667 2884.71 680 2894.38 680H2899.48C2900.08 680 2900.38 679.733 2900.38 679.2V677.3C2900.38 673.233 2899.44 670.4 2897.58 668.8C2895.71 667.133 2892.41 666.3 2887.68 666.3C2883.08 666.3 2878.11 667.167 2872.78 668.9C2871.98 669.167 2871.24 669.067 2870.58 668.6C2869.91 668.133 2869.58 667.467 2869.58 666.6C2869.58 664.267 2870.68 662.767 2872.88 662.1C2877.81 660.7 2882.74 660 2887.68 660C2895.34 660 2900.64 661.4 2903.58 664.2C2906.58 667 2908.08 672.033 2908.08 679.3V709.4C2908.08 710.4 2907.71 711.267 2906.98 712C2906.31 712.667 2905.48 713 2904.48 713C2903.48 713 2902.61 712.667 2901.88 712C2901.14 711.267 2900.78 710.4 2900.78 709.4L2900.68 704.2C2900.68 704.133 2900.64 704.1 2900.58 704.1C2900.44 704.1 2900.38 704.167 2900.38 704.3C2896.44 710.767 2890.34 714 2882.08 714ZM2957.05 711.9C2956.31 712.633 2955.41 713 2954.35 713C2953.28 713 2952.38 712.633 2951.65 711.9C2950.91 711.1 2950.55 710.167 2950.55 709.1V644.1C2950.55 642.967 2950.91 642 2951.65 641.2C2952.45 640.4 2953.41 640 2954.55 640C2957.28 640 2959.31 641.2 2960.65 643.6L2982.55 683.9C2982.55 683.967 2982.61 684 2982.75 684C2982.81 684 2982.85 683.967 2982.85 683.9L3004.75 643.7C3006.01 641.233 3008.08 640 3010.95 640C3012.08 640 3013.05 640.433 3013.85 641.3C3014.71 642.1 3015.15 643.067 3015.15 644.2V709C3015.15 710.067 3014.75 711 3013.95 711.8C3013.21 712.6 3012.28 713 3011.15 713C3010.01 713 3009.05 712.6 3008.25 711.8C3007.51 711 3007.15 710.067 3007.15 709V653.5C3007.15 653.433 3007.11 653.4 3007.05 653.4C3006.98 653.4 3006.95 653.433 3006.95 653.5L2988.25 688C2987.05 690.2 2985.21 691.3 2982.75 691.3C2980.28 691.3 2978.45 690.2 2977.25 688L2958.45 653.5C2958.45 653.433 2958.41 653.4 2958.35 653.4C2958.28 653.4 2958.25 653.433 2958.25 653.5V709.1C2958.25 710.167 2957.85 711.1 2957.05 711.9ZM3041.99 711.8C3041.25 712.6 3040.32 713 3039.19 713C3038.05 713 3037.09 712.6 3036.29 711.8C3035.55 711 3035.19 710.067 3035.19 709V665C3035.19 663.933 3035.55 663 3036.29 662.2C3037.09 661.4 3038.05 661 3039.19 661C3040.32 661 3041.25 661.4 3041.99 662.2C3042.79 663 3043.19 663.933 3043.19 665V709C3043.19 710.067 3042.79 711 3041.99 711.8ZM3041.99 647.6C3041.25 648.333 3040.32 648.7 3039.19 648.7C3038.05 648.7 3037.09 648.333 3036.29 647.6C3035.55 646.8 3035.19 645.833 3035.19 644.7V642C3035.19 640.933 3035.55 640 3036.29 639.2C3037.09 638.4 3038.05 638 3039.19 638C3040.32 638 3041.25 638.4 3041.99 639.2C3042.79 640 3043.19 640.933 3043.19 642V644.7C3043.19 645.833 3042.79 646.8 3041.99 647.6ZM3062.64 669C3061.78 669 3061.04 668.733 3060.44 668.2C3059.91 667.6 3059.64 666.867 3059.64 666C3059.64 665.133 3059.91 664.433 3060.44 663.9C3061.04 663.3 3061.78 663 3062.64 663H3069.94C3070.54 663 3070.84 662.7 3070.84 662.1V647.8C3070.84 646.733 3071.21 645.833 3071.94 645.1C3072.68 644.367 3073.58 644 3074.64 644C3075.71 644 3076.61 644.367 3077.34 645.1C3078.08 645.833 3078.44 646.733 3078.44 647.8V662.1C3078.44 662.7 3078.74 663 3079.34 663H3094.34C3095.21 663 3095.91 663.3 3096.44 663.9C3097.04 664.433 3097.34 665.133 3097.34 666C3097.34 666.867 3097.04 667.6 3096.44 668.2C3095.91 668.733 3095.21 669 3094.34 669H3079.34C3078.74 669 3078.44 669.3 3078.44 669.9V696.3C3078.44 701.1 3079.08 704.267 3080.34 705.8C3081.61 707.267 3084.04 708 3087.64 708C3089.78 708 3091.54 707.833 3092.94 707.5C3093.68 707.367 3094.34 707.533 3094.94 708C3095.61 708.4 3095.94 708.967 3095.94 709.7C3095.94 710.633 3095.64 711.467 3095.04 712.2C3094.51 712.933 3093.81 713.367 3092.94 713.5C3091.21 713.833 3089.01 714 3086.34 714C3080.48 714 3076.41 712.8 3074.14 710.4C3071.94 707.933 3070.84 703.467 3070.84 697V669.9C3070.84 669.3 3070.54 669 3069.94 669H3062.64ZM3119.14 711.8C3118.41 712.6 3117.47 713 3116.34 713C3115.21 713 3114.24 712.6 3113.44 711.8C3112.71 711 3112.34 710.067 3112.34 709V664.8C3112.34 663.733 3112.71 662.833 3113.44 662.1C3114.17 661.367 3115.07 661 3116.14 661C3117.21 661 3118.11 661.367 3118.84 662.1C3119.57 662.833 3119.94 663.733 3119.94 664.8V672.5C3119.94 672.567 3119.97 672.6 3120.04 672.6C3120.17 672.6 3120.24 672.533 3120.24 672.4C3122.24 669.067 3125.04 666.4 3128.64 664.4C3132.31 662.333 3136.41 661.2 3140.94 661C3141.87 660.933 3142.67 661.233 3143.34 661.9C3144.01 662.567 3144.34 663.367 3144.34 664.3C3144.34 665.167 3144.01 665.933 3143.34 666.6C3142.74 667.267 3141.97 667.633 3141.04 667.7C3134.44 667.967 3129.34 669.9 3125.74 673.5C3122.14 677.033 3120.34 682 3120.34 688.4V709C3120.34 710.067 3119.94 711 3119.14 711.8ZM3179.53 685.5C3172.93 685.5 3167.93 686.567 3164.53 688.7C3161.2 690.833 3159.53 693.833 3159.53 697.7C3159.53 700.7 3160.37 703.133 3162.03 705C3163.77 706.8 3166.03 707.7 3168.83 707.7C3173.63 707.7 3177.6 706.1 3180.73 702.9C3183.93 699.7 3185.53 695.467 3185.53 690.2V686.4C3185.53 685.8 3185.23 685.5 3184.63 685.5H3179.53ZM3167.23 714C3162.7 714 3159 712.567 3156.13 709.7C3153.27 706.833 3151.83 703.033 3151.83 698.3C3151.83 692.767 3154.03 688.333 3158.43 685C3162.83 681.667 3169.87 680 3179.53 680H3184.63C3185.23 680 3185.53 679.733 3185.53 679.2V677.3C3185.53 673.233 3184.6 670.4 3182.73 668.8C3180.87 667.133 3177.57 666.3 3172.83 666.3C3168.23 666.3 3163.27 667.167 3157.93 668.9C3157.13 669.167 3156.4 669.067 3155.73 668.6C3155.07 668.133 3154.73 667.467 3154.73 666.6C3154.73 664.267 3155.83 662.767 3158.03 662.1C3162.97 660.7 3167.9 660 3172.83 660C3180.5 660 3185.8 661.4 3188.73 664.2C3191.73 667 3193.23 672.033 3193.23 679.3V709.4C3193.23 710.4 3192.87 711.267 3192.13 712C3191.47 712.667 3190.63 713 3189.63 713C3188.63 713 3187.77 712.667 3187.03 712C3186.3 711.267 3185.93 710.4 3185.93 709.4L3185.83 704.2C3185.83 704.133 3185.8 704.1 3185.73 704.1C3185.6 704.1 3185.53 704.167 3185.53 704.3C3181.6 710.767 3175.5 714 3167.23 714Z" fill="#2D6A6E"/>
</svg>
