<svg width="1927" height="576" viewBox="0 0 1927 576" fill="none" xmlns="http://www.w3.org/2000/svg">
<g clip-path="url(#clip0_586_246)">
<path d="M0.000244141 575.781V292.275C0.000244141 292.275 1644.08 16.8693 1741.59 1.29732C1839.09 -14.2747 1923.01 115.269 1923.01 115.269L1926.64 575.781H0.000244141Z" fill="#2D6A6E"/>
<mask id="mask0_586_246" style="mask-type:luminance" maskUnits="userSpaceOnUse" x="0" y="-1" width="1927" height="577">
<path d="M0.000244141 575.781V292.275C0.000244141 292.275 1644.08 16.8693 1741.59 1.29732C1839.09 -14.2747 1923.01 115.269 1923.01 115.269L1926.64 575.781H0.000244141Z" fill="white"/>
</mask>
<g mask="url(#mask0_586_246)">
<path d="M-58.9241 301.513L-37.4295 308.235C-16.0113 314.564 26.5407 328.705 70.5568 341.542C113.055 354.674 156.022 368.734 192.553 350.427C229.915 331.959 261.08 283.115 302.706 291.018C344.997 299.402 398.576 364.373 439.305 367.662C480.172 370.924 508.36 310.434 547.416 297.748C584.816 285.385 631.736 319.051 670.423 311.836C709.686 303.899 740.992 255.027 782.618 262.93C824.634 271.368 877.107 336.553 923.281 360.483C967.822 384.118 1004.68 366.766 1040.2 343.257C1076.67 320.175 1111.65 290.963 1143.22 247.134C1175.2 203.224 1204.49 142.52 1243.18 135.306C1281.75 127.502 1330.69 173.001 1369.26 165.198C1408.91 157.796 1437.65 97.1984 1477.37 95.285C1517.56 92.8715 1569.23 148.026 1613.97 171.929C1658.84 195.805 1697.33 188.323 1737.34 180.546C1775.7 173.091 1814.6 165.528 1851.19 147.516C1888.55 129.762 1923.67 100.523 1941.02 86.658L1958.29 72.4001L1927.76 -84.6603L-58.9241 301.513Z" fill="url(#paint0_linear_586_246)"/>
</g>
</g>
<defs>
<linearGradient id="paint0_linear_586_246" x1="924.927" y1="-407.106" x2="1071.12" y2="353.052" gradientUnits="userSpaceOnUse">
<stop stop-color="#65999D"/>
<stop offset="1" stop-color="#2D6A6E"/>
</linearGradient>
<clipPath id="clip0_586_246">
<rect width="1926.64" height="575.781" fill="white"/>
</clipPath>
</defs>
</svg>
