<svg width="1819" height="1360" viewBox="0 0 1819 1360" fill="none" xmlns="http://www.w3.org/2000/svg">
<path d="M1363.89 316.905C1517.34 623.29 1349.13 1018.21 988.181 1198.98C627.235 1379.76 210.237 1277.93 56.7901 971.544C-96.6571 665.16 71.5538 270.24 432.5 89.4668C793.446 -91.3067 1210.44 10.5211 1363.89 316.905Z" fill="#A9DDEA"/>
<path d="M1055.6 830.416C1045.45 846.098 1029.25 838.781 1002.79 818.43C1002.25 818.012 1001.7 817.589 1001.15 817.16C956.768 782.684 884.202 713.237 764.546 653.658C570.926 557.25 440.048 539.708 461.114 382.672C477.505 260.479 695.992 220.005 869.948 362.85C1050.74 511.311 1082.72 788.52 1055.6 830.416Z" fill="#55A370"/>
<path d="M1004.51 829.302C1024.05 870.758 1092.13 797.908 1242.1 727.202C1392.07 656.495 1533 666.254 1502.65 535.221C1477.36 426.041 1315.46 360.81 1171.81 454.32C1033.46 544.375 991.074 753.912 1001.15 817.16C1002.49 818.198 1002.62 821.354 1002.49 823.605C1003.07 825.785 1003.75 827.691 1004.51 829.302Z" fill="#55A370"/>
<path d="M1004.55 788.139H1060.87L1080.58 1030.29H990.473L1002.49 823.605L1002.79 818.43L1004.55 788.139Z" fill="#55A370"/>
<path d="M946.705 581.512C994.199 633.401 1038 744.942 1040.41 774.361C1040.71 777.931 1040.24 786.852 1038.34 779.67C1036.44 772.488 989.718 671.344 926.762 618.136C855.111 557.58 806.393 542.192 789.31 519.501C772.226 496.81 899.212 529.623 946.705 581.512Z" fill="#2D6A6E"/>
<path d="M1119.25 635.48C1080.72 673.213 1042.67 756.628 1039.65 779.091C1036.62 801.553 1075.71 707.535 1133.13 664.207C1190.54 620.879 1228.52 611.437 1242.54 594.775C1256.56 578.114 1157.78 597.747 1119.25 635.48Z" fill="#2D6A6E"/>
<path d="M1001.72 816.295L1021.43 830.374L1032.7 1030.29H990.461L1001.72 816.295Z" fill="#2D6A6E"/>
<path d="M1818.77 1360.01H254.91C254.91 1360.01 448.531 1020.04 1036.84 1020.04C1625.15 1020.04 1818.77 1360.01 1818.77 1360.01Z" fill="#2D6A6E"/>
</svg>
