<svg width="313" height="232" viewBox="0 0 313 232" fill="none" xmlns="http://www.w3.org/2000/svg">
<path d="M173.188 156.328C173.19 156.506 173.214 156.623 173.26 156.685C173.272 156.676 173.283 156.663 173.294 156.646L173.478 154.437L173.188 156.328Z" fill="#2D6A6E"/>
<path d="M173.478 154.437L173.294 156.646C173.468 156.382 173.515 155.182 173.478 154.437Z" fill="#2D6A6E"/>
<path d="M173.294 156.646L173.288 156.714C173.644 156.981 174.941 154.799 177.021 151.299L177.022 151.298C177.9 149.821 178.917 148.108 180.063 146.246C179.87 144.02 179.613 141.691 179.29 139.273C176.339 145.53 174.225 151.133 173.476 154.406L173.478 154.437C173.515 155.182 173.468 156.382 173.294 156.646Z" fill="#2D6A6E"/>
<path d="M172.848 155.869C172.962 156.309 173.058 156.551 173.139 156.648L173.188 156.328C173.186 156.167 173.202 155.955 173.237 155.692C173.286 155.317 173.367 154.886 173.476 154.406C173.473 154.35 173.47 154.297 173.466 154.247C173.138 150.142 170.236 140.804 165.832 130.359C165.144 133.016 164.54 135.617 164.017 138.14C169.339 147.405 172.581 154.833 172.848 155.869Z" fill="#2D6A6E"/>
<path d="M173.188 156.328L173.478 154.437L173.476 154.406C173.367 154.886 173.286 155.317 173.237 155.692C173.202 155.955 173.186 156.167 173.188 156.328Z" fill="#2D6A6E"/>
<path d="M173.26 156.685C173.214 156.623 173.19 156.506 173.188 156.328L173.139 156.648C173.184 156.703 173.224 156.712 173.26 156.685Z" fill="#2D6A6E"/>
<path d="M233.716 99.3752C237.895 94.2844 208.45 100.283 196.965 111.812C190.379 118.424 183.84 129.626 179.29 139.273C179.613 141.691 179.87 144.02 180.063 146.246C185.01 138.203 192.34 127.367 201.102 120.59C210.353 113.434 217.911 109.303 223.563 106.214C228.368 103.588 231.796 101.714 233.716 99.3752Z" fill="#2D6A6E"/>
<path d="M145.533 95.3226C131.376 79.4681 93.5241 69.4423 98.6163 76.3755C100.962 79.5692 105.308 82.2894 111.402 86.1031C118.538 90.5685 128.069 96.5332 139.588 106.513C149.499 115.099 158.061 127.77 164.017 138.14C164.54 135.617 165.144 133.016 165.832 130.359C160.592 117.932 153.225 103.937 145.533 95.3226Z" fill="#2D6A6E"/>
<path d="M162.252 167.714L162.162 169.295C162.336 169.962 162.537 170.544 162.763 171.036C163.913 173.534 165.624 174.674 167.975 174.728L167.829 171.718C166.164 170.691 164.312 169.339 162.252 167.714Z" fill="#2D6A6E"/>
<path d="M168.002 175.285L163.579 174.022L162.108 170.243L158.628 231.513L171.161 231.661L167.997 174.729L167.975 174.728L168.002 175.285Z" fill="#2D6A6E"/>
<path d="M161.813 169.483L158.628 231.513L162.108 170.243L161.813 169.483Z" fill="#2D6A6E"/>
<path d="M162.763 171.036C162.537 170.544 162.336 169.962 162.162 169.295L162.108 170.243L163.579 174.022L168.002 175.285L167.975 174.728C165.624 174.674 163.913 173.534 162.763 171.036Z" fill="#2D6A6E"/>
<path d="M161.914 167.502L161.813 169.483L162.108 170.243L162.162 169.295C162.196 168.707 162.172 167.917 161.914 167.502Z" fill="#2D6A6E"/>
<path fill-rule="evenodd" clip-rule="evenodd" d="M212.634 56.4591C193.767 69.0483 180.887 89.2791 172.752 109.375C164.416 81.6099 148.726 50.4563 122.653 28.5103C70.7982 -15.1364 5.66925 -2.76965 0.78316 34.5669C-4.25875 73.0941 19.8996 84.142 59.494 102.249C69.2118 106.693 79.8594 111.562 91.2333 117.367C120.031 132.065 139.678 148.729 153.141 160.147C156.354 162.871 159.214 165.297 161.762 167.326C161.82 167.372 161.871 167.432 161.914 167.502L161.917 167.449C161.956 167.48 161.994 167.51 162.032 167.541C162.106 167.599 162.179 167.657 162.252 167.714C164.312 169.339 166.164 170.691 167.829 171.718L167.975 174.728L167.997 174.729L171.161 231.661L158.628 231.513L185.375 231.829L180.486 170.071C184.083 168.07 188.24 165.513 193.005 162.583L193.007 162.582C203.439 156.167 216.79 147.957 233.587 139.839C246.234 133.727 258.667 129.582 269.788 125.875C297.976 116.478 317.743 109.889 311.255 81.1787C303.716 47.8184 255.455 27.8868 212.634 56.4591ZM173.26 156.685C173.224 156.712 173.184 156.703 173.139 156.648C173.058 156.551 172.962 156.309 172.848 155.869C172.581 154.833 169.339 147.405 164.017 138.14C158.061 127.77 149.499 115.099 139.588 106.513C128.069 96.5332 118.538 90.5685 111.402 86.1031C105.308 82.2894 100.962 79.5692 98.6163 76.3755C93.5241 69.4423 131.376 79.4681 145.533 95.3226C153.225 103.937 160.592 117.932 165.832 130.359C170.236 140.804 173.138 150.142 173.466 154.247C173.47 154.297 173.473 154.35 173.476 154.406C174.225 151.133 176.339 145.53 179.29 139.273C183.84 129.626 190.379 118.424 196.965 111.812C208.45 100.283 237.895 94.2844 233.716 99.3752C231.796 101.714 228.368 103.588 223.563 106.214C217.911 109.303 210.353 113.434 201.102 120.59C192.34 127.367 185.01 138.203 180.063 146.246C178.917 148.108 177.9 149.821 177.022 151.298L177.021 151.299C174.941 154.799 173.644 156.981 173.288 156.714L173.294 156.646C173.283 156.663 173.272 156.676 173.26 156.685Z" fill="#55A370"/>
<path d="M162.162 169.295L162.252 167.714C162.179 167.657 162.106 167.599 162.032 167.541C161.994 167.51 161.956 167.48 161.917 167.449L161.914 167.502C162.172 167.917 162.196 168.707 162.162 169.295Z" fill="#2D6A6E"/>
</svg>
