<svg width="1765" height="3644" viewBox="0 0 1765 3644" fill="none" xmlns="http://www.w3.org/2000/svg">
<g clip-path="url(#clip0_687_908)">
<rect x="7" y="7" width="1751" height="3630" rx="203" stroke="#AFC9CA" stroke-width="14"/>
<g clip-path="url(#clip1_687_908)">
<rect x="9" y="11" width="1747" height="3622" rx="210" fill="white"/>
<g clip-path="url(#clip2_687_908)">
<rect width="1702" height="3689" transform="translate(22 127)" fill="#ECBEBE"/>
<rect x="66" y="95" width="1637" height="3548" fill="white"/>
<mask id="path-7-inside-1_687_908" fill="white">
<path d="M61 62H1698V657.651H61V62Z"/>
</mask>
<path d="M1698 651.651H61V663.651H1698V651.651Z" fill="#2D6A6E" mask="url(#path-7-inside-1_687_908)"/>
<path d="M627.955 459.24C615.224 459.24 604.808 455.024 596.707 446.592C588.605 438.16 584.555 426.876 584.555 412.74C584.555 398.356 588.647 387.031 596.831 378.764C605.015 370.415 616.216 366.24 630.435 366.24C636.221 366.24 641.553 366.653 646.431 367.48C648.084 367.811 649.448 368.637 650.523 369.96C651.597 371.283 652.135 372.812 652.135 374.548C652.135 375.953 651.556 377.111 650.399 378.02C649.241 378.847 647.96 379.095 646.555 378.764C642.173 377.689 637.213 377.152 631.675 377.152C621.011 377.152 612.785 380.211 606.999 386.328C601.295 392.363 598.443 401.167 598.443 412.74C598.443 423.817 601.253 432.539 606.875 438.904C612.496 445.187 619.936 448.328 629.195 448.328C633.824 448.328 638.288 447.667 642.587 446.344C643.165 446.261 643.455 445.848 643.455 445.104V416.212C643.455 415.468 643.083 415.096 642.339 415.096H622.127C620.639 415.096 619.357 414.6 618.283 413.608C617.291 412.533 616.795 411.252 616.795 409.764C616.795 408.276 617.291 407.036 618.283 406.044C619.357 404.969 620.639 404.432 622.127 404.432H649.407C651.308 404.432 652.961 405.135 654.367 406.54C655.772 407.945 656.475 409.599 656.475 411.5V446.592C656.475 448.741 655.855 450.725 654.615 452.544C653.457 454.28 651.887 455.479 649.903 456.14C643.455 458.207 636.139 459.24 627.955 459.24ZM686.648 456.016C685.326 457.339 683.714 458 681.812 458C679.911 458 678.299 457.339 676.976 456.016C675.654 454.693 674.992 453.081 674.992 451.18V399.968C674.992 398.149 675.612 396.62 676.852 395.38C678.092 394.14 679.622 393.52 681.44 393.52C683.259 393.52 684.788 394.14 686.028 395.38C687.351 396.62 688.012 398.149 688.012 399.968V405.796C688.012 405.879 688.054 405.92 688.136 405.92C688.302 405.92 688.384 405.879 688.384 405.796C690.864 402.407 694.171 399.637 698.304 397.488C702.438 395.256 706.943 393.975 711.82 393.644C713.308 393.561 714.548 394.016 715.54 395.008C716.615 396 717.152 397.24 717.152 398.728C717.152 400.216 716.615 401.497 715.54 402.572C714.548 403.564 713.308 404.101 711.82 404.184C703.884 404.515 698.015 406.581 694.212 410.384C690.492 414.104 688.632 419.643 688.632 427V451.18C688.632 453.081 687.971 454.693 686.648 456.016ZM773.242 425.76C773.242 410.053 767.538 402.2 756.13 402.2C744.722 402.2 739.018 410.053 739.018 425.76C739.018 441.467 744.722 449.32 756.13 449.32C767.538 449.32 773.242 441.467 773.242 425.76ZM778.45 450.56C773.077 456.347 765.637 459.24 756.13 459.24C746.623 459.24 739.183 456.347 733.81 450.56C728.437 444.691 725.75 436.424 725.75 425.76C725.75 415.096 728.437 406.871 733.81 401.084C739.183 395.215 746.623 392.28 756.13 392.28C765.637 392.28 773.077 395.215 778.45 401.084C783.823 406.871 786.51 415.096 786.51 425.76C786.51 436.424 783.823 444.691 778.45 450.56ZM820.542 459.24C813.268 459.24 807.936 457.256 804.546 453.288C801.157 449.237 799.462 442.541 799.462 433.2V399.844C799.462 398.108 800.082 396.62 801.322 395.38C802.562 394.14 804.05 393.52 805.786 393.52C807.522 393.52 809.01 394.14 810.25 395.38C811.573 396.62 812.234 398.108 812.234 399.844V431.34C812.234 438.201 813.144 442.913 814.962 445.476C816.781 448.039 819.881 449.32 824.262 449.32C828.148 449.32 831.785 447.625 835.174 444.236C838.646 440.764 840.382 437.085 840.382 433.2V399.968C840.382 398.149 841.002 396.62 842.242 395.38C843.565 394.14 845.136 393.52 846.954 393.52C848.773 393.52 850.302 394.14 851.542 395.38C852.782 396.62 853.402 398.149 853.402 399.968V451.924C853.402 453.577 852.782 455.024 851.542 456.264C850.385 457.421 848.98 458 847.326 458C845.673 458 844.226 457.421 842.986 456.264C841.746 455.024 841.085 453.577 841.002 451.924V450.064C841.002 449.981 840.961 449.94 840.878 449.94C840.796 449.94 840.713 449.981 840.63 450.064C834.761 456.181 828.065 459.24 820.542 459.24ZM884.305 416.46V435.06C884.305 438.863 885.876 442.211 889.017 445.104C892.241 447.915 896.044 449.32 900.425 449.32C905.385 449.32 909.312 447.336 912.205 443.368C915.099 439.4 916.545 433.531 916.545 425.76C916.545 410.053 911.172 402.2 900.425 402.2C896.044 402.2 892.241 403.647 889.017 406.54C885.876 409.351 884.305 412.657 884.305 416.46ZM882.321 483.42C881.081 484.66 879.552 485.28 877.733 485.28C875.915 485.28 874.385 484.66 873.145 483.42C871.905 482.18 871.285 480.651 871.285 478.832V399.596C871.285 397.943 871.864 396.537 873.021 395.38C874.261 394.14 875.708 393.52 877.361 393.52C879.015 393.52 880.461 394.14 881.701 395.38C882.941 396.537 883.603 397.943 883.685 399.596V401.456C883.685 401.539 883.727 401.58 883.809 401.58C883.892 401.58 883.975 401.539 884.057 401.456C887.116 398.067 890.133 395.711 893.109 394.388C896.085 392.983 899.557 392.28 903.525 392.28C911.379 392.28 917.661 395.215 922.373 401.084C927.168 406.953 929.565 415.179 929.565 425.76C929.565 436.011 927.085 444.153 922.125 450.188C917.248 456.223 911.048 459.24 903.525 459.24C896.168 459.24 889.885 456.595 884.677 451.304C884.595 451.221 884.512 451.18 884.429 451.18C884.347 451.18 884.305 451.221 884.305 451.304V478.832C884.305 480.651 883.644 482.18 882.321 483.42ZM1002.89 417.7C993.466 414.476 986.646 410.632 982.43 406.168C978.297 401.621 976.23 396.165 976.23 389.8C976.23 382.525 978.545 376.78 983.174 372.564C987.803 368.348 994.169 366.24 1002.27 366.24C1009.88 366.24 1016.57 367.149 1022.36 368.968C1024.09 369.547 1025.5 370.663 1026.57 372.316C1027.73 373.887 1028.31 375.664 1028.31 377.648C1028.31 379.053 1027.69 380.128 1026.45 380.872C1025.21 381.616 1023.93 381.699 1022.61 381.12C1016.32 378.475 1009.96 377.152 1003.51 377.152C999.046 377.152 995.615 378.268 993.218 380.5C990.821 382.732 989.622 385.832 989.622 389.8C989.622 393.024 990.738 395.959 992.97 398.604C995.202 401.167 998.509 403.192 1002.89 404.68C1013.8 408.317 1021.37 412.368 1025.58 416.832C1029.88 421.296 1032.03 426.959 1032.03 433.82C1032.03 442.169 1029.47 448.493 1024.34 452.792C1019.22 457.091 1011.65 459.24 1001.65 459.24C995.119 459.24 989.209 458.248 983.918 456.264C980.033 454.693 978.09 451.635 978.09 447.088C978.09 445.683 978.71 444.649 979.95 443.988C981.19 443.327 982.43 443.327 983.67 443.988C988.795 446.716 994.375 448.08 1000.41 448.08C1012.4 448.08 1018.39 443.327 1018.39 433.82C1018.39 430.183 1017.19 427.083 1014.79 424.52C1012.48 421.957 1008.51 419.684 1002.89 417.7ZM1072.88 401.952C1063.46 401.952 1058.17 407.532 1057.01 418.692C1056.84 419.436 1057.18 419.808 1058 419.808H1085.78C1086.44 419.808 1086.77 419.436 1086.77 418.692C1086.27 407.532 1081.64 401.952 1072.88 401.952ZM1075.98 459.24C1065.65 459.24 1057.67 456.429 1052.05 450.808C1046.51 445.187 1043.74 436.837 1043.74 425.76C1043.74 414.683 1046.22 406.333 1051.18 400.712C1056.22 395.091 1063.46 392.28 1072.88 392.28C1090.08 392.28 1098.96 402.365 1099.54 422.536C1099.62 424.52 1098.92 426.173 1097.43 427.496C1095.95 428.819 1094.21 429.48 1092.23 429.48H1057.88C1057.22 429.48 1056.89 429.811 1056.89 430.472C1057.88 443.203 1064.66 449.568 1077.22 449.568C1081.6 449.568 1085.9 448.865 1090.12 447.46C1091.36 447.047 1092.52 447.212 1093.59 447.956C1094.66 448.7 1095.2 449.733 1095.2 451.056C1095.2 452.627 1094.71 454.032 1093.71 455.272C1092.72 456.512 1091.44 457.339 1089.87 457.752C1085.32 458.744 1080.69 459.24 1075.98 459.24ZM1114.36 405.92C1112.96 405.92 1111.76 405.424 1110.77 404.432C1109.86 403.44 1109.4 402.283 1109.4 400.96C1109.4 399.637 1109.86 398.48 1110.77 397.488C1111.76 396.496 1112.96 396 1114.36 396H1121.31C1122.05 396 1122.42 395.628 1122.42 394.884V378.888C1122.42 377.069 1123.04 375.54 1124.28 374.3C1125.52 373.06 1127.05 372.44 1128.87 372.44C1130.69 372.44 1132.22 373.06 1133.46 374.3C1134.78 375.54 1135.44 377.069 1135.44 378.888V394.884C1135.44 395.628 1135.82 396 1136.56 396H1152.8C1154.21 396 1155.37 396.496 1156.28 397.488C1157.27 398.48 1157.76 399.637 1157.76 400.96C1157.76 402.283 1157.27 403.44 1156.28 404.432C1155.37 405.424 1154.21 405.92 1152.8 405.92H1136.56C1135.82 405.92 1135.44 406.292 1135.44 407.036V435.68C1135.44 441.301 1136.11 444.98 1137.43 446.716C1138.75 448.452 1141.4 449.32 1145.36 449.32C1147.27 449.32 1149.08 449.196 1150.82 448.948C1152.14 448.783 1153.3 449.072 1154.29 449.816C1155.37 450.56 1155.9 451.552 1155.9 452.792C1155.9 454.28 1155.41 455.603 1154.42 456.76C1153.42 457.917 1152.18 458.579 1150.7 458.744C1147.22 459.075 1144.62 459.24 1142.88 459.24C1135.28 459.24 1129.95 457.628 1126.89 454.404C1123.91 451.18 1122.42 445.352 1122.42 436.92V407.036C1122.42 406.292 1122.05 405.92 1121.31 405.92H1114.36ZM1175.03 405.92C1173.63 405.92 1172.43 405.424 1171.44 404.432C1170.53 403.44 1170.07 402.283 1170.07 400.96C1170.07 399.637 1170.53 398.48 1171.44 397.488C1172.43 396.496 1173.63 396 1175.03 396H1181.98C1182.72 396 1183.09 395.628 1183.09 394.884V378.888C1183.09 377.069 1183.71 375.54 1184.95 374.3C1186.19 373.06 1187.72 372.44 1189.54 372.44C1191.36 372.44 1192.89 373.06 1194.13 374.3C1195.45 375.54 1196.11 377.069 1196.11 378.888V394.884C1196.11 395.628 1196.48 396 1197.23 396H1213.47C1214.88 396 1216.03 396.496 1216.94 397.488C1217.94 398.48 1218.43 399.637 1218.43 400.96C1218.43 402.283 1217.94 403.44 1216.94 404.432C1216.03 405.424 1214.88 405.92 1213.47 405.92H1197.23C1196.48 405.92 1196.11 406.292 1196.11 407.036V435.68C1196.11 441.301 1196.77 444.98 1198.1 446.716C1199.42 448.452 1202.06 449.32 1206.03 449.32C1207.93 449.32 1209.75 449.196 1211.49 448.948C1212.81 448.783 1213.97 449.072 1214.96 449.816C1216.03 450.56 1216.57 451.552 1216.57 452.792C1216.57 454.28 1216.08 455.603 1215.08 456.76C1214.09 457.917 1212.85 458.579 1211.36 458.744C1207.89 459.075 1205.29 459.24 1203.55 459.24C1195.95 459.24 1190.61 457.628 1187.56 454.404C1184.58 451.18 1183.09 445.352 1183.09 436.92V407.036C1183.09 406.292 1182.72 405.92 1181.98 405.92H1175.03ZM1240.6 371.82C1240.6 369.919 1241.26 368.307 1242.59 366.984C1243.99 365.661 1245.6 365 1247.42 365C1249.24 365 1250.81 365.661 1252.13 366.984C1253.54 368.307 1254.24 369.919 1254.24 371.82C1254.24 373.721 1253.54 375.333 1252.13 376.656C1250.81 377.979 1249.24 378.64 1247.42 378.64C1245.6 378.64 1243.99 377.979 1242.59 376.656C1241.26 375.333 1240.6 373.721 1240.6 371.82ZM1252.13 456.016C1250.81 457.339 1249.24 458 1247.42 458C1245.6 458 1243.99 457.339 1242.59 456.016C1241.26 454.693 1240.6 453.081 1240.6 451.18V400.34C1240.6 398.439 1241.26 396.827 1242.59 395.504C1243.99 394.181 1245.6 393.52 1247.42 393.52C1249.24 393.52 1250.81 394.181 1252.13 395.504C1253.54 396.827 1254.24 398.439 1254.24 400.34V451.18C1254.24 453.081 1253.54 454.693 1252.13 456.016ZM1287.63 456.14C1286.39 457.38 1284.86 458 1283.04 458C1281.22 458 1279.65 457.38 1278.33 456.14C1277.09 454.9 1276.47 453.371 1276.47 451.552V399.596C1276.47 397.943 1277.04 396.537 1278.2 395.38C1279.44 394.14 1280.89 393.52 1282.54 393.52C1284.19 393.52 1285.6 394.14 1286.76 395.38C1288 396.537 1288.66 397.943 1288.74 399.596L1288.87 401.456C1288.87 401.539 1288.91 401.58 1288.99 401.58C1289.07 401.58 1289.15 401.539 1289.24 401.456C1295.11 395.339 1301.8 392.28 1309.33 392.28C1316.85 392.28 1322.35 394.429 1325.82 398.728C1329.29 402.944 1331.03 409.888 1331.03 419.56V451.676C1331.03 453.412 1330.41 454.9 1329.17 456.14C1327.93 457.38 1326.44 458 1324.7 458C1322.97 458 1321.44 457.38 1320.11 456.14C1318.87 454.9 1318.25 453.412 1318.25 451.676V421.42C1318.25 413.98 1317.34 408.937 1315.53 406.292C1313.71 403.564 1310.4 402.2 1305.61 402.2C1301.72 402.2 1298.04 403.936 1294.57 407.408C1291.18 410.797 1289.49 414.435 1289.49 418.32V451.552C1289.49 453.371 1288.87 454.9 1287.63 456.14ZM1373.07 402.2C1362.74 402.2 1357.57 409.64 1357.57 424.52C1357.57 432.456 1358.94 438.367 1361.67 442.252C1364.48 446.137 1368.28 448.08 1373.07 448.08C1377.29 448.08 1380.93 446.551 1383.99 443.492C1387.04 440.351 1388.57 436.713 1388.57 432.58V417.7C1388.57 413.567 1387.04 409.971 1383.99 406.912C1380.93 403.771 1377.29 402.2 1373.07 402.2ZM1369.35 458C1362.08 458 1356.13 455.065 1351.5 449.196C1346.87 443.327 1344.55 435.101 1344.55 424.52C1344.55 414.269 1346.74 406.333 1351.13 400.712C1355.51 395.091 1361.58 392.28 1369.35 392.28C1373.32 392.28 1376.79 392.983 1379.77 394.388C1382.75 395.711 1385.76 398.067 1388.82 401.456C1388.9 401.539 1388.99 401.58 1389.07 401.58C1389.15 401.58 1389.19 401.539 1389.19 401.456V399.596C1389.28 397.943 1389.94 396.537 1391.18 395.38C1392.42 394.14 1393.86 393.52 1395.52 393.52C1397.17 393.52 1398.58 394.14 1399.73 395.38C1400.97 396.537 1401.59 397.943 1401.59 399.596V453.66C1401.59 464.903 1399.07 473.169 1394.03 478.46C1388.99 483.833 1381.18 486.52 1370.59 486.52C1365.8 486.52 1361.38 486.107 1357.33 485.28C1355.76 484.949 1354.47 484.123 1353.48 482.8C1352.49 481.56 1351.99 480.113 1351.99 478.46C1351.99 477.137 1352.53 476.063 1353.61 475.236C1354.76 474.492 1356 474.327 1357.33 474.74C1361.71 475.98 1366.13 476.6 1370.59 476.6C1376.88 476.6 1381.42 474.823 1384.23 471.268C1387.13 467.796 1388.57 462.133 1388.57 454.28V450.064C1388.57 449.981 1388.53 449.94 1388.45 449.94C1388.37 449.94 1388.28 449.981 1388.2 450.064C1382.99 455.355 1376.71 458 1369.35 458ZM1440.56 430.72C1432.12 428.653 1426.17 426.049 1422.7 422.908C1419.31 419.684 1417.62 415.675 1417.62 410.88C1417.62 405.093 1419.68 400.547 1423.82 397.24C1428.03 393.933 1434.23 392.28 1442.42 392.28C1447.71 392.28 1453.04 392.859 1458.41 394.016C1459.9 394.347 1461.1 395.173 1462.01 396.496C1463 397.736 1463.5 399.141 1463.5 400.712C1463.5 402.035 1462.96 403.068 1461.88 403.812C1460.81 404.556 1459.65 404.721 1458.41 404.308C1453.2 402.903 1448.29 402.2 1443.66 402.2C1434.98 402.2 1430.64 404.68 1430.64 409.64C1430.64 412.12 1431.46 414.145 1433.12 415.716C1434.77 417.287 1437.66 418.568 1441.8 419.56C1451.3 421.792 1457.71 424.479 1461.02 427.62C1464.32 430.679 1465.98 435.225 1465.98 441.26C1465.98 446.881 1463.79 451.304 1459.4 454.528C1455.11 457.669 1448.82 459.24 1440.56 459.24C1435.18 459.24 1429.81 458.537 1424.44 457.132C1422.95 456.719 1421.75 455.892 1420.84 454.652C1419.93 453.329 1419.48 451.883 1419.48 450.312C1419.48 449.072 1419.97 448.08 1420.96 447.336C1422.04 446.592 1423.16 446.427 1424.31 446.84C1429.44 448.493 1434.44 449.32 1439.32 449.32C1448.41 449.32 1452.96 446.633 1452.96 441.26C1452.96 438.697 1452.05 436.631 1450.23 435.06C1448.41 433.407 1445.19 431.96 1440.56 430.72Z" fill="#2D6A6E"/>
<path d="M418.821 433.77C427.003 428.331 433.215 420.408 436.538 411.171C439.861 401.935 440.119 391.876 437.274 382.482C434.428 373.088 428.631 364.858 420.738 359.008C412.845 353.158 403.277 350 393.447 350C383.618 350 374.049 353.158 366.157 359.008C358.264 364.858 352.466 373.088 349.621 382.482C346.776 391.876 347.034 401.935 350.357 411.171C353.68 420.408 359.892 428.331 368.074 433.77C353.273 439.216 340.633 449.295 332.04 462.502C331.588 463.172 331.274 463.925 331.117 464.718C330.959 465.51 330.961 466.326 331.122 467.117C331.283 467.909 331.6 468.661 332.055 469.329C332.509 469.997 333.092 470.569 333.77 471.01C334.447 471.451 335.206 471.754 336.002 471.9C336.798 472.046 337.615 472.032 338.405 471.86C339.195 471.688 339.944 471.361 340.607 470.898C341.269 470.434 341.833 469.844 342.265 469.161C347.809 460.649 355.394 453.654 364.332 448.811C373.27 443.969 383.278 441.433 393.447 441.433C403.617 441.433 413.625 443.969 422.563 448.811C431.501 453.654 439.086 460.649 444.629 469.161C445.525 470.49 446.908 471.413 448.48 471.732C450.052 472.051 451.686 471.739 453.03 470.864C454.373 469.989 455.318 468.621 455.659 467.057C456.001 465.492 455.712 463.856 454.855 462.502C446.262 449.295 433.621 439.216 418.821 433.77ZM359.87 395.734C359.87 389.104 361.84 382.622 365.529 377.109C369.219 371.596 374.463 367.299 380.598 364.761C386.733 362.224 393.485 361.56 399.998 362.854C406.511 364.147 412.494 367.34 417.19 372.029C421.886 376.717 425.084 382.691 426.379 389.194C427.675 395.697 427.01 402.438 424.468 408.564C421.927 414.689 417.623 419.925 412.102 423.609C406.58 427.293 400.088 429.259 393.447 429.259C384.545 429.249 376.011 425.714 369.716 419.429C363.421 413.144 359.881 404.622 359.87 395.734ZM520.231 470.936C518.875 471.819 517.223 472.128 515.639 471.795C514.055 471.462 512.668 470.515 511.783 469.161C506.247 460.644 498.662 453.646 489.722 448.805C480.782 443.965 470.771 441.436 460.601 441.45C458.982 441.45 457.429 440.808 456.284 439.665C455.14 438.521 454.496 436.971 454.496 435.354C454.496 433.738 455.14 432.187 456.284 431.044C457.429 429.901 458.982 429.259 460.601 429.259C465.546 429.254 470.429 428.159 474.9 426.052C479.372 423.945 483.323 420.878 486.469 417.07C489.616 413.261 491.882 408.806 493.104 404.022C494.327 399.238 494.476 394.244 493.541 389.396C492.606 384.548 490.61 379.966 487.696 375.977C484.782 371.989 481.022 368.692 476.684 366.323C472.346 363.953 467.537 362.57 462.601 362.271C457.666 361.972 452.725 362.765 448.132 364.594C447.383 364.917 446.577 365.088 445.761 365.094C444.945 365.101 444.136 364.945 443.382 364.634C442.628 364.324 441.944 363.865 441.37 363.286C440.796 362.707 440.344 362.019 440.041 361.263C439.738 360.507 439.59 359.697 439.606 358.883C439.621 358.069 439.8 357.265 440.132 356.521C440.464 355.777 440.941 355.107 441.537 354.55C442.132 353.993 442.834 353.561 443.599 353.28C454.111 349.094 465.802 348.943 476.419 352.857C487.035 356.77 495.823 364.47 501.089 374.472C506.354 384.473 507.724 396.068 504.933 407.018C502.142 417.968 495.388 427.498 485.975 433.77C500.775 439.216 513.415 449.295 522.009 462.502C522.893 463.856 523.203 465.505 522.869 467.087C522.536 468.669 521.587 470.053 520.231 470.936Z" fill="#2D6A6E"/>
<path fill-rule="evenodd" clip-rule="evenodd" d="M330.09 417.874L325.539 415.258C326.073 412.444 326.073 409.556 325.539 406.742L330.09 404.126C331.885 403.095 333.195 401.396 333.732 399.403C334.269 397.41 333.988 395.287 332.952 393.5C331.916 391.713 330.209 390.409 328.207 389.875C326.205 389.341 324.072 389.62 322.277 390.651L317.716 393.276C315.533 391.412 313.024 389.965 310.313 389.008V383.778C310.313 381.715 309.49 379.737 308.025 378.278C306.56 376.819 304.572 376 302.5 376C300.428 376 298.44 376.819 296.975 378.278C295.51 379.737 294.687 381.715 294.687 383.778V389.008C291.976 389.965 289.467 391.412 287.284 393.276L282.723 390.651C281.834 390.141 280.853 389.809 279.835 389.676C278.818 389.543 277.784 389.61 276.793 389.875C275.802 390.139 274.872 390.596 274.058 391.218C273.244 391.84 272.561 392.615 272.048 393.5C271.535 394.385 271.202 395.361 271.068 396.374C270.934 397.387 271.002 398.416 271.268 399.403C271.534 400.39 271.992 401.315 272.617 402.125C273.242 402.936 274.021 403.616 274.91 404.126L279.461 406.742C278.927 409.556 278.927 412.444 279.461 415.258L274.91 417.874C273.419 418.729 272.254 420.051 271.595 421.633C270.937 423.215 270.821 424.97 271.266 426.624C271.711 428.278 272.693 429.74 274.058 430.782C275.423 431.825 277.096 432.39 278.816 432.389C280.188 432.393 281.536 432.034 282.723 431.349L287.284 428.724C289.467 430.588 291.976 432.035 294.687 432.992V438.222C294.687 440.285 295.51 442.263 296.975 443.722C298.44 445.181 300.428 446 302.5 446C304.572 446 306.56 445.181 308.025 443.722C309.49 442.263 310.313 440.285 310.313 438.222V432.992C313.024 432.035 315.533 430.588 317.716 428.724L322.277 431.349C323.464 432.034 324.812 432.393 326.184 432.389C327.904 432.39 329.577 431.825 330.942 430.782C332.307 429.74 333.289 428.278 333.734 426.624C334.179 424.97 334.063 423.215 333.405 421.633C332.746 420.051 331.581 418.729 330.09 417.874ZM296.004 406.679C295.145 407.958 294.687 409.462 294.687 411C294.687 413.063 295.51 415.041 296.975 416.5C298.44 417.958 300.428 418.778 302.5 418.778C304.045 418.778 305.556 418.322 306.841 417.467C308.126 416.612 309.127 415.398 309.718 413.976C310.31 412.555 310.465 410.991 310.163 409.483C309.862 407.974 309.117 406.588 308.025 405.5C306.932 404.413 305.54 403.672 304.024 403.372C302.509 403.072 300.938 403.226 299.51 403.814C298.082 404.403 296.862 405.4 296.004 406.679Z" fill="#2D6A6E"/>
<path d="M273.29 1444.77C279.592 1432.35 289.207 1421.93 301.07 1414.65C312.933 1407.37 326.58 1403.51 340.5 1403.51C354.419 1403.51 368.067 1407.37 379.93 1414.65C391.793 1421.93 401.408 1432.35 407.709 1444.77M441 1370.05C441 1425.55 396.005 1470.55 340.5 1470.55C284.995 1470.55 240 1425.55 240 1370.05C240 1314.55 284.995 1269.55 340.5 1269.55C396.005 1269.55 441 1314.55 441 1370.05ZM382.375 1361.67C382.375 1384.8 363.627 1403.55 340.5 1403.55C317.373 1403.55 298.625 1384.8 298.625 1361.67C298.625 1338.55 317.373 1319.8 340.5 1319.8C363.627 1319.8 382.375 1338.55 382.375 1361.67Z" stroke="#2D6A6E" stroke-width="7" stroke-linecap="round" stroke-linejoin="round"/>
<path d="M532.584 1374.15C527.112 1372.28 523.152 1370.05 520.704 1367.45C518.304 1364.81 517.104 1361.65 517.104 1357.95C517.104 1353.73 518.448 1350.39 521.136 1347.94C523.824 1345.49 527.52 1344.27 532.224 1344.27C536.64 1344.27 540.528 1344.8 543.888 1345.85C544.896 1346.19 545.712 1346.84 546.336 1347.8C547.008 1348.71 547.344 1349.74 547.344 1350.89C547.344 1351.71 546.984 1352.33 546.264 1352.77C545.544 1353.2 544.8 1353.25 544.032 1352.91C540.384 1351.37 536.688 1350.61 532.944 1350.61C530.352 1350.61 528.36 1351.25 526.968 1352.55C525.576 1353.85 524.88 1355.65 524.88 1357.95C524.88 1359.82 525.528 1361.53 526.824 1363.06C528.12 1364.55 530.04 1365.73 532.584 1366.59C538.92 1368.7 543.312 1371.05 545.76 1373.65C548.256 1376.24 549.504 1379.53 549.504 1383.51C549.504 1388.36 548.016 1392.03 545.04 1394.53C542.064 1397.02 537.672 1398.27 531.864 1398.27C528.072 1398.27 524.64 1397.69 521.568 1396.54C519.312 1395.63 518.184 1393.85 518.184 1391.21C518.184 1390.4 518.544 1389.8 519.264 1389.41C519.984 1389.03 520.704 1389.03 521.424 1389.41C524.4 1391 527.64 1391.79 531.144 1391.79C538.104 1391.79 541.584 1389.03 541.584 1383.51C541.584 1381.4 540.888 1379.6 539.496 1378.11C538.152 1376.62 535.848 1375.3 532.584 1374.15ZM559.165 1367.31C558.349 1367.31 557.653 1367.02 557.077 1366.45C556.549 1365.87 556.285 1365.2 556.285 1364.43C556.285 1363.66 556.549 1362.99 557.077 1362.41C557.653 1361.84 558.349 1361.55 559.165 1361.55H563.197C563.629 1361.55 563.845 1361.33 563.845 1360.9V1351.61C563.845 1350.56 564.205 1349.67 564.925 1348.95C565.645 1348.23 566.533 1347.87 567.589 1347.87C568.645 1347.87 569.533 1348.23 570.253 1348.95C571.021 1349.67 571.405 1350.56 571.405 1351.61V1360.9C571.405 1361.33 571.621 1361.55 572.053 1361.55H581.485C582.301 1361.55 582.973 1361.84 583.501 1362.41C584.077 1362.99 584.365 1363.66 584.365 1364.43C584.365 1365.2 584.077 1365.87 583.501 1366.45C582.973 1367.02 582.301 1367.31 581.485 1367.31H572.053C571.621 1367.31 571.405 1367.53 571.405 1367.96V1384.59C571.405 1387.85 571.789 1389.99 572.557 1391C573.325 1392.01 574.861 1392.51 577.165 1392.51C578.269 1392.51 579.325 1392.44 580.333 1392.29C581.101 1392.2 581.773 1392.37 582.349 1392.8C582.973 1393.23 583.285 1393.81 583.285 1394.53C583.285 1395.39 582.997 1396.16 582.421 1396.83C581.845 1397.5 581.125 1397.89 580.261 1397.98C578.245 1398.17 576.733 1398.27 575.725 1398.27C571.309 1398.27 568.213 1397.33 566.437 1395.46C564.709 1393.59 563.845 1390.21 563.845 1385.31V1367.96C563.845 1367.53 563.629 1367.31 563.197 1367.31H559.165ZM609.855 1365.01C604.383 1365.01 601.311 1368.25 600.639 1374.73C600.543 1375.16 600.735 1375.37 601.215 1375.37H617.343C617.727 1375.37 617.919 1375.16 617.919 1374.73C617.631 1368.25 614.943 1365.01 609.855 1365.01ZM611.655 1398.27C605.655 1398.27 601.023 1396.64 597.759 1393.37C594.543 1390.11 592.935 1385.26 592.935 1378.83C592.935 1372.4 594.375 1367.55 597.255 1364.29C600.183 1361.02 604.383 1359.39 609.855 1359.39C619.839 1359.39 624.999 1365.25 625.335 1376.96C625.383 1378.11 624.975 1379.07 624.111 1379.84C623.247 1380.61 622.239 1380.99 621.087 1380.99H601.143C600.759 1380.99 600.567 1381.18 600.567 1381.57C601.143 1388.96 605.079 1392.65 612.375 1392.65C614.919 1392.65 617.415 1392.25 619.863 1391.43C620.583 1391.19 621.255 1391.29 621.879 1391.72C622.503 1392.15 622.815 1392.75 622.815 1393.52C622.815 1394.43 622.527 1395.25 621.951 1395.97C621.375 1396.69 620.631 1397.17 619.719 1397.41C617.079 1397.98 614.391 1398.27 611.655 1398.27ZM642.564 1373.43V1384.23C642.564 1386.44 643.476 1388.38 645.3 1390.06C647.172 1391.69 649.38 1392.51 651.924 1392.51C654.804 1392.51 657.084 1391.36 658.764 1389.05C660.444 1386.75 661.284 1383.34 661.284 1378.83C661.284 1369.71 658.164 1365.15 651.924 1365.15C649.38 1365.15 647.172 1365.99 645.3 1367.67C643.476 1369.3 642.564 1371.22 642.564 1373.43ZM641.412 1412.31C640.692 1413.03 639.804 1413.39 638.748 1413.39C637.692 1413.39 636.804 1413.03 636.084 1412.31C635.364 1411.59 635.004 1410.7 635.004 1409.65V1363.64C635.004 1362.68 635.34 1361.86 636.012 1361.19C636.732 1360.47 637.572 1360.11 638.532 1360.11C639.492 1360.11 640.332 1360.47 641.052 1361.19C641.772 1361.86 642.156 1362.68 642.204 1363.64V1364.72C642.204 1364.77 642.228 1364.79 642.276 1364.79C642.324 1364.79 642.372 1364.77 642.42 1364.72C644.196 1362.75 645.948 1361.38 647.676 1360.61C649.404 1359.8 651.42 1359.39 653.724 1359.39C658.284 1359.39 661.932 1361.09 664.668 1364.5C667.452 1367.91 668.844 1372.69 668.844 1378.83C668.844 1384.78 667.404 1389.51 664.524 1393.01C661.692 1396.52 658.092 1398.27 653.724 1398.27C649.452 1398.27 645.804 1396.73 642.78 1393.66C642.732 1393.61 642.684 1393.59 642.636 1393.59C642.588 1393.59 642.564 1393.61 642.564 1393.66V1409.65C642.564 1410.7 642.18 1411.59 641.412 1412.31ZM685.259 1396.47C684.539 1397.19 683.651 1397.55 682.595 1397.55C681.539 1397.55 680.651 1397.19 679.931 1396.47C679.211 1395.75 678.851 1394.86 678.851 1393.81V1347.29C678.851 1346.24 679.211 1345.35 679.931 1344.63C680.651 1343.91 681.539 1343.55 682.595 1343.55C683.651 1343.55 684.539 1343.91 685.259 1344.63C686.027 1345.35 686.411 1346.24 686.411 1347.29V1364.72C686.411 1364.77 686.435 1364.79 686.483 1364.79C686.531 1364.79 686.579 1364.77 686.627 1364.72C689.987 1361.17 693.755 1359.39 697.931 1359.39C702.299 1359.39 705.491 1360.61 707.507 1363.06C709.523 1365.46 710.531 1369.52 710.531 1375.23V1393.88C710.531 1394.89 710.171 1395.75 709.451 1396.47C708.731 1397.19 707.867 1397.55 706.859 1397.55C705.851 1397.55 704.987 1397.19 704.267 1396.47C703.547 1395.75 703.187 1394.89 703.187 1393.88V1376.67C703.187 1372.21 702.659 1369.23 701.603 1367.74C700.547 1366.25 698.603 1365.51 695.771 1365.51C693.563 1365.51 691.451 1366.57 689.435 1368.68C687.419 1370.74 686.411 1372.93 686.411 1375.23V1393.81C686.411 1394.86 686.027 1395.75 685.259 1396.47ZM739.618 1378.69C735.682 1378.69 732.706 1379.36 730.69 1380.7C728.722 1382 727.738 1383.77 727.738 1386.03C727.738 1387.81 728.266 1389.27 729.322 1390.42C730.378 1391.57 731.65 1392.15 733.138 1392.15C736.306 1392.15 738.826 1391.17 740.698 1389.2C742.618 1387.18 743.578 1384.45 743.578 1380.99V1379.26C743.578 1378.88 743.362 1378.69 742.93 1378.69H739.618ZM731.338 1398.27C728.074 1398.27 725.386 1397.21 723.274 1395.1C721.21 1392.99 720.178 1390.21 720.178 1386.75C720.178 1382.53 721.786 1379.26 725.002 1376.96C728.218 1374.61 733.09 1373.43 739.618 1373.43H742.93C743.362 1373.43 743.578 1373.21 743.578 1372.78V1371.99C743.578 1369.45 742.978 1367.67 741.778 1366.66C740.578 1365.65 738.418 1365.15 735.298 1365.15C732.514 1365.15 729.202 1365.73 725.362 1366.88C724.642 1367.12 723.946 1367.02 723.274 1366.59C722.65 1366.11 722.338 1365.49 722.338 1364.72C722.338 1363.76 722.626 1362.89 723.202 1362.13C723.778 1361.36 724.522 1360.88 725.434 1360.69C728.89 1359.82 732.178 1359.39 735.298 1359.39C741.346 1359.39 745.498 1360.47 747.754 1362.63C750.01 1364.79 751.138 1368.75 751.138 1374.51V1394.02C751.138 1394.98 750.778 1395.82 750.058 1396.54C749.386 1397.21 748.57 1397.55 747.61 1397.55C746.65 1397.55 745.81 1397.21 745.09 1396.54C744.418 1395.82 744.058 1394.98 744.01 1394.02L743.938 1392.22C743.938 1392.17 743.914 1392.15 743.866 1392.15C743.77 1392.15 743.722 1392.17 743.722 1392.22C740.938 1396.25 736.81 1398.27 731.338 1398.27ZM769.062 1396.47C768.342 1397.19 767.454 1397.55 766.398 1397.55C765.342 1397.55 764.43 1397.19 763.662 1396.47C762.942 1395.75 762.582 1394.86 762.582 1393.81V1363.64C762.582 1362.68 762.918 1361.86 763.59 1361.19C764.31 1360.47 765.15 1360.11 766.11 1360.11C767.07 1360.11 767.886 1360.47 768.558 1361.19C769.278 1361.86 769.662 1362.68 769.71 1363.64L769.782 1364.72C769.782 1364.77 769.806 1364.79 769.854 1364.79C769.902 1364.79 769.95 1364.77 769.998 1364.72C773.406 1361.17 777.294 1359.39 781.662 1359.39C786.03 1359.39 789.222 1360.64 791.238 1363.13C793.254 1365.58 794.262 1369.61 794.262 1375.23V1393.88C794.262 1394.89 793.902 1395.75 793.182 1396.47C792.462 1397.19 791.598 1397.55 790.59 1397.55C789.582 1397.55 788.694 1397.19 787.926 1396.47C787.206 1395.75 786.846 1394.89 786.846 1393.88V1376.31C786.846 1371.99 786.318 1369.06 785.262 1367.53C784.206 1365.94 782.286 1365.15 779.502 1365.15C777.246 1365.15 775.11 1366.16 773.094 1368.17C771.126 1370.14 770.142 1372.25 770.142 1374.51V1393.81C770.142 1394.86 769.782 1395.75 769.062 1396.47ZM808.237 1347.51C808.237 1346.41 808.621 1345.47 809.389 1344.7C810.205 1343.93 811.141 1343.55 812.197 1343.55C813.253 1343.55 814.165 1343.93 814.933 1344.7C815.749 1345.47 816.157 1346.41 816.157 1347.51C816.157 1348.61 815.749 1349.55 814.933 1350.32C814.165 1351.09 813.253 1351.47 812.197 1351.47C811.141 1351.47 810.205 1351.09 809.389 1350.32C808.621 1349.55 808.237 1348.61 808.237 1347.51ZM814.933 1396.4C814.165 1397.17 813.253 1397.55 812.197 1397.55C811.141 1397.55 810.205 1397.17 809.389 1396.4C808.621 1395.63 808.237 1394.69 808.237 1393.59V1364.07C808.237 1362.97 808.621 1362.03 809.389 1361.26C810.205 1360.49 811.141 1360.11 812.197 1360.11C813.253 1360.11 814.165 1360.49 814.933 1361.26C815.749 1362.03 816.157 1362.97 816.157 1364.07V1393.59C816.157 1394.69 815.749 1395.63 814.933 1396.4ZM844.901 1365.01C839.429 1365.01 836.357 1368.25 835.685 1374.73C835.589 1375.16 835.781 1375.37 836.261 1375.37H852.389C852.773 1375.37 852.965 1375.16 852.965 1374.73C852.677 1368.25 849.989 1365.01 844.901 1365.01ZM846.701 1398.27C840.701 1398.27 836.069 1396.64 832.805 1393.37C829.589 1390.11 827.981 1385.26 827.981 1378.83C827.981 1372.4 829.421 1367.55 832.301 1364.29C835.229 1361.02 839.429 1359.39 844.901 1359.39C854.885 1359.39 860.045 1365.25 860.381 1376.96C860.429 1378.11 860.021 1379.07 859.157 1379.84C858.293 1380.61 857.285 1380.99 856.133 1380.99H836.189C835.805 1380.99 835.613 1381.18 835.613 1381.57C836.189 1388.96 840.125 1392.65 847.421 1392.65C849.965 1392.65 852.461 1392.25 854.909 1391.43C855.629 1391.19 856.301 1391.29 856.925 1391.72C857.549 1392.15 857.861 1392.75 857.861 1393.52C857.861 1394.43 857.573 1395.25 856.997 1395.97C856.421 1396.69 855.677 1397.17 854.765 1397.41C852.125 1397.98 849.437 1398.27 846.701 1398.27ZM914.139 1398.27C906.747 1398.27 900.699 1395.82 895.995 1390.93C891.291 1386.03 888.939 1379.48 888.939 1371.27C888.939 1362.92 891.315 1356.34 896.067 1351.54C900.819 1346.69 907.323 1344.27 915.579 1344.27C918.939 1344.27 922.035 1344.51 924.867 1344.99C925.827 1345.18 926.619 1345.66 927.243 1346.43C927.867 1347.2 928.179 1348.09 928.179 1349.09C928.179 1349.91 927.843 1350.58 927.171 1351.11C926.499 1351.59 925.755 1351.73 924.939 1351.54C922.395 1350.92 919.515 1350.61 916.299 1350.61C910.107 1350.61 905.331 1352.38 901.971 1355.93C898.659 1359.44 897.003 1364.55 897.003 1371.27C897.003 1377.7 898.635 1382.77 901.899 1386.46C905.163 1390.11 909.483 1391.93 914.859 1391.93C917.547 1391.93 920.139 1391.55 922.635 1390.78C922.971 1390.73 923.139 1390.49 923.139 1390.06V1373.29C923.139 1372.85 922.923 1372.64 922.491 1372.64H910.755C909.891 1372.64 909.147 1372.35 908.523 1371.77C907.947 1371.15 907.659 1370.41 907.659 1369.54C907.659 1368.68 907.947 1367.96 908.523 1367.38C909.147 1366.76 909.891 1366.45 910.755 1366.45H926.595C927.699 1366.45 928.659 1366.85 929.475 1367.67C930.291 1368.49 930.699 1369.45 930.699 1370.55V1390.93C930.699 1392.17 930.339 1393.33 929.619 1394.38C928.947 1395.39 928.035 1396.09 926.883 1396.47C923.139 1397.67 918.891 1398.27 914.139 1398.27ZM949.659 1396.4C948.891 1397.17 947.955 1397.55 946.851 1397.55C945.747 1397.55 944.811 1397.17 944.043 1396.4C943.275 1395.63 942.891 1394.69 942.891 1393.59V1363.85C942.891 1362.8 943.251 1361.91 943.971 1361.19C944.691 1360.47 945.579 1360.11 946.635 1360.11C947.691 1360.11 948.579 1360.47 949.299 1361.19C950.067 1361.91 950.451 1362.8 950.451 1363.85V1367.24C950.451 1367.29 950.475 1367.31 950.523 1367.31C950.619 1367.31 950.667 1367.29 950.667 1367.24C952.107 1365.27 954.027 1363.66 956.427 1362.41C958.827 1361.12 961.443 1360.37 964.275 1360.18C965.139 1360.13 965.859 1360.4 966.435 1360.97C967.059 1361.55 967.371 1362.27 967.371 1363.13C967.371 1364 967.059 1364.74 966.435 1365.37C965.859 1365.94 965.139 1366.25 964.275 1366.3C959.667 1366.49 956.259 1367.69 954.051 1369.9C951.891 1372.06 950.811 1375.28 950.811 1379.55V1393.59C950.811 1394.69 950.427 1395.63 949.659 1396.4ZM990.723 1365.01C985.251 1365.01 982.179 1368.25 981.507 1374.73C981.411 1375.16 981.603 1375.37 982.083 1375.37H998.211C998.595 1375.37 998.787 1375.16 998.787 1374.73C998.499 1368.25 995.811 1365.01 990.723 1365.01ZM992.523 1398.27C986.523 1398.27 981.891 1396.64 978.627 1393.37C975.411 1390.11 973.803 1385.26 973.803 1378.83C973.803 1372.4 975.243 1367.55 978.123 1364.29C981.051 1361.02 985.251 1359.39 990.723 1359.39C1000.71 1359.39 1005.87 1365.25 1006.2 1376.96C1006.25 1378.11 1005.84 1379.07 1004.98 1379.84C1004.12 1380.61 1003.11 1380.99 1001.96 1380.99H982.011C981.627 1380.99 981.435 1381.18 981.435 1381.57C982.011 1388.96 985.947 1392.65 993.243 1392.65C995.787 1392.65 998.283 1392.25 1000.73 1391.43C1001.45 1391.19 1002.12 1391.29 1002.75 1391.72C1003.37 1392.15 1003.68 1392.75 1003.68 1393.52C1003.68 1394.43 1003.4 1395.25 1002.82 1395.97C1002.24 1396.69 1001.5 1397.17 1000.59 1397.41C997.947 1397.98 995.259 1398.27 992.523 1398.27ZM1030.98 1365.01C1025.5 1365.01 1022.43 1368.25 1021.76 1374.73C1021.66 1375.16 1021.86 1375.37 1022.34 1375.37H1038.46C1038.85 1375.37 1039.04 1375.16 1039.04 1374.73C1038.75 1368.25 1036.06 1365.01 1030.98 1365.01ZM1032.78 1398.27C1026.78 1398.27 1022.14 1396.64 1018.88 1393.37C1015.66 1390.11 1014.06 1385.26 1014.06 1378.83C1014.06 1372.4 1015.5 1367.55 1018.38 1364.29C1021.3 1361.02 1025.5 1359.39 1030.98 1359.39C1040.96 1359.39 1046.12 1365.25 1046.46 1376.96C1046.5 1378.11 1046.1 1379.07 1045.23 1379.84C1044.37 1380.61 1043.36 1380.99 1042.21 1380.99H1022.26C1021.88 1380.99 1021.69 1381.18 1021.69 1381.57C1022.26 1388.96 1026.2 1392.65 1033.5 1392.65C1036.04 1392.65 1038.54 1392.25 1040.98 1391.43C1041.7 1391.19 1042.38 1391.29 1043 1391.72C1043.62 1392.15 1043.94 1392.75 1043.94 1393.52C1043.94 1394.43 1043.65 1395.25 1043.07 1395.97C1042.5 1396.69 1041.75 1397.17 1040.84 1397.41C1038.2 1397.98 1035.51 1398.27 1032.78 1398.27ZM1062.61 1396.47C1061.89 1397.19 1061 1397.55 1059.94 1397.55C1058.89 1397.55 1057.97 1397.19 1057.21 1396.47C1056.49 1395.75 1056.13 1394.86 1056.13 1393.81V1363.64C1056.13 1362.68 1056.46 1361.86 1057.13 1361.19C1057.85 1360.47 1058.69 1360.11 1059.65 1360.11C1060.61 1360.11 1061.43 1360.47 1062.1 1361.19C1062.82 1361.86 1063.21 1362.68 1063.25 1363.64L1063.33 1364.72C1063.33 1364.77 1063.35 1364.79 1063.4 1364.79C1063.45 1364.79 1063.49 1364.77 1063.54 1364.72C1066.95 1361.17 1070.84 1359.39 1075.21 1359.39C1079.57 1359.39 1082.77 1360.64 1084.78 1363.13C1086.8 1365.58 1087.81 1369.61 1087.81 1375.23V1393.88C1087.81 1394.89 1087.45 1395.75 1086.73 1396.47C1086.01 1397.19 1085.14 1397.55 1084.13 1397.55C1083.13 1397.55 1082.24 1397.19 1081.47 1396.47C1080.75 1395.75 1080.39 1394.89 1080.39 1393.88V1376.31C1080.39 1371.99 1079.86 1369.06 1078.81 1367.53C1077.75 1365.94 1075.83 1365.15 1073.05 1365.15C1070.79 1365.15 1068.65 1366.16 1066.64 1368.17C1064.67 1370.14 1063.69 1372.25 1063.69 1374.51V1393.81C1063.69 1394.86 1063.33 1395.75 1062.61 1396.47ZM1113.66 1365.01C1108.19 1365.01 1105.12 1368.25 1104.44 1374.73C1104.35 1375.16 1104.54 1375.37 1105.02 1375.37H1121.15C1121.53 1375.37 1121.72 1375.16 1121.72 1374.73C1121.44 1368.25 1118.75 1365.01 1113.66 1365.01ZM1115.46 1398.27C1109.46 1398.27 1104.83 1396.64 1101.56 1393.37C1098.35 1390.11 1096.74 1385.26 1096.74 1378.83C1096.74 1372.4 1098.18 1367.55 1101.06 1364.29C1103.99 1361.02 1108.19 1359.39 1113.66 1359.39C1123.64 1359.39 1128.8 1365.25 1129.14 1376.96C1129.19 1378.11 1128.78 1379.07 1127.92 1379.84C1127.05 1380.61 1126.04 1380.99 1124.89 1380.99H1104.95C1104.56 1380.99 1104.37 1381.18 1104.37 1381.57C1104.95 1388.96 1108.88 1392.65 1116.18 1392.65C1118.72 1392.65 1121.22 1392.25 1123.67 1391.43C1124.39 1391.19 1125.06 1391.29 1125.68 1391.72C1126.31 1392.15 1126.62 1392.75 1126.62 1393.52C1126.62 1394.43 1126.33 1395.25 1125.76 1395.97C1125.18 1396.69 1124.44 1397.17 1123.52 1397.41C1120.88 1397.98 1118.2 1398.27 1115.46 1398.27Z" fill="#2D6A6E"/>
<rect x="132" y="1183.55" width="1505.95" height="374.55" rx="69" stroke="#2D6A6E" stroke-width="6"/>
<path d="M1509 1346.55H1443M1467 1364.55V1388.55M1485 1364.55V1388.55M1503 1346.55V1403.55C1503 1404.35 1502.68 1405.11 1502.12 1405.67C1501.56 1406.23 1500.8 1406.55 1500 1406.55H1452C1451.2 1406.55 1450.44 1406.23 1449.88 1405.67C1449.32 1405.11 1449 1404.35 1449 1403.55V1346.55M1491 1346.55V1340.55C1491 1338.96 1490.37 1337.43 1489.24 1336.31C1488.12 1335.18 1486.59 1334.55 1485 1334.55H1467C1465.41 1334.55 1463.88 1335.18 1462.76 1336.31C1461.63 1337.43 1461 1338.96 1461 1340.55V1346.55" stroke="#903131" stroke-width="6" stroke-linecap="round" stroke-linejoin="round"/>
<path d="M273.29 1873.32C279.592 1860.9 289.207 1850.48 301.07 1843.2C312.933 1835.92 326.58 1832.06 340.5 1832.06C354.419 1832.06 368.067 1835.92 379.93 1843.2C391.793 1850.48 401.408 1860.9 407.709 1873.32M441 1798.6C441 1854.1 396.005 1899.1 340.5 1899.1C284.995 1899.1 240 1854.1 240 1798.6C240 1743.09 284.995 1698.1 340.5 1698.1C396.005 1698.1 441 1743.09 441 1798.6ZM382.375 1790.22C382.375 1813.35 363.627 1832.1 340.5 1832.1C317.373 1832.1 298.625 1813.35 298.625 1790.22C298.625 1767.1 317.373 1748.35 340.5 1748.35C363.627 1748.35 382.375 1767.1 382.375 1790.22Z" stroke="#2D6A6E" stroke-width="7" stroke-linecap="round" stroke-linejoin="round"/>
<path d="M525.816 1822.14L516.384 1777.5C516.192 1776.49 516.408 1775.58 517.032 1774.76C517.656 1773.95 518.496 1773.54 519.552 1773.54C520.704 1773.54 521.736 1773.92 522.648 1774.69C523.56 1775.41 524.112 1776.35 524.304 1777.5L531.432 1817.39C531.432 1817.44 531.456 1817.46 531.504 1817.46C531.552 1817.46 531.576 1817.44 531.576 1817.39L538.704 1777.57C538.944 1776.42 539.496 1775.46 540.36 1774.69C541.272 1773.92 542.328 1773.54 543.528 1773.54H545.4C546.6 1773.54 547.656 1773.92 548.568 1774.69C549.48 1775.46 550.032 1776.42 550.224 1777.57L557.352 1817.39C557.352 1817.44 557.376 1817.46 557.424 1817.46C557.472 1817.46 557.496 1817.44 557.496 1817.39L564.624 1777.36C564.816 1776.25 565.344 1775.34 566.208 1774.62C567.12 1773.9 568.128 1773.54 569.232 1773.54C570.24 1773.54 571.056 1773.95 571.68 1774.76C572.352 1775.53 572.568 1776.4 572.328 1777.36L562.824 1822.14C562.584 1823.29 561.984 1824.25 561.024 1825.02C560.112 1825.74 559.056 1826.1 557.856 1826.1H556.344C555.144 1826.1 554.088 1825.72 553.176 1824.95C552.312 1824.18 551.76 1823.22 551.52 1822.07L544.392 1782.25C544.392 1782.2 544.368 1782.18 544.32 1782.18C544.272 1782.18 544.248 1782.2 544.248 1782.25L537.12 1822.07C536.928 1823.22 536.376 1824.18 535.464 1824.95C534.552 1825.72 533.496 1826.1 532.296 1826.1H530.784C529.584 1826.1 528.504 1825.74 527.544 1825.02C526.632 1824.25 526.056 1823.29 525.816 1822.14ZM592.594 1793.56C587.122 1793.56 584.05 1796.8 583.378 1803.28C583.282 1803.71 583.474 1803.92 583.954 1803.92H600.082C600.466 1803.92 600.658 1803.71 600.658 1803.28C600.37 1796.8 597.682 1793.56 592.594 1793.56ZM594.394 1826.82C588.394 1826.82 583.762 1825.19 580.498 1821.92C577.282 1818.66 575.674 1813.81 575.674 1807.38C575.674 1800.95 577.114 1796.1 579.994 1792.84C582.922 1789.57 587.122 1787.94 592.594 1787.94C602.578 1787.94 607.738 1793.8 608.074 1805.51C608.122 1806.66 607.714 1807.62 606.85 1808.39C605.986 1809.16 604.978 1809.54 603.826 1809.54H583.882C583.498 1809.54 583.306 1809.73 583.306 1810.12C583.882 1817.51 587.818 1821.2 595.114 1821.2C597.658 1821.2 600.154 1820.8 602.602 1819.98C603.322 1819.74 603.994 1819.84 604.618 1820.27C605.242 1820.7 605.554 1821.3 605.554 1822.07C605.554 1822.98 605.266 1823.8 604.69 1824.52C604.114 1825.24 603.37 1825.72 602.458 1825.96C599.818 1826.53 597.13 1826.82 594.394 1826.82ZM624.224 1825.02C623.504 1825.74 622.616 1826.1 621.56 1826.1C620.504 1826.1 619.592 1825.74 618.824 1825.02C618.104 1824.3 617.744 1823.41 617.744 1822.36V1792.19C617.744 1791.23 618.08 1790.41 618.752 1789.74C619.472 1789.02 620.312 1788.66 621.272 1788.66C622.232 1788.66 623.048 1789.02 623.72 1789.74C624.44 1790.41 624.824 1791.23 624.872 1792.19L624.944 1793.27C624.944 1793.32 624.968 1793.34 625.016 1793.34C625.064 1793.34 625.112 1793.32 625.16 1793.27C628.568 1789.72 632.456 1787.94 636.824 1787.94C641.192 1787.94 644.384 1789.19 646.4 1791.68C648.416 1794.13 649.424 1798.16 649.424 1803.78V1822.43C649.424 1823.44 649.064 1824.3 648.344 1825.02C647.624 1825.74 646.76 1826.1 645.752 1826.1C644.744 1826.1 643.856 1825.74 643.088 1825.02C642.368 1824.3 642.008 1823.44 642.008 1822.43V1804.86C642.008 1800.54 641.48 1797.61 640.424 1796.08C639.368 1794.49 637.448 1793.7 634.664 1793.7C632.408 1793.7 630.272 1794.71 628.256 1796.72C626.288 1798.69 625.304 1800.8 625.304 1803.06V1822.36C625.304 1823.41 624.944 1824.3 624.224 1825.02ZM675.639 1793.7C669.399 1793.7 666.279 1798.26 666.279 1807.38C666.279 1811.99 667.095 1815.42 668.727 1817.68C670.407 1819.93 672.711 1821.06 675.639 1821.06C678.183 1821.06 680.367 1820.22 682.191 1818.54C684.063 1816.86 684.999 1814.94 684.999 1812.78V1801.98C684.999 1799.82 684.063 1797.9 682.191 1796.22C680.367 1794.54 678.183 1793.7 675.639 1793.7ZM673.839 1826.82C669.471 1826.82 665.847 1825.07 662.967 1821.56C660.135 1818.06 658.719 1813.33 658.719 1807.38C658.719 1801.24 660.087 1796.46 662.823 1793.05C665.607 1789.64 669.279 1787.94 673.839 1787.94C678.111 1787.94 681.759 1789.48 684.783 1792.55C684.831 1792.6 684.879 1792.62 684.927 1792.62C684.975 1792.62 684.999 1792.6 684.999 1792.55V1775.84C684.999 1774.79 685.359 1773.9 686.079 1773.18C686.847 1772.46 687.759 1772.1 688.815 1772.1C689.871 1772.1 690.759 1772.46 691.479 1773.18C692.199 1773.9 692.559 1774.79 692.559 1775.84V1822.57C692.559 1823.53 692.199 1824.37 691.479 1825.09C690.807 1825.76 689.991 1826.1 689.031 1826.1C688.071 1826.1 687.231 1825.76 686.511 1825.09C685.839 1824.37 685.479 1823.53 685.431 1822.57L685.359 1821.49C685.359 1821.44 685.335 1821.42 685.287 1821.42C685.239 1821.42 685.191 1821.44 685.143 1821.49C683.367 1823.46 681.615 1824.85 679.887 1825.67C678.159 1826.44 676.143 1826.82 673.839 1826.82ZM714.293 1825.52L702.485 1792.4C702.149 1791.49 702.269 1790.65 702.845 1789.88C703.421 1789.07 704.189 1788.66 705.149 1788.66C706.349 1788.66 707.429 1789.02 708.389 1789.74C709.349 1790.41 709.997 1791.3 710.333 1792.4L718.397 1817.39C718.397 1817.44 718.421 1817.46 718.469 1817.46C718.517 1817.46 718.541 1817.44 718.541 1817.39L727.541 1792.26C727.973 1791.16 728.645 1790.29 729.557 1789.67C730.469 1789 731.501 1788.66 732.653 1788.66C733.565 1788.66 734.261 1789.04 734.741 1789.81C735.269 1790.53 735.365 1791.32 735.029 1792.19L716.669 1838.41C716.237 1839.47 715.541 1840.31 714.581 1840.93C713.621 1841.6 712.565 1841.94 711.413 1841.94C710.549 1841.94 709.853 1841.56 709.325 1840.79C708.845 1840.02 708.773 1839.23 709.109 1838.41L714.293 1826.68C714.389 1826.48 714.437 1826.29 714.437 1826.1C714.437 1825.91 714.389 1825.72 714.293 1825.52ZM779.513 1802.7C774.041 1800.83 770.081 1798.6 767.633 1796C765.233 1793.36 764.033 1790.2 764.033 1786.5C764.033 1782.28 765.377 1778.94 768.065 1776.49C770.753 1774.04 774.449 1772.82 779.153 1772.82C783.569 1772.82 787.457 1773.35 790.817 1774.4C791.825 1774.74 792.641 1775.39 793.265 1776.35C793.937 1777.26 794.273 1778.29 794.273 1779.44C794.273 1780.26 793.913 1780.88 793.193 1781.32C792.473 1781.75 791.729 1781.8 790.961 1781.46C787.313 1779.92 783.617 1779.16 779.873 1779.16C777.281 1779.16 775.289 1779.8 773.897 1781.1C772.505 1782.4 771.809 1784.2 771.809 1786.5C771.809 1788.37 772.457 1790.08 773.753 1791.61C775.049 1793.1 776.969 1794.28 779.513 1795.14C785.849 1797.25 790.241 1799.6 792.689 1802.2C795.185 1804.79 796.433 1808.08 796.433 1812.06C796.433 1816.91 794.945 1820.58 791.969 1823.08C788.993 1825.57 784.601 1826.82 778.793 1826.82C775.001 1826.82 771.569 1826.24 768.497 1825.09C766.241 1824.18 765.113 1822.4 765.113 1819.76C765.113 1818.95 765.473 1818.35 766.193 1817.96C766.913 1817.58 767.633 1817.58 768.353 1817.96C771.329 1819.55 774.569 1820.34 778.073 1820.34C785.033 1820.34 788.513 1817.58 788.513 1812.06C788.513 1809.95 787.817 1808.15 786.425 1806.66C785.081 1805.17 782.777 1803.85 779.513 1802.7ZM812.899 1825.02C812.179 1825.74 811.291 1826.1 810.235 1826.1C809.179 1826.1 808.291 1825.74 807.571 1825.02C806.851 1824.3 806.491 1823.41 806.491 1822.36V1792.26C806.491 1791.25 806.827 1790.41 807.499 1789.74C808.219 1789.02 809.083 1788.66 810.091 1788.66C811.099 1788.66 811.963 1789.02 812.683 1789.74C813.403 1790.41 813.787 1791.25 813.835 1792.26V1792.91C813.835 1792.96 813.859 1792.98 813.907 1792.98C814.003 1792.98 814.051 1792.96 814.051 1792.91C816.883 1789.6 820.003 1787.94 823.411 1787.94C825.523 1787.94 827.227 1788.37 828.523 1789.24C829.819 1790.1 830.947 1791.56 831.907 1793.63C831.907 1793.68 831.955 1793.7 832.051 1793.7C832.099 1793.7 832.147 1793.68 832.195 1793.63C835.027 1789.84 838.387 1787.94 842.275 1787.94C846.211 1787.94 849.019 1789.02 850.699 1791.18C852.427 1793.29 853.291 1797.01 853.291 1802.34V1822.36C853.291 1823.36 852.907 1824.25 852.139 1825.02C851.419 1825.74 850.555 1826.1 849.547 1826.1C848.539 1826.1 847.675 1825.74 846.955 1825.02C846.235 1824.25 845.875 1823.36 845.875 1822.36V1804.5C845.875 1800.13 845.467 1797.25 844.651 1795.86C843.835 1794.42 842.323 1793.7 840.115 1793.7C838.723 1793.7 837.283 1794.42 835.795 1795.86C834.355 1797.3 833.635 1798.74 833.635 1800.18V1822.36C833.635 1823.36 833.275 1824.25 832.555 1825.02C831.835 1825.74 830.971 1826.1 829.963 1826.1C828.955 1826.1 828.067 1825.74 827.299 1825.02C826.579 1824.25 826.219 1823.36 826.219 1822.36V1804.5C826.219 1800.13 825.811 1797.25 824.995 1795.86C824.179 1794.42 822.667 1793.7 820.459 1793.7C819.067 1793.7 817.651 1794.42 816.211 1795.86C814.771 1797.3 814.051 1798.74 814.051 1800.18V1822.36C814.051 1823.41 813.667 1824.3 812.899 1825.02ZM867.263 1776.06C867.263 1774.96 867.647 1774.02 868.415 1773.25C869.231 1772.48 870.167 1772.1 871.223 1772.1C872.279 1772.1 873.191 1772.48 873.959 1773.25C874.775 1774.02 875.183 1774.96 875.183 1776.06C875.183 1777.16 874.775 1778.1 873.959 1778.87C873.191 1779.64 872.279 1780.02 871.223 1780.02C870.167 1780.02 869.231 1779.64 868.415 1778.87C867.647 1778.1 867.263 1777.16 867.263 1776.06ZM873.959 1824.95C873.191 1825.72 872.279 1826.1 871.223 1826.1C870.167 1826.1 869.231 1825.72 868.415 1824.95C867.647 1824.18 867.263 1823.24 867.263 1822.14V1792.62C867.263 1791.52 867.647 1790.58 868.415 1789.81C869.231 1789.04 870.167 1788.66 871.223 1788.66C872.279 1788.66 873.191 1789.04 873.959 1789.81C874.775 1790.58 875.183 1791.52 875.183 1792.62V1822.14C875.183 1823.24 874.775 1824.18 873.959 1824.95ZM890.607 1795.86C889.791 1795.86 889.095 1795.57 888.519 1795C887.991 1794.42 887.727 1793.75 887.727 1792.98C887.727 1792.21 887.991 1791.54 888.519 1790.96C889.095 1790.39 889.791 1790.1 890.607 1790.1H894.639C895.071 1790.1 895.287 1789.88 895.287 1789.45V1780.16C895.287 1779.11 895.647 1778.22 896.367 1777.5C897.087 1776.78 897.975 1776.42 899.031 1776.42C900.087 1776.42 900.975 1776.78 901.695 1777.5C902.463 1778.22 902.847 1779.11 902.847 1780.16V1789.45C902.847 1789.88 903.063 1790.1 903.495 1790.1H912.927C913.743 1790.1 914.415 1790.39 914.943 1790.96C915.519 1791.54 915.807 1792.21 915.807 1792.98C915.807 1793.75 915.519 1794.42 914.943 1795C914.415 1795.57 913.743 1795.86 912.927 1795.86H903.495C903.063 1795.86 902.847 1796.08 902.847 1796.51V1813.14C902.847 1816.4 903.231 1818.54 903.999 1819.55C904.767 1820.56 906.303 1821.06 908.607 1821.06C909.711 1821.06 910.767 1820.99 911.775 1820.84C912.543 1820.75 913.215 1820.92 913.791 1821.35C914.415 1821.78 914.727 1822.36 914.727 1823.08C914.727 1823.94 914.439 1824.71 913.863 1825.38C913.287 1826.05 912.567 1826.44 911.703 1826.53C909.687 1826.72 908.175 1826.82 907.167 1826.82C902.751 1826.82 899.655 1825.88 897.879 1824.01C896.151 1822.14 895.287 1818.76 895.287 1813.86V1796.51C895.287 1796.08 895.071 1795.86 894.639 1795.86H890.607ZM934.368 1825.02C933.648 1825.74 932.76 1826.1 931.704 1826.1C930.648 1826.1 929.76 1825.74 929.04 1825.02C928.32 1824.3 927.96 1823.41 927.96 1822.36V1775.84C927.96 1774.79 928.32 1773.9 929.04 1773.18C929.76 1772.46 930.648 1772.1 931.704 1772.1C932.76 1772.1 933.648 1772.46 934.368 1773.18C935.136 1773.9 935.52 1774.79 935.52 1775.84V1793.27C935.52 1793.32 935.544 1793.34 935.592 1793.34C935.64 1793.34 935.688 1793.32 935.736 1793.27C939.096 1789.72 942.864 1787.94 947.04 1787.94C951.408 1787.94 954.6 1789.16 956.616 1791.61C958.632 1794.01 959.64 1798.07 959.64 1803.78V1822.43C959.64 1823.44 959.28 1824.3 958.56 1825.02C957.84 1825.74 956.976 1826.1 955.968 1826.1C954.96 1826.1 954.096 1825.74 953.376 1825.02C952.656 1824.3 952.296 1823.44 952.296 1822.43V1805.22C952.296 1800.76 951.768 1797.78 950.712 1796.29C949.656 1794.8 947.712 1794.06 944.88 1794.06C942.672 1794.06 940.56 1795.12 938.544 1797.23C936.528 1799.29 935.52 1801.48 935.52 1803.78V1822.36C935.52 1823.41 935.136 1824.3 934.368 1825.02Z" fill="#2D6A6E"/>
<rect x="132" y="1612.1" width="1505.95" height="374.55" rx="69" stroke="#2D6A6E" stroke-width="6"/>
<path d="M1509 1766.1H1443M1467 1784.1V1808.1M1485 1784.1V1808.1M1503 1766.1V1823.1C1503 1823.9 1502.68 1824.66 1502.12 1825.22C1501.56 1825.78 1500.8 1826.1 1500 1826.1H1452C1451.2 1826.1 1450.44 1825.78 1449.88 1825.22C1449.32 1824.66 1449 1823.9 1449 1823.1V1766.1M1491 1766.1V1760.1C1491 1758.51 1490.37 1756.98 1489.24 1755.86C1488.12 1754.73 1486.59 1754.1 1485 1754.1H1467C1465.41 1754.1 1463.88 1754.73 1462.76 1755.86C1461.63 1756.98 1461 1758.51 1461 1760.1V1766.1" stroke="#903131" stroke-width="6" stroke-linecap="round" stroke-linejoin="round"/>
<path d="M273.29 2301.86C279.592 2289.45 289.207 2279.03 301.07 2271.75C312.933 2264.47 326.58 2260.61 340.5 2260.61C354.419 2260.61 368.067 2264.47 379.93 2271.75C391.793 2279.03 401.408 2289.45 407.709 2301.86M441 2227.15C441 2282.65 396.005 2327.65 340.5 2327.65C284.995 2327.65 240 2282.65 240 2227.15C240 2171.64 284.995 2126.65 340.5 2126.65C396.005 2126.65 441 2171.64 441 2227.15ZM382.375 2218.77C382.375 2241.9 363.627 2260.65 340.5 2260.65C317.373 2260.65 298.625 2241.9 298.625 2218.77C298.625 2195.65 317.373 2176.9 340.5 2176.9C363.627 2176.9 382.375 2195.65 382.375 2218.77Z" stroke="#2D6A6E" stroke-width="7" stroke-linecap="round" stroke-linejoin="round"/>
<path d="M525.384 2253.57C524.664 2254.29 523.776 2254.65 522.72 2254.65C521.664 2254.65 520.752 2254.29 519.984 2253.57C519.264 2252.8 518.904 2251.89 518.904 2250.83V2205.91C518.904 2204.85 519.264 2203.96 519.984 2203.24C520.752 2202.47 521.664 2202.09 522.72 2202.09C525.264 2202.09 527.112 2203.22 528.264 2205.47L542.448 2232.98C542.448 2233.03 542.472 2233.05 542.52 2233.05C542.568 2233.05 542.592 2233.03 542.592 2232.98L556.704 2205.62C557.904 2203.27 559.824 2202.09 562.464 2202.09C563.568 2202.09 564.504 2202.47 565.272 2203.24C566.04 2204.01 566.424 2204.95 566.424 2206.05V2250.69C566.424 2251.79 566.04 2252.73 565.272 2253.5C564.504 2254.27 563.568 2254.65 562.464 2254.65C561.36 2254.65 560.424 2254.27 559.656 2253.5C558.888 2252.73 558.504 2251.79 558.504 2250.69V2215.84C558.504 2215.79 558.48 2215.77 558.432 2215.77C558.384 2215.77 558.36 2215.79 558.36 2215.84L547.704 2237.01C546.6 2239.17 544.872 2240.25 542.52 2240.25C540.168 2240.25 538.44 2239.17 537.336 2237.01L526.68 2215.84C526.68 2215.79 526.656 2215.77 526.608 2215.77C526.56 2215.77 526.536 2215.79 526.536 2215.84V2250.83C526.536 2251.89 526.152 2252.8 525.384 2253.57ZM593.368 2222.11C587.896 2222.11 584.824 2225.35 584.152 2231.83C584.056 2232.26 584.248 2232.47 584.728 2232.47H600.856C601.24 2232.47 601.432 2232.26 601.432 2231.83C601.144 2225.35 598.456 2222.11 593.368 2222.11ZM595.168 2255.37C589.168 2255.37 584.536 2253.74 581.272 2250.47C578.056 2247.21 576.448 2242.36 576.448 2235.93C576.448 2229.5 577.888 2224.65 580.768 2221.39C583.696 2218.12 587.896 2216.49 593.368 2216.49C603.352 2216.49 608.512 2222.35 608.848 2234.06C608.896 2235.21 608.488 2236.17 607.624 2236.94C606.76 2237.71 605.752 2238.09 604.6 2238.09H584.656C584.272 2238.09 584.08 2238.28 584.08 2238.67C584.656 2246.06 588.592 2249.75 595.888 2249.75C598.432 2249.75 600.928 2249.35 603.376 2248.53C604.096 2248.29 604.768 2248.39 605.392 2248.82C606.016 2249.25 606.328 2249.85 606.328 2250.62C606.328 2251.53 606.04 2252.35 605.464 2253.07C604.888 2253.79 604.144 2254.27 603.232 2254.51C600.592 2255.08 597.904 2255.37 595.168 2255.37Z" fill="#2D6A6E"/>
<rect x="132" y="2040.65" width="1505.95" height="374.55" rx="69" stroke="#2D6A6E" stroke-width="6"/>
<path d="M273.29 1016.22C279.592 1003.8 289.207 993.38 301.07 986.098C312.933 978.817 326.58 974.962 340.5 974.962C354.419 974.962 368.067 978.817 379.93 986.098C391.793 993.38 401.408 1003.8 407.709 1016.22M441 941.5C441 997.005 396.005 1042 340.5 1042C284.995 1042 240 997.005 240 941.5C240 885.995 284.995 841 340.5 841C396.005 841 441 885.995 441 941.5ZM382.375 933.125C382.375 956.252 363.627 975 340.5 975C317.373 975 298.625 956.252 298.625 933.125C298.625 909.998 317.373 891.25 340.5 891.25C363.627 891.25 382.375 909.998 382.375 933.125Z" stroke="#2D6A6E" stroke-width="7" stroke-linecap="round" stroke-linejoin="round"/>
<path d="M539.784 969.72C532.488 969.72 526.632 967.368 522.216 962.664C517.848 957.96 515.664 951.312 515.664 942.72C515.664 934.224 517.776 927.6 522 922.848C526.272 918.096 532.2 915.72 539.784 915.72C543.048 915.72 546.024 915.96 548.712 916.44C549.672 916.632 550.464 917.136 551.088 917.952C551.712 918.72 552.024 919.608 552.024 920.616C552.024 921.48 551.664 922.176 550.944 922.704C550.272 923.184 549.528 923.304 548.712 923.064C546.456 922.488 543.72 922.2 540.504 922.2C535.32 922.2 531.216 924 528.192 927.6C525.216 931.152 523.728 936.192 523.728 942.72C523.728 949.248 525.264 954.312 528.336 957.912C531.408 961.464 535.464 963.24 540.504 963.24C543.672 963.24 546.528 962.928 549.072 962.304C549.888 962.064 550.632 962.208 551.304 962.736C552.024 963.264 552.384 963.96 552.384 964.824C552.384 965.832 552.072 966.744 551.448 967.56C550.824 968.328 550.008 968.808 549 969C546.168 969.48 543.096 969.72 539.784 969.72ZM581.491 950.136C577.555 950.136 574.579 950.808 572.563 952.152C570.595 953.448 569.611 955.224 569.611 957.48C569.611 959.256 570.139 960.72 571.195 961.872C572.251 963.024 573.523 963.6 575.011 963.6C578.179 963.6 580.699 962.616 582.571 960.648C584.491 958.632 585.451 955.896 585.451 952.44V950.712C585.451 950.328 585.235 950.136 584.803 950.136H581.491ZM573.211 969.72C569.947 969.72 567.259 968.664 565.147 966.552C563.083 964.44 562.051 961.656 562.051 958.2C562.051 953.976 563.659 950.712 566.875 948.408C570.091 946.056 574.963 944.88 581.491 944.88H584.803C585.235 944.88 585.451 944.664 585.451 944.232V943.44C585.451 940.896 584.851 939.12 583.651 938.112C582.451 937.104 580.291 936.6 577.171 936.6C574.387 936.6 571.075 937.176 567.235 938.328C566.515 938.568 565.819 938.472 565.147 938.04C564.523 937.56 564.211 936.936 564.211 936.168C564.211 935.208 564.499 934.344 565.075 933.576C565.651 932.808 566.395 932.328 567.307 932.136C570.763 931.272 574.051 930.84 577.171 930.84C583.219 930.84 587.371 931.92 589.627 934.08C591.883 936.24 593.011 940.2 593.011 945.96V965.472C593.011 966.432 592.651 967.272 591.931 967.992C591.259 968.664 590.443 969 589.483 969C588.523 969 587.683 968.664 586.963 967.992C586.291 967.272 585.931 966.432 585.883 965.472L585.811 963.672C585.811 963.624 585.787 963.6 585.739 963.6C585.643 963.6 585.595 963.624 585.595 963.672C582.811 967.704 578.683 969.72 573.211 969.72ZM615.991 953.16C611.095 951.96 607.639 950.448 605.623 948.624C603.655 946.752 602.671 944.424 602.671 941.64C602.671 938.28 603.871 935.64 606.271 933.72C608.719 931.8 612.319 930.84 617.071 930.84C620.143 930.84 623.239 931.176 626.359 931.848C627.223 932.04 627.919 932.52 628.447 933.288C629.023 934.008 629.311 934.824 629.311 935.736C629.311 936.504 628.999 937.104 628.375 937.536C627.751 937.968 627.079 938.064 626.359 937.824C623.335 937.008 620.479 936.6 617.791 936.6C612.751 936.6 610.231 938.04 610.231 940.92C610.231 942.36 610.711 943.536 611.671 944.448C612.631 945.36 614.311 946.104 616.711 946.68C622.231 947.976 625.951 949.536 627.871 951.36C629.791 953.136 630.751 955.776 630.751 959.28C630.751 962.544 629.479 965.112 626.935 966.984C624.439 968.808 620.791 969.72 615.991 969.72C612.871 969.72 609.751 969.312 606.631 968.496C605.767 968.256 605.071 967.776 604.543 967.056C604.015 966.288 603.751 965.448 603.751 964.536C603.751 963.816 604.039 963.24 604.615 962.808C605.239 962.376 605.887 962.28 606.559 962.52C609.535 963.48 612.439 963.96 615.271 963.96C620.551 963.96 623.191 962.4 623.191 959.28C623.191 957.792 622.663 956.592 621.607 955.68C620.551 954.72 618.679 953.88 615.991 953.16ZM653.01 953.16C648.114 951.96 644.658 950.448 642.642 948.624C640.674 946.752 639.69 944.424 639.69 941.64C639.69 938.28 640.89 935.64 643.29 933.72C645.738 931.8 649.338 930.84 654.09 930.84C657.162 930.84 660.258 931.176 663.378 931.848C664.242 932.04 664.938 932.52 665.466 933.288C666.042 934.008 666.33 934.824 666.33 935.736C666.33 936.504 666.018 937.104 665.394 937.536C664.77 937.968 664.098 938.064 663.378 937.824C660.354 937.008 657.498 936.6 654.81 936.6C649.77 936.6 647.25 938.04 647.25 940.92C647.25 942.36 647.73 943.536 648.69 944.448C649.65 945.36 651.33 946.104 653.73 946.68C659.25 947.976 662.97 949.536 664.89 951.36C666.81 953.136 667.77 955.776 667.77 959.28C667.77 962.544 666.498 965.112 663.954 966.984C661.458 968.808 657.81 969.72 653.01 969.72C649.89 969.72 646.77 969.312 643.65 968.496C642.786 968.256 642.09 967.776 641.562 967.056C641.034 966.288 640.77 965.448 640.77 964.536C640.77 963.816 641.058 963.24 641.634 962.808C642.258 962.376 642.906 962.28 643.578 962.52C646.554 963.48 649.458 963.96 652.29 963.96C657.57 963.96 660.21 962.4 660.21 959.28C660.21 957.792 659.682 956.592 658.626 955.68C657.57 954.72 655.698 953.88 653.01 953.16ZM681.011 918.96C681.011 917.856 681.395 916.92 682.163 916.152C682.979 915.384 683.915 915 684.971 915C686.027 915 686.939 915.384 687.707 916.152C688.523 916.92 688.931 917.856 688.931 918.96C688.931 920.064 688.523 921 687.707 921.768C686.939 922.536 686.027 922.92 684.971 922.92C683.915 922.92 682.979 922.536 682.163 921.768C681.395 921 681.011 920.064 681.011 918.96ZM687.707 967.848C686.939 968.616 686.027 969 684.971 969C683.915 969 682.979 968.616 682.163 967.848C681.395 967.08 681.011 966.144 681.011 965.04V935.52C681.011 934.416 681.395 933.48 682.163 932.712C682.979 931.944 683.915 931.56 684.971 931.56C686.027 931.56 686.939 931.944 687.707 932.712C688.523 933.48 688.931 934.416 688.931 935.52V965.04C688.931 966.144 688.523 967.08 687.707 967.848ZM717.675 936.456C712.203 936.456 709.131 939.696 708.459 946.176C708.363 946.608 708.555 946.824 709.035 946.824H725.163C725.547 946.824 725.739 946.608 725.739 946.176C725.451 939.696 722.763 936.456 717.675 936.456ZM719.475 969.72C713.475 969.72 708.843 968.088 705.579 964.824C702.363 961.56 700.755 956.712 700.755 950.28C700.755 943.848 702.195 939 705.075 935.736C708.003 932.472 712.203 930.84 717.675 930.84C727.659 930.84 732.819 936.696 733.155 948.408C733.203 949.56 732.795 950.52 731.931 951.288C731.067 952.056 730.059 952.44 728.907 952.44H708.963C708.579 952.44 708.387 952.632 708.387 953.016C708.963 960.408 712.899 964.104 720.195 964.104C722.739 964.104 725.235 963.696 727.683 962.88C728.403 962.64 729.075 962.736 729.699 963.168C730.323 963.6 730.635 964.2 730.635 964.968C730.635 965.88 730.347 966.696 729.771 967.416C729.195 968.136 728.451 968.616 727.539 968.856C724.899 969.432 722.211 969.72 719.475 969.72ZM785.833 969.72C778.537 969.72 772.681 967.368 768.265 962.664C763.897 957.96 761.713 951.312 761.713 942.72C761.713 934.224 763.825 927.6 768.049 922.848C772.321 918.096 778.249 915.72 785.833 915.72C789.097 915.72 792.073 915.96 794.761 916.44C795.721 916.632 796.513 917.136 797.137 917.952C797.761 918.72 798.073 919.608 798.073 920.616C798.073 921.48 797.713 922.176 796.993 922.704C796.321 923.184 795.577 923.304 794.761 923.064C792.505 922.488 789.769 922.2 786.553 922.2C781.369 922.2 777.265 924 774.241 927.6C771.265 931.152 769.777 936.192 769.777 942.72C769.777 949.248 771.313 954.312 774.385 957.912C777.457 961.464 781.513 963.24 786.553 963.24C789.721 963.24 792.577 962.928 795.121 962.304C795.937 962.064 796.681 962.208 797.353 962.736C798.073 963.264 798.433 963.96 798.433 964.824C798.433 965.832 798.121 966.744 797.497 967.56C796.873 968.328 796.057 968.808 795.049 969C792.217 969.48 789.145 969.72 785.833 969.72ZM817.37 967.92C816.65 968.64 815.762 969 814.706 969C813.65 969 812.762 968.64 812.042 967.92C811.322 967.2 810.962 966.312 810.962 965.256V918.744C810.962 917.688 811.322 916.8 812.042 916.08C812.762 915.36 813.65 915 814.706 915C815.762 915 816.65 915.36 817.37 916.08C818.138 916.8 818.522 917.688 818.522 918.744V936.168C818.522 936.216 818.546 936.24 818.594 936.24C818.642 936.24 818.69 936.216 818.738 936.168C822.098 932.616 825.866 930.84 830.042 930.84C834.41 930.84 837.602 932.064 839.618 934.512C841.634 936.912 842.642 940.968 842.642 946.68V965.328C842.642 966.336 842.282 967.2 841.562 967.92C840.842 968.64 839.978 969 838.97 969C837.962 969 837.098 968.64 836.378 967.92C835.658 967.2 835.298 966.336 835.298 965.328V948.12C835.298 943.656 834.77 940.68 833.714 939.192C832.658 937.704 830.714 936.96 827.882 936.96C825.674 936.96 823.562 938.016 821.546 940.128C819.53 942.192 818.522 944.376 818.522 946.68V965.256C818.522 966.312 818.138 967.2 817.37 967.92ZM879.145 950.28C879.145 941.16 875.833 936.6 869.209 936.6C862.585 936.6 859.273 941.16 859.273 950.28C859.273 959.4 862.585 963.96 869.209 963.96C875.833 963.96 879.145 959.4 879.145 950.28ZM882.169 964.68C879.049 968.04 874.729 969.72 869.209 969.72C863.689 969.72 859.369 968.04 856.249 964.68C853.129 961.272 851.569 956.472 851.569 950.28C851.569 944.088 853.129 939.312 856.249 935.952C859.369 932.544 863.689 930.84 869.209 930.84C874.729 930.84 879.049 932.544 882.169 935.952C885.289 939.312 886.849 944.088 886.849 950.28C886.849 956.472 885.289 961.272 882.169 964.68Z" fill="#2D6A6E"/>
<rect x="132" y="755" width="1505.95" height="374.55" rx="69" stroke="#2D6A6E" stroke-width="6"/>
<path d="M1509 918H1443M1467 936V960M1485 936V960M1503 918V975C1503 975.796 1502.68 976.559 1502.12 977.121C1501.56 977.684 1500.8 978 1500 978H1452C1451.2 978 1450.44 977.684 1449.88 977.121C1449.32 976.559 1449 975.796 1449 975V918M1491 918V912C1491 910.409 1490.37 908.883 1489.24 907.757C1488.12 906.632 1486.59 906 1485 906H1467C1465.41 906 1463.88 906.632 1462.76 907.757C1461.63 908.883 1461 910.409 1461 912V918" stroke="#903131" stroke-width="6" stroke-linecap="round" stroke-linejoin="round"/>
<rect x="359" y="2911" width="464.679" height="163" rx="27" fill="#2D6A6E" stroke="#2D6A6E" stroke-width="6"/>
<path d="M539.269 2996.2C534.405 2994.54 530.885 2992.55 528.709 2990.25C526.576 2987.9 525.509 2985.09 525.509 2981.8C525.509 2978.05 526.704 2975.08 529.093 2972.9C531.483 2970.73 534.768 2969.64 538.949 2969.64C542.875 2969.64 546.331 2970.11 549.317 2971.05C550.213 2971.35 550.939 2971.92 551.493 2972.78C552.091 2973.59 552.389 2974.5 552.389 2975.53C552.389 2976.25 552.069 2976.81 551.429 2977.19C550.789 2977.58 550.128 2977.62 549.445 2977.32C546.203 2975.95 542.917 2975.27 539.589 2975.27C537.285 2975.27 535.515 2975.85 534.277 2977C533.04 2978.15 532.421 2979.75 532.421 2981.8C532.421 2983.46 532.997 2984.98 534.149 2986.34C535.301 2987.67 537.008 2988.71 539.269 2989.48C544.901 2991.36 548.805 2993.45 550.981 2995.75C553.2 2998.06 554.309 3000.98 554.309 3004.52C554.309 3008.83 552.987 3012.09 550.341 3014.31C547.696 3016.53 543.792 3017.64 538.629 3017.64C535.259 3017.64 532.208 3017.13 529.477 3016.1C527.472 3015.29 526.469 3013.71 526.469 3011.37C526.469 3010.64 526.789 3010.11 527.429 3009.77C528.069 3009.43 528.709 3009.43 529.349 3009.77C531.995 3011.18 534.875 3011.88 537.989 3011.88C544.176 3011.88 547.269 3009.43 547.269 3004.52C547.269 3002.64 546.651 3001.04 545.413 2999.72C544.219 2998.4 542.171 2997.22 539.269 2996.2ZM578.929 3000.23C575.431 3000.23 572.785 3000.83 570.993 3002.02C569.244 3003.18 568.369 3004.75 568.369 3006.76C568.369 3008.34 568.839 3009.64 569.777 3010.66C570.716 3011.69 571.847 3012.2 573.169 3012.2C575.985 3012.2 578.225 3011.33 579.889 3009.58C581.596 3007.78 582.449 3005.35 582.449 3002.28V3000.74C582.449 3000.4 582.257 3000.23 581.873 3000.23H578.929ZM571.569 3017.64C568.668 3017.64 566.279 3016.7 564.401 3014.82C562.567 3012.95 561.649 3010.47 561.649 3007.4C561.649 3003.65 563.079 3000.74 565.937 2998.7C568.796 2996.61 573.127 2995.56 578.929 2995.56H581.873C582.257 2995.56 582.449 2995.37 582.449 2994.98V2994.28C582.449 2992.02 581.916 2990.44 580.849 2989.54C579.783 2988.65 577.863 2988.2 575.089 2988.2C572.615 2988.2 569.671 2988.71 566.257 2989.74C565.617 2989.95 564.999 2989.86 564.401 2989.48C563.847 2989.05 563.569 2988.5 563.569 2987.82C563.569 2986.96 563.825 2986.19 564.337 2985.51C564.849 2984.83 565.511 2984.4 566.321 2984.23C569.393 2983.46 572.316 2983.08 575.089 2983.08C580.465 2983.08 584.156 2984.04 586.161 2985.96C588.167 2987.88 589.169 2991.4 589.169 2996.52V3013.86C589.169 3014.72 588.849 3015.46 588.209 3016.1C587.612 3016.7 586.887 3017 586.033 3017C585.18 3017 584.433 3016.7 583.793 3016.1C583.196 3015.46 582.876 3014.72 582.833 3013.86L582.769 3012.26C582.769 3012.22 582.748 3012.2 582.705 3012.2C582.62 3012.2 582.577 3012.22 582.577 3012.26C580.103 3015.85 576.433 3017.64 571.569 3017.64ZM605.004 3013.54L596.108 2987.18C595.809 2986.32 595.916 2985.53 596.428 2984.81C596.982 2984.08 597.708 2983.72 598.604 2983.72C599.67 2983.72 600.63 2984.04 601.484 2984.68C602.38 2985.32 602.977 2986.15 603.276 2987.18L610.7 3013.1C610.7 3013.14 610.721 3013.16 610.764 3013.16C610.806 3013.16 610.828 3013.14 610.828 3013.1L618.316 2987.11C618.614 2986.13 619.169 2985.32 619.98 2984.68C620.833 2984.04 621.772 2983.72 622.796 2983.72C623.692 2983.72 624.374 2984.08 624.844 2984.81C625.356 2985.49 625.462 2986.24 625.164 2987.05L616.268 3013.54C615.926 3014.57 615.308 3015.4 614.412 3016.04C613.558 3016.68 612.577 3017 611.468 3017H609.804C608.737 3017 607.756 3016.68 606.86 3016.04C605.964 3015.4 605.345 3014.57 605.004 3013.54ZM644.672 2988.07C639.808 2988.07 637.077 2990.95 636.48 2996.71C636.394 2997.1 636.565 2997.29 636.992 2997.29H651.328C651.669 2997.29 651.84 2997.1 651.84 2996.71C651.584 2990.95 649.194 2988.07 644.672 2988.07ZM646.272 3017.64C640.938 3017.64 636.821 3016.19 633.92 3013.29C631.061 3010.39 629.632 3006.08 629.632 3000.36C629.632 2994.64 630.912 2990.33 633.472 2987.43C636.074 2984.53 639.808 2983.08 644.672 2983.08C653.546 2983.08 658.133 2988.29 658.432 2998.7C658.474 2999.72 658.112 3000.57 657.344 3001.26C656.576 3001.94 655.68 3002.28 654.656 3002.28H636.928C636.586 3002.28 636.416 3002.45 636.416 3002.79C636.928 3009.36 640.426 3012.65 646.912 3012.65C649.173 3012.65 651.392 3012.29 653.568 3011.56C654.208 3011.35 654.805 3011.43 655.36 3011.82C655.914 3012.2 656.192 3012.73 656.192 3013.42C656.192 3014.23 655.936 3014.95 655.424 3015.59C654.912 3016.23 654.25 3016.66 653.44 3016.87C651.093 3017.38 648.704 3017.64 646.272 3017.64Z" fill="white"/>
<rect x="921" y="2911" width="464.679" height="163" rx="27" fill="white" stroke="#2D6A6E" stroke-width="6"/>
<path d="M1075.39 3017.64C1068.9 3017.64 1063.7 3015.55 1059.77 3011.37C1055.89 3007.19 1053.95 3001.28 1053.95 2993.64C1053.95 2986.09 1055.83 2980.2 1059.58 2975.98C1063.38 2971.75 1068.65 2969.64 1075.39 2969.64C1078.29 2969.64 1080.94 2969.85 1083.33 2970.28C1084.18 2970.45 1084.88 2970.9 1085.44 2971.62C1085.99 2972.31 1086.27 2973.1 1086.27 2973.99C1086.27 2974.76 1085.95 2975.38 1085.31 2975.85C1084.71 2976.27 1084.05 2976.38 1083.33 2976.17C1081.32 2975.66 1078.89 2975.4 1076.03 2975.4C1071.42 2975.4 1067.77 2977 1065.09 2980.2C1062.44 2983.36 1061.12 2987.84 1061.12 2993.64C1061.12 2999.44 1062.48 3003.94 1065.21 3007.14C1067.94 3010.3 1071.55 3011.88 1076.03 3011.88C1078.85 3011.88 1081.38 3011.6 1083.65 3011.05C1084.37 3010.83 1085.03 3010.96 1085.63 3011.43C1086.27 3011.9 1086.59 3012.52 1086.59 3013.29C1086.59 3014.18 1086.31 3014.99 1085.76 3015.72C1085.2 3016.4 1084.48 3016.83 1083.58 3017C1081.06 3017.43 1078.33 3017.64 1075.39 3017.64ZM1112.46 3000.23C1108.96 3000.23 1106.32 3000.83 1104.53 3002.02C1102.78 3003.18 1101.9 3004.75 1101.9 3006.76C1101.9 3008.34 1102.37 3009.64 1103.31 3010.66C1104.25 3011.69 1105.38 3012.2 1106.7 3012.2C1109.52 3012.2 1111.76 3011.33 1113.42 3009.58C1115.13 3007.78 1115.98 3005.35 1115.98 3002.28V3000.74C1115.98 3000.4 1115.79 3000.23 1115.41 3000.23H1112.46ZM1105.1 3017.64C1102.2 3017.64 1099.81 3016.7 1097.93 3014.82C1096.1 3012.95 1095.18 3010.47 1095.18 3007.4C1095.18 3003.65 1096.61 3000.74 1099.47 2998.7C1102.33 2996.61 1106.66 2995.56 1112.46 2995.56H1115.41C1115.79 2995.56 1115.98 2995.37 1115.98 2994.98V2994.28C1115.98 2992.02 1115.45 2990.44 1114.38 2989.54C1113.32 2988.65 1111.4 2988.2 1108.62 2988.2C1106.15 2988.2 1103.2 2988.71 1099.79 2989.74C1099.15 2989.95 1098.53 2989.86 1097.93 2989.48C1097.38 2989.05 1097.1 2988.5 1097.1 2987.82C1097.1 2986.96 1097.36 2986.19 1097.87 2985.51C1098.38 2984.83 1099.04 2984.4 1099.85 2984.23C1102.93 2983.46 1105.85 2983.08 1108.62 2983.08C1114 2983.08 1117.69 2984.04 1119.69 2985.96C1121.7 2987.88 1122.7 2991.4 1122.7 2996.52V3013.86C1122.7 3014.72 1122.38 3015.46 1121.74 3016.1C1121.14 3016.7 1120.42 3017 1119.57 3017C1118.71 3017 1117.97 3016.7 1117.33 3016.1C1116.73 3015.46 1116.41 3014.72 1116.37 3013.86L1116.3 3012.26C1116.3 3012.22 1116.28 3012.2 1116.24 3012.2C1116.15 3012.2 1116.11 3012.22 1116.11 3012.26C1113.64 3015.85 1109.97 3017.64 1105.1 3017.64ZM1138.63 3016.04C1137.99 3016.68 1137.2 3017 1136.27 3017C1135.33 3017 1134.52 3016.68 1133.83 3016.04C1133.19 3015.4 1132.87 3014.61 1132.87 3013.67V2986.86C1132.87 2986 1133.17 2985.28 1133.77 2984.68C1134.41 2984.04 1135.16 2983.72 1136.01 2983.72C1136.86 2983.72 1137.59 2984.04 1138.19 2984.68C1138.83 2985.28 1139.17 2986 1139.21 2986.86L1139.27 2987.82C1139.27 2987.86 1139.3 2987.88 1139.34 2987.88C1139.38 2987.88 1139.42 2987.86 1139.47 2987.82C1142.5 2984.66 1145.95 2983.08 1149.83 2983.08C1153.72 2983.08 1156.55 2984.19 1158.35 2986.41C1160.14 2988.58 1161.03 2992.17 1161.03 2997.16V3013.74C1161.03 3014.63 1160.71 3015.4 1160.07 3016.04C1159.43 3016.68 1158.67 3017 1157.77 3017C1156.87 3017 1156.08 3016.68 1155.4 3016.04C1154.76 3015.4 1154.44 3014.63 1154.44 3013.74V2998.12C1154.44 2994.28 1153.97 2991.68 1153.03 2990.31C1152.1 2988.9 1150.39 2988.2 1147.91 2988.2C1145.91 2988.2 1144.01 2989.1 1142.22 2990.89C1140.47 2992.64 1139.59 2994.51 1139.59 2996.52V3013.67C1139.59 3014.61 1139.27 3015.4 1138.63 3016.04ZM1184.98 3017.64C1179.86 3017.64 1175.91 3016.19 1173.14 3013.29C1170.36 3010.34 1168.98 3006.03 1168.98 3000.36C1168.98 2994.77 1170.32 2990.5 1173.01 2987.56C1175.7 2984.57 1179.47 2983.08 1184.34 2983.08C1186.6 2983.08 1188.75 2983.23 1190.8 2983.53C1191.61 2983.66 1192.27 2984.04 1192.78 2984.68C1193.34 2985.32 1193.62 2986.07 1193.62 2986.92C1193.62 2987.65 1193.32 2988.22 1192.72 2988.65C1192.17 2989.07 1191.53 2989.2 1190.8 2989.03C1188.71 2988.56 1186.73 2988.33 1184.85 2988.33C1181.9 2988.33 1179.69 2989.29 1178.19 2991.21C1176.74 2993.13 1176.02 2996.18 1176.02 3000.36C1176.02 3004.63 1176.78 3007.7 1178.32 3009.58C1179.9 3011.45 1182.29 3012.39 1185.49 3012.39C1187.49 3012.39 1189.41 3012.11 1191.25 3011.56C1191.93 3011.35 1192.55 3011.45 1193.1 3011.88C1193.66 3012.26 1193.94 3012.8 1193.94 3013.48C1193.94 3014.33 1193.66 3015.1 1193.1 3015.78C1192.55 3016.47 1191.87 3016.89 1191.06 3017.06C1189.01 3017.45 1186.98 3017.64 1184.98 3017.64ZM1216.92 2988.07C1212.06 2988.07 1209.33 2990.95 1208.73 2996.71C1208.64 2997.1 1208.82 2997.29 1209.24 2997.29H1223.58C1223.92 2997.29 1224.09 2997.1 1224.09 2996.71C1223.83 2990.95 1221.44 2988.07 1216.92 2988.07ZM1218.52 3017.64C1213.19 3017.64 1209.07 3016.19 1206.17 3013.29C1203.31 3010.39 1201.88 3006.08 1201.88 3000.36C1201.88 2994.64 1203.16 2990.33 1205.72 2987.43C1208.32 2984.53 1212.06 2983.08 1216.92 2983.08C1225.8 2983.08 1230.38 2988.29 1230.68 2998.7C1230.72 2999.72 1230.36 3000.57 1229.59 3001.26C1228.83 3001.94 1227.93 3002.28 1226.91 3002.28H1209.18C1208.84 3002.28 1208.67 3002.45 1208.67 3002.79C1209.18 3009.36 1212.68 3012.65 1219.16 3012.65C1221.42 3012.65 1223.64 3012.29 1225.82 3011.56C1226.46 3011.35 1227.06 3011.43 1227.61 3011.82C1228.16 3012.2 1228.44 3012.73 1228.44 3013.42C1228.44 3014.23 1228.19 3014.95 1227.67 3015.59C1227.16 3016.23 1226.5 3016.66 1225.69 3016.87C1223.34 3017.38 1220.95 3017.64 1218.52 3017.64ZM1247.47 3015.98C1246.79 3016.66 1245.98 3017 1245.04 3017C1244.1 3017 1243.27 3016.66 1242.54 3015.98C1241.86 3015.29 1241.52 3014.46 1241.52 3013.48V2972.52C1241.52 2971.54 1241.86 2970.71 1242.54 2970.02C1243.27 2969.34 1244.1 2969 1245.04 2969C1245.98 2969 1246.79 2969.34 1247.47 2970.02C1248.19 2970.71 1248.56 2971.54 1248.56 2972.52V3013.48C1248.56 3014.46 1248.19 3015.29 1247.47 3015.98Z" fill="#2D6A6E"/>
<path d="M424.808 2594.64C418.323 2594.64 413.117 2592.55 409.192 2588.37C405.309 2584.19 403.368 2578.28 403.368 2570.64C403.368 2563.09 405.245 2557.2 409 2552.98C412.797 2548.75 418.067 2546.64 424.808 2546.64C427.709 2546.64 430.355 2546.85 432.744 2547.28C433.597 2547.45 434.301 2547.9 434.856 2548.62C435.411 2549.31 435.688 2550.1 435.688 2550.99C435.688 2551.76 435.368 2552.38 434.728 2552.85C434.131 2553.27 433.469 2553.38 432.744 2553.17C430.739 2552.66 428.307 2552.4 425.448 2552.4C420.84 2552.4 417.192 2554 414.504 2557.2C411.859 2560.36 410.536 2564.84 410.536 2570.64C410.536 2576.44 411.901 2580.94 414.632 2584.14C417.363 2587.3 420.968 2588.88 425.448 2588.88C428.264 2588.88 430.803 2588.6 433.064 2588.05C433.789 2587.83 434.451 2587.96 435.048 2588.43C435.688 2588.9 436.008 2589.52 436.008 2590.29C436.008 2591.18 435.731 2591.99 435.176 2592.72C434.621 2593.4 433.896 2593.83 433 2594C430.483 2594.43 427.752 2594.64 424.808 2594.64ZM468.472 2577.36C468.472 2569.25 465.528 2565.2 459.64 2565.2C453.752 2565.2 450.808 2569.25 450.808 2577.36C450.808 2585.47 453.752 2589.52 459.64 2589.52C465.528 2589.52 468.472 2585.47 468.472 2577.36ZM471.16 2590.16C468.387 2593.15 464.547 2594.64 459.64 2594.64C454.734 2594.64 450.894 2593.15 448.12 2590.16C445.347 2587.13 443.96 2582.86 443.96 2577.36C443.96 2571.86 445.347 2567.61 448.12 2564.62C450.894 2561.59 454.734 2560.08 459.64 2560.08C464.547 2560.08 468.387 2561.59 471.16 2564.62C473.934 2567.61 475.32 2571.86 475.32 2577.36C475.32 2582.86 473.934 2587.13 471.16 2590.16ZM490.325 2572.56V2582.16C490.325 2584.12 491.136 2585.85 492.757 2587.34C494.421 2588.79 496.384 2589.52 498.645 2589.52C501.205 2589.52 503.232 2588.5 504.725 2586.45C506.219 2584.4 506.965 2581.37 506.965 2577.36C506.965 2569.25 504.192 2565.2 498.645 2565.2C496.384 2565.2 494.421 2565.95 492.757 2567.44C491.136 2568.89 490.325 2570.6 490.325 2572.56ZM489.301 2607.12C488.661 2607.76 487.872 2608.08 486.933 2608.08C485.995 2608.08 485.205 2607.76 484.565 2607.12C483.925 2606.48 483.605 2605.69 483.605 2604.75V2563.86C483.605 2563 483.904 2562.28 484.501 2561.68C485.141 2561.04 485.888 2560.72 486.741 2560.72C487.595 2560.72 488.341 2561.04 488.981 2561.68C489.621 2562.28 489.963 2563 490.005 2563.86V2564.82C490.005 2564.86 490.027 2564.88 490.069 2564.88C490.112 2564.88 490.155 2564.86 490.197 2564.82C491.776 2563.07 493.333 2561.85 494.869 2561.17C496.405 2560.44 498.197 2560.08 500.245 2560.08C504.299 2560.08 507.541 2561.59 509.973 2564.62C512.448 2567.65 513.686 2571.9 513.686 2577.36C513.686 2582.65 512.406 2586.85 509.845 2589.97C507.328 2593.08 504.128 2594.64 500.245 2594.64C496.448 2594.64 493.205 2593.27 490.517 2590.54C490.475 2590.5 490.432 2590.48 490.389 2590.48C490.347 2590.48 490.325 2590.5 490.325 2590.54V2604.75C490.325 2605.69 489.984 2606.48 489.301 2607.12ZM529.147 2593.49L518.651 2564.05C518.353 2563.24 518.459 2562.49 518.971 2561.81C519.483 2561.08 520.166 2560.72 521.019 2560.72C522.086 2560.72 523.046 2561.04 523.899 2561.68C524.753 2562.28 525.329 2563.07 525.627 2564.05L532.795 2586.26C532.795 2586.3 532.817 2586.32 532.859 2586.32C532.902 2586.32 532.923 2586.3 532.923 2586.26L540.923 2563.92C541.307 2562.94 541.905 2562.17 542.715 2561.62C543.526 2561.02 544.443 2560.72 545.467 2560.72C546.278 2560.72 546.897 2561.06 547.323 2561.74C547.793 2562.38 547.878 2563.09 547.579 2563.86L531.259 2604.94C530.875 2605.88 530.257 2606.63 529.403 2607.18C528.55 2607.78 527.611 2608.08 526.587 2608.08C525.819 2608.08 525.201 2607.74 524.731 2607.06C524.305 2606.37 524.241 2605.67 524.539 2604.94L529.147 2594.51C529.233 2594.34 529.275 2594.17 529.275 2594C529.275 2593.83 529.233 2593.66 529.147 2593.49ZM576.56 2549.52C576.56 2548.54 576.902 2547.71 577.584 2547.02C578.31 2546.34 579.142 2546 580.08 2546C581.019 2546 581.83 2546.34 582.512 2547.02C583.238 2547.71 583.6 2548.54 583.6 2549.52C583.6 2550.5 583.238 2551.33 582.512 2552.02C581.83 2552.7 581.019 2553.04 580.08 2553.04C579.142 2553.04 578.31 2552.7 577.584 2552.02C576.902 2551.33 576.56 2550.5 576.56 2549.52ZM582.512 2592.98C581.83 2593.66 581.019 2594 580.08 2594C579.142 2594 578.31 2593.66 577.584 2592.98C576.902 2592.29 576.56 2591.46 576.56 2590.48V2564.24C576.56 2563.26 576.902 2562.43 577.584 2561.74C578.31 2561.06 579.142 2560.72 580.08 2560.72C581.019 2560.72 581.83 2561.06 582.512 2561.74C583.238 2562.43 583.6 2563.26 583.6 2564.24V2590.48C583.6 2591.46 583.238 2592.29 582.512 2592.98ZM602.11 2593.04C601.47 2593.68 600.681 2594 599.742 2594C598.804 2594 597.993 2593.68 597.31 2593.04C596.67 2592.4 596.35 2591.61 596.35 2590.67V2563.86C596.35 2563 596.649 2562.28 597.246 2561.68C597.886 2561.04 598.633 2560.72 599.486 2560.72C600.34 2560.72 601.065 2561.04 601.662 2561.68C602.302 2562.28 602.644 2563 602.686 2563.86L602.75 2564.82C602.75 2564.86 602.772 2564.88 602.814 2564.88C602.857 2564.88 602.9 2564.86 602.942 2564.82C605.972 2561.66 609.428 2560.08 613.31 2560.08C617.193 2560.08 620.03 2561.19 621.822 2563.41C623.614 2565.58 624.51 2569.17 624.51 2574.16V2590.74C624.51 2591.63 624.19 2592.4 623.55 2593.04C622.91 2593.68 622.142 2594 621.246 2594C620.35 2594 619.561 2593.68 618.878 2593.04C618.238 2592.4 617.918 2591.63 617.918 2590.74V2575.12C617.918 2571.28 617.449 2568.68 616.51 2567.31C615.572 2565.9 613.865 2565.2 611.39 2565.2C609.385 2565.2 607.486 2566.1 605.694 2567.89C603.945 2569.64 603.07 2571.51 603.07 2573.52V2590.67C603.07 2591.61 602.75 2592.4 602.11 2593.04ZM640.668 2590.54L631.772 2564.18C631.473 2563.32 631.58 2562.53 632.092 2561.81C632.646 2561.08 633.372 2560.72 634.268 2560.72C635.334 2560.72 636.294 2561.04 637.148 2561.68C638.044 2562.32 638.641 2563.15 638.94 2564.18L646.364 2590.1C646.364 2590.14 646.385 2590.16 646.428 2590.16C646.47 2590.16 646.492 2590.14 646.492 2590.1L653.98 2564.11C654.278 2563.13 654.833 2562.32 655.644 2561.68C656.497 2561.04 657.436 2560.72 658.46 2560.72C659.356 2560.72 660.038 2561.08 660.508 2561.81C661.02 2562.49 661.126 2563.24 660.828 2564.05L651.932 2590.54C651.59 2591.57 650.972 2592.4 650.076 2593.04C649.222 2593.68 648.241 2594 647.132 2594H645.468C644.401 2594 643.42 2593.68 642.524 2593.04C641.628 2592.4 641.009 2591.57 640.668 2590.54ZM670.713 2549.52C670.713 2548.54 671.054 2547.71 671.737 2547.02C672.462 2546.34 673.294 2546 674.233 2546C675.172 2546 675.982 2546.34 676.665 2547.02C677.39 2547.71 677.753 2548.54 677.753 2549.52C677.753 2550.5 677.39 2551.33 676.665 2552.02C675.982 2552.7 675.172 2553.04 674.233 2553.04C673.294 2553.04 672.462 2552.7 671.737 2552.02C671.054 2551.33 670.713 2550.5 670.713 2549.52ZM676.665 2592.98C675.982 2593.66 675.172 2594 674.233 2594C673.294 2594 672.462 2593.66 671.737 2592.98C671.054 2592.29 670.713 2591.46 670.713 2590.48V2564.24C670.713 2563.26 671.054 2562.43 671.737 2561.74C672.462 2561.06 673.294 2560.72 674.233 2560.72C675.172 2560.72 675.982 2561.06 676.665 2561.74C677.39 2562.43 677.753 2563.26 677.753 2564.24V2590.48C677.753 2591.46 677.39 2592.29 676.665 2592.98ZM691.463 2567.12C690.738 2567.12 690.119 2566.86 689.607 2566.35C689.138 2565.84 688.903 2565.24 688.903 2564.56C688.903 2563.88 689.138 2563.28 689.607 2562.77C690.119 2562.26 690.738 2562 691.463 2562H695.047C695.431 2562 695.623 2561.81 695.623 2561.42V2553.17C695.623 2552.23 695.943 2551.44 696.583 2550.8C697.223 2550.16 698.012 2549.84 698.951 2549.84C699.89 2549.84 700.679 2550.16 701.319 2550.8C702.002 2551.44 702.343 2552.23 702.343 2553.17V2561.42C702.343 2561.81 702.535 2562 702.919 2562H711.303C712.028 2562 712.626 2562.26 713.095 2562.77C713.607 2563.28 713.863 2563.88 713.863 2564.56C713.863 2565.24 713.607 2565.84 713.095 2566.35C712.626 2566.86 712.028 2567.12 711.303 2567.12H702.919C702.535 2567.12 702.343 2567.31 702.343 2567.7V2582.48C702.343 2585.38 702.684 2587.28 703.367 2588.18C704.05 2589.07 705.415 2589.52 707.463 2589.52C708.444 2589.52 709.383 2589.46 710.279 2589.33C710.962 2589.24 711.559 2589.39 712.071 2589.78C712.626 2590.16 712.903 2590.67 712.903 2591.31C712.903 2592.08 712.647 2592.76 712.135 2593.36C711.623 2593.96 710.983 2594.3 710.215 2594.38C708.423 2594.55 707.079 2594.64 706.183 2594.64C702.258 2594.64 699.506 2593.81 697.927 2592.14C696.391 2590.48 695.623 2587.47 695.623 2583.12V2567.7C695.623 2567.31 695.431 2567.12 695.047 2567.12H691.463ZM736.52 2565.07C731.656 2565.07 728.926 2567.95 728.328 2573.71C728.243 2574.1 728.414 2574.29 728.84 2574.29H743.176C743.518 2574.29 743.688 2574.1 743.688 2573.71C743.432 2567.95 741.043 2565.07 736.52 2565.07ZM738.12 2594.64C732.787 2594.64 728.67 2593.19 725.768 2590.29C722.91 2587.39 721.48 2583.08 721.48 2577.36C721.48 2571.64 722.76 2567.33 725.32 2564.43C727.923 2561.53 731.656 2560.08 736.52 2560.08C745.395 2560.08 749.982 2565.29 750.28 2575.7C750.323 2576.72 749.96 2577.57 749.192 2578.26C748.424 2578.94 747.528 2579.28 746.504 2579.28H728.776C728.435 2579.28 728.264 2579.45 728.264 2579.79C728.776 2586.36 732.275 2589.65 738.76 2589.65C741.022 2589.65 743.24 2589.29 745.416 2588.56C746.056 2588.35 746.654 2588.43 747.208 2588.82C747.763 2589.2 748.04 2589.73 748.04 2590.42C748.04 2591.23 747.784 2591.95 747.272 2592.59C746.76 2593.23 746.099 2593.66 745.288 2593.87C742.942 2594.38 740.552 2594.64 738.12 2594.64ZM786.097 2592.98C785.415 2593.66 784.604 2594 783.665 2594C782.727 2594 781.895 2593.66 781.169 2592.98C780.487 2592.29 780.145 2591.46 780.145 2590.48V2549.52C780.145 2548.54 780.487 2547.71 781.169 2547.02C781.895 2546.34 782.727 2546 783.665 2546C784.604 2546 785.415 2546.34 786.097 2547.02C786.823 2547.71 787.185 2548.54 787.185 2549.52V2590.48C787.185 2591.46 786.823 2592.29 786.097 2592.98ZM800.926 2549.52C800.926 2548.54 801.267 2547.71 801.95 2547.02C802.675 2546.34 803.507 2546 804.446 2546C805.384 2546 806.195 2546.34 806.878 2547.02C807.603 2547.71 807.966 2548.54 807.966 2549.52C807.966 2550.5 807.603 2551.33 806.878 2552.02C806.195 2552.7 805.384 2553.04 804.446 2553.04C803.507 2553.04 802.675 2552.7 801.95 2552.02C801.267 2551.33 800.926 2550.5 800.926 2549.52ZM806.878 2592.98C806.195 2593.66 805.384 2594 804.446 2594C803.507 2594 802.675 2593.66 801.95 2592.98C801.267 2592.29 800.926 2591.46 800.926 2590.48V2564.24C800.926 2563.26 801.267 2562.43 801.95 2561.74C802.675 2561.06 803.507 2560.72 804.446 2560.72C805.384 2560.72 806.195 2561.06 806.878 2561.74C807.603 2562.43 807.966 2563.26 807.966 2564.24V2590.48C807.966 2591.46 807.603 2592.29 806.878 2592.98ZM826.476 2593.04C825.836 2593.68 825.046 2594 824.108 2594C823.169 2594 822.358 2593.68 821.676 2593.04C821.036 2592.4 820.716 2591.61 820.716 2590.67V2563.86C820.716 2563 821.014 2562.28 821.612 2561.68C822.252 2561.04 822.998 2560.72 823.852 2560.72C824.705 2560.72 825.43 2561.04 826.028 2561.68C826.668 2562.28 827.009 2563 827.052 2563.86L827.116 2564.82C827.116 2564.86 827.137 2564.88 827.18 2564.88C827.222 2564.88 827.265 2564.86 827.308 2564.82C830.337 2561.66 833.793 2560.08 837.676 2560.08C841.558 2560.08 844.396 2561.19 846.188 2563.41C847.98 2565.58 848.876 2569.17 848.876 2574.16V2590.74C848.876 2591.63 848.556 2592.4 847.916 2593.04C847.276 2593.68 846.508 2594 845.612 2594C844.716 2594 843.926 2593.68 843.244 2593.04C842.604 2592.4 842.284 2591.63 842.284 2590.74V2575.12C842.284 2571.28 841.814 2568.68 840.876 2567.31C839.937 2565.9 838.23 2565.2 835.756 2565.2C833.75 2565.2 831.852 2566.1 830.06 2567.89C828.31 2569.64 827.436 2571.51 827.436 2573.52V2590.67C827.436 2591.61 827.116 2592.4 826.476 2593.04ZM865.074 2593.04C864.434 2593.68 863.645 2594 862.706 2594C861.767 2594 860.978 2593.68 860.338 2593.04C859.698 2592.4 859.378 2591.61 859.378 2590.67V2549.33C859.378 2548.39 859.698 2547.6 860.338 2546.96C860.978 2546.32 861.767 2546 862.706 2546C863.645 2546 864.434 2546.32 865.074 2546.96C865.757 2547.6 866.098 2548.39 866.098 2549.33V2575.38C866.098 2575.42 866.119 2575.44 866.162 2575.44L866.29 2575.38L877.682 2563.34C879.346 2561.59 881.394 2560.72 883.826 2560.72H884.53C885.213 2560.72 885.682 2561.04 885.938 2561.68C886.237 2562.32 886.151 2562.87 885.682 2563.34L873.202 2576.34C872.989 2576.55 872.989 2576.81 873.202 2577.1L885.746 2591.31C886.215 2591.82 886.301 2592.4 886.002 2593.04C885.746 2593.68 885.255 2594 884.53 2594H883.826C881.437 2594 879.431 2593.08 877.81 2591.25L866.29 2578.06C866.247 2578.02 866.205 2578 866.162 2578C866.119 2578 866.098 2578.02 866.098 2578.06V2590.67C866.098 2591.61 865.757 2592.4 865.074 2593.04Z" fill="#2D6A6E"/>
<path d="M263.692 2538.34L269.192 2532.84C271.357 2530.67 273.927 2528.96 276.755 2527.78C279.584 2526.61 282.616 2526.01 285.677 2526.01C288.739 2526.01 291.771 2526.61 294.599 2527.78C297.428 2528.96 299.998 2530.67 302.162 2532.84C304.328 2535 306.045 2537.57 307.217 2540.4C308.389 2543.23 308.992 2546.26 308.992 2549.32C308.992 2552.39 308.389 2555.42 307.217 2558.25C306.045 2561.07 304.328 2563.64 302.162 2565.81L284.802 2583.17C282.635 2585.34 280.062 2587.06 277.23 2588.23C274.398 2589.4 271.362 2590 268.297 2590C265.232 2590 262.198 2589.39 259.367 2588.21C256.537 2587.04 253.966 2585.32 251.802 2583.14C249.563 2580.91 247.804 2578.23 246.635 2575.29C245.465 2572.35 244.91 2569.2 245.002 2566.03M250.312 2601.66L244.812 2607.16C242.645 2609.33 240.072 2611.05 237.24 2612.22C234.408 2613.39 231.372 2613.99 228.307 2613.99C225.242 2613.99 222.208 2613.38 219.377 2612.2C216.547 2611.03 213.976 2609.31 211.812 2607.13C207.452 2602.76 205.007 2596.83 205.012 2590.66C205.018 2584.48 207.474 2578.56 211.842 2574.19L229.202 2556.83C231.367 2554.66 233.937 2552.95 236.765 2551.77C239.594 2550.6 242.626 2550 245.687 2550C248.749 2550 251.781 2550.6 254.609 2551.77C257.438 2552.95 260.008 2554.66 262.172 2556.83C264.421 2559.07 266.188 2561.74 267.362 2564.69C268.537 2567.64 269.095 2570.8 269.002 2573.97" stroke="#2D6A6E" stroke-width="7" stroke-linecap="round" stroke-linejoin="round"/>
</g>
</g>
<rect x="39" y="41" width="1687" height="3562" rx="180" stroke="#1D4E51" stroke-width="60"/>
<path d="M553 71H1208V71C1208 104.137 1181.14 131 1148 131H613C579.863 131 553 104.137 553 71V71Z" fill="#1D4E51"/>
</g>
<rect x="2.5" y="2.5" width="1760" height="3639" rx="207.5" stroke="#1D4E51" stroke-width="5"/>
<defs>
<clipPath id="clip0_687_908">
<rect width="1765" height="3644" rx="210" fill="white"/>
</clipPath>
<clipPath id="clip1_687_908">
<rect x="9" y="11" width="1747" height="3622" rx="210" fill="white"/>
</clipPath>
<clipPath id="clip2_687_908">
<rect width="1702" height="3689" fill="white" transform="translate(22 127)"/>
</clipPath>
</defs>
</svg>
