<svg width="726" height="236" viewBox="0 0 726 236" fill="none" xmlns="http://www.w3.org/2000/svg">
<path d="M29 102.181L56.1024 78.7634M218.717 102.181L191.052 78.7287M191.052 78.7287L130.789 27.6412C126.28 23.8182 119.657 23.8494 115.184 27.7147L56.1024 78.7634M191.052 78.7287V183.99C191.052 190.618 185.68 195.99 179.052 195.99H68.1024C61.475 195.99 56.1024 190.631 56.1024 184.004C56.1024 150.094 56.1024 101.191 56.1024 78.7634" stroke="#2D6A6E" stroke-width="10" stroke-linecap="round"/>
<line x1="57.5874" y1="175.397" x2="191.862" y2="175.397" stroke="#2D6A6E" stroke-width="10"/>
<path d="M126.891 111.218C126.891 111.218 100.034 89.4368 89.7039 89.4368C79.3741 89.4368 83.506 101.689 91.7696 116.663C100.033 131.637 126.891 137.083 126.891 137.083" stroke="#2D6A6E" stroke-width="10"/>
<path d="M126.891 123.667C126.891 123.667 151.599 100.698 161.102 100.698C170.606 100.698 166.804 113.619 159.202 129.41C151.599 145.201 126.891 150.943 126.891 150.943" stroke="#2D6A6E" stroke-width="10"/>
<path d="M131.891 79.0413C131.891 76.2799 129.652 74.0413 126.891 74.0413C124.129 74.0413 121.891 76.2799 121.891 79.0413L131.891 79.0413ZM131.891 180.397L131.891 79.0413L121.891 79.0413L121.891 180.397L131.891 180.397Z" fill="#2D6A6E"/>
<path d="M288.8 124.45V160.9C288.8 161.7 289.2 162.2 290 162.4C293.9 163 298 163.3 302.3 163.3C311.7 163.3 318.6 161.55 323 158.05C327.4 154.55 329.6 149.2 329.6 142C329.6 135.5 326.95 130.75 321.65 127.75C316.35 124.65 307.4 123.1 294.8 123.1H290.15C289.25 123.1 288.8 123.55 288.8 124.45ZM288.8 79.6V108.85C288.8 109.75 289.25 110.2 290.15 110.2H294.8C305.8 110.2 313.7 108.8 318.5 106C323.4 103.2 325.85 98.95 325.85 93.25C325.85 87.75 323.9 83.7 320 81.1C316.1 78.5 309.7 77.2 300.8 77.2C297 77.2 293.4 77.5 290 78.1C289.2 78.3 288.8 78.8 288.8 79.6ZM280.85 175.45C278.35 175.15 276.3 174.1 274.7 172.3C273.1 170.4 272.3 168.2 272.3 165.7V74.8C272.3 72.3 273.1 70.15 274.7 68.35C276.3 66.45 278.35 65.35 280.85 65.05C286.85 64.35 293.5 64 300.8 64C327.8 64 341.3 73 341.3 91C341.3 97 339.25 102.3 335.15 106.9C331.05 111.4 325.65 114.3 318.95 115.6C318.85 115.6 318.8 115.65 318.8 115.75C318.8 115.85 318.85 115.9 318.95 115.9C327.35 117.2 333.9 120.3 338.6 125.2C343.4 130.1 345.8 136.2 345.8 143.5C345.8 165.5 331.3 176.5 302.3 176.5C294.4 176.5 287.25 176.15 280.85 175.45ZM381.406 172.6C379.806 174.2 377.906 175 375.706 175C373.506 175 371.556 174.2 369.856 172.6C368.256 171 367.456 169.05 367.456 166.75V70.75C367.456 68.45 368.256 66.5 369.856 64.9C371.556 63.3 373.506 62.5 375.706 62.5C377.906 62.5 379.806 63.3 381.406 64.9C383.106 66.5 383.956 68.45 383.956 70.75V166.75C383.956 169.05 383.106 171 381.406 172.6ZM463.039 136C463.039 117 456.139 107.5 442.339 107.5C428.539 107.5 421.639 117 421.639 136C421.639 155 428.539 164.5 442.339 164.5C456.139 164.5 463.039 155 463.039 136ZM469.339 166C462.839 173 453.839 176.5 442.339 176.5C430.839 176.5 421.839 173 415.339 166C408.839 158.9 405.589 148.9 405.589 136C405.589 123.1 408.839 113.15 415.339 106.15C421.839 99.05 430.839 95.5 442.339 95.5C453.839 95.5 462.839 99.05 469.339 106.15C475.839 113.15 479.089 123.1 479.089 136C479.089 148.9 475.839 158.9 469.339 166ZM549.172 136C549.172 117 542.272 107.5 528.472 107.5C514.672 107.5 507.772 117 507.772 136C507.772 155 514.672 164.5 528.472 164.5C542.272 164.5 549.172 155 549.172 136ZM555.472 166C548.972 173 539.972 176.5 528.472 176.5C516.972 176.5 507.972 173 501.472 166C494.972 158.9 491.722 148.9 491.722 136C491.722 123.1 494.972 113.15 501.472 106.15C507.972 99.05 516.972 95.5 528.472 95.5C539.972 95.5 548.972 99.05 555.472 106.15C561.972 113.15 565.222 123.1 565.222 136C565.222 148.9 561.972 158.9 555.472 166ZM594.99 172.75C593.49 174.25 591.64 175 589.44 175C587.24 175 585.39 174.25 583.89 172.75C582.39 171.25 581.64 169.4 581.64 167.2V104.5C581.64 102.4 582.34 100.65 583.74 99.25C585.24 97.75 587.04 97 589.14 97C591.24 97 593.04 97.75 594.54 99.25C596.04 100.65 596.84 102.4 596.94 104.5V105.85C596.94 105.95 596.99 106 597.09 106C597.29 106 597.39 105.95 597.39 105.85C603.29 98.95 609.79 95.5 616.89 95.5C621.29 95.5 624.84 96.4 627.54 98.2C630.24 100 632.59 103.05 634.59 107.35C634.59 107.45 634.69 107.5 634.89 107.5C634.99 107.5 635.09 107.45 635.19 107.35C641.09 99.45 648.09 95.5 656.19 95.5C664.39 95.5 670.24 97.75 673.74 102.25C677.34 106.65 679.14 114.4 679.14 125.5V167.2C679.14 169.3 678.34 171.15 676.74 172.75C675.24 174.25 673.44 175 671.34 175C669.24 175 667.44 174.25 665.94 172.75C664.44 171.15 663.69 169.3 663.69 167.2V130C663.69 120.9 662.84 114.9 661.14 112C659.44 109 656.29 107.5 651.69 107.5C648.79 107.5 645.79 109 642.69 112C639.69 115 638.19 118 638.19 121V167.2C638.19 169.3 637.44 171.15 635.94 172.75C634.44 174.25 632.64 175 630.54 175C628.44 175 626.59 174.25 624.99 172.75C623.49 171.15 622.74 169.3 622.74 167.2V130C622.74 120.9 621.89 114.9 620.19 112C618.49 109 615.34 107.5 610.74 107.5C607.84 107.5 604.89 109 601.89 112C598.89 115 597.39 118 597.39 121V167.2C597.39 169.4 596.59 171.25 594.99 172.75Z" fill="#2D6A6E"/>
</svg>
